{"glyphs":{"0":{"ha":800,"x_min":46,"x_max":917,"o":"m 872 854 q 836 848 869 835 q 783 861 803 861 q 760 861 763 861 q 839 813 803 847 q 917 629 917 739 q 856 406 917 519 q 692 201 794 292 q 214 -12 451 -12 q 161 -8 186 -12 q 46 154 46 7 q 154 478 46 301 q 342 693 221 589 q 588 853 464 797 q 582 864 582 858 q 628 881 582 881 q 661 879 642 881 q 768 893 701 893 q 872 854 872 893 m 110 133 q 178 22 110 28 q 206 21 192 21 q 618 219 393 21 q 843 640 843 417 q 799 782 843 746 q 671 846 731 835 q 399 669 542 806 q 224 460 293 567 q 110 133 110 283 z "},"1":{"ha":485,"x_min":-1,"x_max":671,"o":"m 418 110 q 433 94 433 110 q 413 75 433 75 q 214 42 319 75 q 92 -4 163 24 q 17 -32 22 -32 q 6 -22 13 -32 q -1 8 -1 -11 q 11 31 -1 26 q 151 82 49 47 q 500 717 325 400 q 306 625 424 669 q 285 639 285 617 q 297 657 285 650 q 560 824 392 692 l 568 838 q 626 864 582 864 q 671 843 671 864 q 667 832 671 839 l 219 93 q 418 110 314 110 z "},"2":{"ha":900,"x_min":0,"x_max":1000,"o":"m 733 -15 q 835 6 786 -15 q 896 79 896 31 q 811 165 896 135 q 800 176 800 169 q 824 188 800 194 q 939 76 939 154 q 868 -28 939 11 q 719 -68 797 -68 q 524 -28 640 -68 l 331 42 q 226 61 265 61 q 63 -3 176 38 q 33 -7 46 -7 q 0 18 0 -7 q 36 76 0 49 q 190 111 89 111 q 238 110 214 111 q 660 382 563 306 q 804 517 757 458 q 883 683 869 594 q 886 707 886 700 q 793 782 886 782 q 569 722 700 782 q 363 596 438 663 q 350 590 357 590 q 336 607 336 590 q 344 624 336 617 q 599 776 440 706 q 879 847 758 847 q 1000 749 1000 847 q 871 510 1000 640 q 674 340 815 451 q 274 93 532 228 q 486 35 333 86 q 733 -15 639 -15 z "},"3":{"ha":997,"x_min":44,"x_max":1038,"o":"m 906 850 q 1036 733 1036 850 q 1036 724 1036 729 q 788 528 1029 603 q 997 381 997 506 q 992 342 997 360 q 746 75 950 178 q 354 -14 567 -14 q 131 29 218 -14 q 44 153 44 72 q 75 251 44 196 q 201 347 106 307 q 360 388 296 388 q 376 376 376 388 q 357 363 376 363 q 238 317 311 363 q 151 224 165 272 q 144 176 144 196 q 310 26 144 56 q 397 18 353 18 q 644 76 518 18 q 907 336 839 167 q 917 383 917 360 q 858 464 917 439 q 719 489 800 489 q 585 468 639 489 q 558 463 572 463 q 533 486 533 463 q 545 515 533 503 q 574 528 557 528 q 797 568 693 528 q 947 717 931 621 q 949 735 949 724 q 874 794 949 794 q 706 759 800 794 q 546 682 611 724 q 536 678 539 678 q 526 696 526 678 q 553 743 526 738 q 654 818 585 753 q 669 824 663 826 q 676 813 676 821 q 670 800 676 806 q 657 786 664 794 q 906 850 806 850 z "},"4":{"ha":789,"x_min":18,"x_max":950,"o":"m 564 283 q 714 250 661 250 q 799 274 767 250 q 839 354 839 307 q 835 387 839 369 q 844 404 831 404 q 865 390 858 404 q 892 306 892 343 q 722 211 892 211 q 542 244 650 211 q 475 31 489 146 q 474 -15 474 14 q 490 -75 474 -44 q 493 -87 493 -83 q 471 -112 493 -112 q 449 -104 456 -112 q 429 -4 429 -62 q 492 258 429 101 q 305 289 385 289 q 57 219 225 289 q 29 228 40 214 q 18 263 18 242 q 49 308 18 299 q 126 328 69 317 q 355 478 201 368 q 550 615 508 588 q 867 858 817 783 l 879 878 q 903 888 886 888 q 950 861 950 888 q 703 504 950 860 q 564 283 622 385 m 321 349 q 511 304 394 349 q 740 678 572 438 l 772 725 q 491 532 685 671 q 225 342 297 393 q 321 349 282 349 z "},"5":{"ha":919,"x_min":-46,"x_max":1101,"o":"m 1039 788 q 938 769 997 769 q 761 788 878 769 q 562 806 644 806 q 428 767 479 806 q 414 779 417 758 q 414 816 411 793 q 426 846 417 839 q 489 873 458 869 q 578 876 519 876 q 767 840 638 876 q 941 804 896 804 q 1027 824 986 804 q 1068 878 1068 844 q 1085 899 1068 899 q 1101 863 1101 899 q 1039 788 1101 814 m 192 -11 q 23 25 92 -11 q -46 130 -46 61 q 44 285 -46 199 q 69 299 58 299 q 81 288 81 299 q 67 264 81 278 q 17 163 17 217 q 81 69 17 108 q 231 31 144 31 q 569 151 396 31 q 774 426 742 271 q 776 454 776 446 q 690 560 776 524 q 565 581 631 581 q 386 540 469 581 l 240 469 q 232 468 238 468 q 219 487 219 468 q 238 514 219 506 l 401 721 q 453 736 414 736 q 492 728 492 736 q 489 722 492 725 l 328 547 q 582 618 506 618 q 879 471 879 618 q 871 421 879 447 q 619 119 814 242 q 192 -11 411 -11 z "},"6":{"ha":850,"x_min":68,"x_max":1035,"o":"m 832 835 l 960 842 q 1013 828 990 842 q 1035 797 1035 814 q 1019 776 1035 779 q 515 593 806 735 q 263 406 382 529 q 118 136 118 258 q 292 10 118 10 q 536 54 388 10 q 674 130 604 75 q 743 246 743 185 q 679 294 743 294 q 470 231 581 294 q 342 67 360 168 q 318 40 338 40 q 306 64 301 40 q 447 267 328 192 q 697 343 569 343 q 825 249 825 343 q 739 106 825 175 q 585 26 669 53 q 294 -26 411 -26 q 124 20 178 -26 q 69 140 69 67 q 184 404 69 260 q 474 643 299 549 q 825 806 689 760 q 798 813 803 811 q 794 821 793 815 q 810 831 797 826 q 832 835 824 836 z "},"7":{"ha":686,"x_min":149,"x_max":969,"o":"m 207 19 q 210 -4 207 10 q 193 -21 211 -21 q 169 4 171 -21 q 168 28 168 11 q 355 386 168 175 q 803 803 542 597 q 485 833 581 833 q 329 808 389 833 q 219 682 250 774 q 187 654 208 654 q 158 663 165 654 q 150 679 150 672 q 156 710 150 692 l 181 760 q 194 810 194 789 q 208 850 194 853 q 219 807 219 842 q 481 894 317 894 q 666 867 551 894 q 840 832 781 840 l 911 885 q 924 888 915 888 q 951 869 933 888 q 969 841 969 850 q 963 828 969 832 q 400 360 629 586 q 269 191 332 292 q 207 19 207 90 z "},"8":{"ha":844,"x_min":1,"x_max":999,"o":"m 715 514 q 817 364 817 450 q 710 188 817 278 q 453 36 603 97 q 187 -25 304 -25 q 31 21 69 -25 q 1 100 1 54 q 86 274 1 183 q 460 557 244 446 q 374 658 374 610 q 379 686 374 674 q 513 822 410 769 q 707 875 617 875 q 846 847 797 875 q 883 792 883 825 q 858 724 883 758 l 975 761 q 992 758 986 764 q 997 744 997 753 q 957 708 997 718 q 588 576 793 672 q 715 514 671 542 m 815 814 q 704 833 761 833 q 533 789 606 833 q 461 692 461 744 q 547 594 461 633 q 813 708 646 642 q 842 785 842 765 q 815 814 842 804 m 78 92 q 190 1 78 1 q 406 53 281 1 q 738 331 738 189 q 618 475 738 414 l 499 536 q 246 349 376 467 q 78 92 78 194 z "},"9":{"ha":611,"x_min":103,"x_max":863,"o":"m 186 435 q 104 501 104 435 q 253 714 104 619 q 535 829 372 789 q 807 869 699 869 q 829 869 818 869 q 838 856 839 869 q 824 826 836 843 q 792 810 811 808 q 746 811 774 811 q 392 731 574 811 q 168 518 175 635 q 213 472 165 472 q 518 608 306 472 q 779 796 656 696 q 804 801 785 801 q 863 772 863 801 q 850 751 863 761 q 697 617 778 690 q 225 -126 225 181 q 246 -187 225 -181 q 253 -206 267 -196 q 238 -211 247 -211 q 224 -211 229 -211 q 167 -126 167 -204 q 309 241 167 21 q 631 636 451 461 q 186 435 340 435 z "}," ":{"ha":275,"x_min":0,"x_max":0,"o":""},"!":{"ha":360,"x_min":107,"x_max":526,"o":"m 193 163 q 188 189 183 163 q 317 453 204 285 q 469 622 429 622 q 506 616 486 622 q 526 599 526 610 q 521 589 526 594 q 349 378 463 528 q 222 196 236 229 q 193 163 207 163 m 161 92 q 200 78 182 92 q 218 47 218 65 q 201 16 218 29 q 163 3 183 3 q 124 18 142 3 q 107 53 107 33 q 161 92 107 92 z "},"\"":{"ha":286,"x_min":24,"x_max":286,"o":"m 286 608 q 242 503 286 550 q 181 457 197 457 q 165 460 165 457 q 195 498 165 464 q 225 552 225 532 q 206 589 225 572 q 188 614 188 606 q 229 656 188 656 q 268 642 250 656 q 286 608 286 628 m 146 608 q 101 503 146 550 q 35 457 56 457 q 24 461 24 457 q 38 478 29 468 q 56 497 47 488 q 85 551 85 529 q 66 589 85 572 q 47 614 47 606 q 88 656 47 656 q 127 642 108 656 q 146 608 146 628 z "},"#":{"ha":1099,"x_min":-14,"x_max":1081,"o":"m 801 658 l 1032 664 q 1081 653 1081 664 q 1049 632 1081 643 q 911 601 971 601 l 781 601 l 689 358 l 889 360 q 958 344 958 360 q 928 324 958 333 q 790 297 853 297 l 665 296 l 617 163 q 544 53 579 53 q 528 75 528 53 q 535 128 528 97 q 597 296 560 190 l 324 294 l 275 163 q 204 53 238 53 q 186 76 186 53 q 194 128 186 100 q 263 294 224 194 l 117 293 q -14 329 -14 293 q 57 357 -14 353 l 288 358 q 375 600 322 453 q 229 599 233 599 q 110 629 118 599 q 178 663 99 657 q 397 660 208 663 l 461 840 q 496 901 483 901 q 508 864 508 901 q 486 728 506 782 l 461 660 q 726 657 678 657 q 840 899 815 894 q 854 863 854 901 q 828 728 850 786 l 801 658 m 439 600 l 347 358 l 619 358 q 706 601 635 403 l 439 600 z "},"$":{"ha":746,"x_min":10,"x_max":739,"o":"m 256 306 q 430 340 346 306 q 554 440 514 374 q 569 485 569 467 q 529 533 569 515 q 400 567 489 550 q 213 307 283 411 q 256 306 226 306 m 310 686 q 382 624 310 646 q 535 824 446 708 q 351 756 415 813 q 310 686 310 717 m 199 289 q 81 58 81 111 q 96 28 81 35 q 92 14 101 24 q 69 4 83 4 q 49 45 49 4 q 75 160 49 86 q 151 296 89 196 q 18 406 44 322 q 10 447 10 425 q 24 494 10 469 q 88 538 49 538 q 96 535 96 538 q 79 519 96 529 l 56 503 q 40 460 40 488 q 78 369 40 408 q 164 315 115 329 q 349 578 243 435 q 256 671 256 603 q 318 771 256 721 q 557 851 414 846 q 707 1019 692 1019 q 730 1012 722 1019 q 738 995 738 1004 q 726 972 738 986 q 622 847 681 919 q 738 757 738 831 q 683 685 738 706 q 630 672 651 672 q 608 683 608 672 q 628 690 608 689 q 700 744 700 694 q 601 822 700 810 q 435 611 528 732 q 564 582 478 606 q 631 506 631 556 q 585 406 631 456 q 490 333 539 356 q 257 286 388 286 q 199 289 235 286 z "},"%":{"ha":974,"x_min":132,"x_max":938,"o":"m 896 979 q 910 982 901 982 q 927 973 918 982 q 936 954 936 964 q 924 929 936 944 q 494 388 736 714 q 207 -54 251 63 q 199 -102 199 -79 q 209 -131 199 -125 q 214 -146 219 -136 q 185 -160 204 -160 q 161 -114 161 -160 q 194 22 161 -68 q 459 433 226 113 q 842 924 692 753 q 673 861 772 890 q 507 829 574 832 q 508 817 508 824 q 415 654 508 768 q 228 519 306 519 l 206 519 q 149 557 169 519 q 132 615 132 583 q 253 849 132 699 q 450 1000 375 1000 q 521 925 521 1000 q 514 875 521 906 q 528 872 515 872 q 571 876 540 872 q 896 979 711 893 m 817 226 q 785 196 817 208 q 786 183 786 190 q 693 21 786 135 q 506 -114 583 -114 l 483 -114 q 426 -76 447 -114 q 410 -18 410 -50 q 531 216 410 65 q 728 367 653 367 q 799 292 799 367 q 792 242 799 272 q 804 237 792 240 q 817 226 817 233 m 418 889 q 284 778 371 889 q 197 614 197 667 q 231 561 197 561 q 382 669 290 561 q 474 825 474 778 q 418 889 451 838 m 696 256 q 562 144 649 256 q 475 -19 475 33 q 508 -72 475 -72 q 660 36 568 -72 q 751 192 751 144 q 696 256 729 204 z "},"&":{"ha":1046,"x_min":18,"x_max":1035,"o":"m 542 618 q 619 586 619 618 q 614 572 619 578 q 535 542 596 542 q 426 578 475 542 q 251 483 351 556 q 96 257 96 368 q 264 119 96 133 q 464 428 297 325 q 581 477 518 463 q 666 497 643 492 q 744 510 689 501 q 807 521 799 519 q 973 571 936 543 q 1010 624 1010 599 q 1008 639 1010 631 q 1011 649 1006 647 q 1024 644 1017 650 q 1035 607 1035 629 q 1007 553 1035 585 q 892 494 965 511 q 817 478 864 488 q 750 464 771 469 q 776 389 776 439 q 654 188 776 286 q 293 79 519 79 q 292 44 292 68 q 356 -109 292 -53 q 519 -165 421 -165 q 579 -142 554 -165 q 604 -90 604 -119 q 599 -68 604 -81 q 609 -56 593 -56 q 625 -92 625 -56 q 593 -158 625 -129 q 519 -186 561 -186 q 339 -126 411 -186 q 257 44 257 -61 q 258 81 257 68 q 75 142 138 92 q 18 249 18 190 q 224 506 18 383 q 411 593 319 564 q 372 706 372 636 q 389 765 372 742 q 528 869 435 831 q 750 918 638 918 q 896 825 899 918 q 862 755 893 785 q 793 725 831 725 q 756 744 756 725 q 774 758 756 758 l 797 754 q 835 778 817 754 q 854 825 854 801 q 811 879 854 863 q 758 889 783 889 q 564 840 642 889 q 450 732 486 792 q 429 660 429 697 q 446 603 429 622 q 542 618 500 618 m 731 399 q 678 460 731 460 q 610 447 661 460 q 297 118 342 347 q 358 122 328 118 q 643 236 538 142 q 731 399 731 315 m 578 582 q 541 594 578 594 q 463 586 504 594 q 538 564 497 564 q 578 582 578 564 z "},"'":{"ha":181,"x_min":101,"x_max":238,"o":"m 110 374 q 101 379 101 374 q 139 433 101 385 q 176 501 176 481 q 158 539 176 522 q 139 564 139 556 q 179 606 139 606 q 219 592 200 606 q 238 560 238 579 q 185 437 238 500 q 110 374 132 374 z "},"(":{"ha":521,"x_min":-7,"x_max":882,"o":"m 854 1056 q 882 1038 882 1051 q 847 1024 882 1025 q 397 821 604 1000 q 159 524 246 688 q 72 241 72 360 q 126 59 72 122 q 279 -12 179 -4 q 311 -28 311 -15 q 278 -47 311 -47 q 265 -47 272 -47 q 74 53 154 -36 q -7 286 -7 143 q 50 522 -7 397 q 351 858 132 701 q 854 1056 596 1035 z "},")":{"ha":904,"x_min":13,"x_max":901,"o":"m 42 -49 q 13 -31 13 -44 q 47 -17 13 -18 q 497 186 290 7 q 738 483 651 319 q 824 765 824 646 q 615 1019 824 1003 q 585 1035 585 1021 q 617 1054 585 1054 q 629 1054 622 1054 q 821 953 740 1043 q 901 722 901 864 q 844 485 901 611 q 543 149 763 306 q 42 -49 299 -28 z "},"*":{"ha":489,"x_min":54,"x_max":451,"o":"m 418 506 q 451 496 451 506 q 438 483 451 492 q 398 472 424 474 q 361 469 372 471 q 300 468 325 468 l 364 382 q 390 340 390 347 q 267 440 390 306 l 232 324 q 214 303 224 303 q 201 338 201 303 l 221 443 l 149 389 q 103 367 117 367 q 90 376 90 367 q 107 403 90 386 l 199 469 l 111 469 q 56 488 56 469 q 86 504 56 500 l 210 510 q 158 585 179 556 q 133 627 133 614 q 143 640 133 640 q 171 624 153 640 l 242 535 l 267 638 q 283 683 271 661 q 288 685 286 685 q 297 650 297 685 q 281 529 297 615 l 361 585 q 399 608 394 608 q 404 608 404 608 q 399 582 415 604 q 308 506 383 560 l 418 506 z "},"+":{"ha":564,"x_min":26,"x_max":551,"o":"m 326 607 q 342 569 342 607 q 321 361 342 531 l 344 361 q 440 361 379 361 q 550 364 500 361 q 551 360 551 361 q 464 324 551 340 q 310 300 413 317 q 264 163 292 232 q 219 93 236 93 q 198 108 206 93 q 194 136 190 124 l 238 294 q 26 326 26 294 q 38 350 26 340 q 67 360 50 360 q 128 361 83 360 l 257 361 q 325 607 306 506 q 326 607 326 607 z "},",":{"ha":269,"x_min":113,"x_max":233,"o":"m 233 40 q 189 -65 233 -18 q 128 -111 144 -111 q 113 -108 113 -111 q 142 -72 113 -106 q 172 -17 172 -37 q 153 21 172 4 q 135 46 135 38 q 175 88 135 88 q 215 74 196 88 q 233 40 233 60 z "},"-":{"ha":413,"x_min":26,"x_max":397,"o":"m 146 361 l 281 360 q 396 364 361 360 q 397 360 397 363 q 288 319 397 339 q 176 302 228 311 q 109 293 124 293 q 60 299 94 293 q 26 326 26 306 q 38 350 26 340 q 58 360 50 360 q 75 361 67 360 l 111 361 q 146 361 126 361 z "},".":{"ha":314,"x_min":122,"x_max":233,"o":"m 175 88 q 215 74 196 88 q 233 42 233 60 q 216 12 233 25 q 178 -1 199 -1 q 140 13 157 -1 q 122 47 122 28 q 175 88 122 88 z "},"/":{"ha":839,"x_min":38,"x_max":814,"o":"m 779 969 q 803 960 794 969 q 813 942 813 951 q 800 917 813 932 q 370 376 613 701 q 83 -67 128 50 q 75 -115 75 -92 q 86 -142 75 -137 q 90 -158 97 -147 q 61 -172 81 -172 q 38 -126 38 -172 q 68 3 38 -81 q 431 550 111 121 q 779 969 746 969 z "},":":{"ha":314,"x_min":122,"x_max":289,"o":"m 231 357 q 270 343 251 357 q 289 312 289 329 q 272 281 289 294 q 233 268 254 268 q 195 283 213 268 q 178 317 178 297 q 231 357 178 357 m 175 88 q 215 74 196 88 q 233 42 233 60 q 216 12 233 25 q 178 -1 199 -1 q 140 13 157 -1 q 122 47 122 28 q 175 88 122 88 z "},";":{"ha":314,"x_min":113,"x_max":289,"o":"m 231 357 q 270 343 251 357 q 289 312 289 329 q 272 281 289 294 q 233 268 254 268 q 195 283 213 268 q 178 317 178 297 q 231 357 178 357 m 233 40 q 189 -65 233 -18 q 128 -111 144 -111 q 113 -108 113 -111 q 142 -72 113 -106 q 172 -17 172 -37 q 153 21 172 4 q 135 46 135 38 q 175 88 135 88 q 215 74 196 88 q 233 40 233 60 z "},"<":{"ha":442,"x_min":118,"x_max":318,"o":"m 118 356 q 190 474 118 375 l 282 599 q 306 614 293 614 q 318 606 318 614 q 181 393 318 585 q 315 205 315 221 q 301 189 315 189 l 290 194 q 122 347 243 261 q 118 356 118 350 z "},"=":{"ha":564,"x_min":26,"x_max":597,"o":"m 271 529 l 453 528 q 596 531 540 528 q 597 526 597 529 q 488 488 597 507 l 333 463 q 292 460 324 460 q 166 466 260 460 q 72 493 72 472 q 84 517 72 508 q 106 526 96 526 l 125 526 q 271 529 200 529 m 292 361 l 436 360 q 550 364 515 360 q 551 358 551 361 q 542 347 551 354 q 451 322 518 333 q 328 302 383 311 q 241 293 274 293 q 149 297 208 293 q 26 326 26 306 q 38 350 26 340 q 60 360 50 360 l 81 360 l 115 361 l 226 361 q 292 361 261 361 z "},">":{"ha":442,"x_min":118,"x_max":318,"o":"m 318 438 q 153 194 318 410 q 130 179 142 179 q 118 188 118 179 q 256 400 118 208 q 119 589 119 574 q 135 604 119 604 l 146 599 q 314 446 196 532 q 318 438 318 444 z "},"?":{"ha":557,"x_min":113,"x_max":606,"o":"m 231 179 q 209 157 218 157 q 200 169 200 157 q 203 189 200 181 q 325 318 239 263 q 478 422 450 399 q 538 521 538 476 q 487 593 538 565 q 359 621 436 621 q 219 585 282 621 q 147 479 156 549 q 162 445 144 461 q 212 429 179 429 q 285 471 244 429 q 293 475 289 475 q 297 466 297 475 q 290 450 297 457 q 192 403 247 403 q 135 424 157 403 q 114 475 114 446 q 114 482 114 478 q 205 626 122 575 q 375 678 288 678 q 606 546 606 678 q 531 403 606 461 q 364 303 514 390 q 231 179 267 247 m 174 81 q 213 67 194 81 q 232 37 232 54 q 214 6 232 19 q 175 -7 196 -7 q 138 8 154 -7 q 121 42 121 22 q 174 81 121 81 z "},"@":{"ha":1169,"x_min":19,"x_max":1140,"o":"m 1114 610 q 936 279 1114 436 q 324 36 664 36 q 265 38 286 36 q 88 111 156 44 q 19 284 19 178 q 76 515 19 390 q 361 824 149 672 q 858 994 600 994 q 1068 942 996 994 q 1140 808 1140 890 q 1122 722 1140 760 q 1104 683 1103 685 q 1114 610 1114 650 m 714 671 l 733 675 q 762 663 749 675 q 776 640 775 650 q 749 590 776 631 q 660 463 721 549 q 606 334 606 374 q 639 294 606 294 q 808 405 688 294 q 1028 635 929 515 l 1028 638 q 958 767 1018 713 q 726 851 863 851 q 621 858 635 854 q 622 864 619 863 q 747 886 688 886 q 881 868 807 886 q 1082 733 1022 835 q 1088 733 1086 728 q 1099 803 1099 767 q 1068 883 1099 840 q 851 967 1010 967 q 511 861 692 967 q 213 592 331 756 q 94 253 94 429 q 279 67 94 76 q 321 65 300 65 q 839 283 594 65 q 1029 572 1008 436 q 1024 575 1026 575 l 854 388 q 644 264 726 264 q 608 269 624 264 q 547 361 547 293 q 550 397 547 372 q 544 400 547 400 q 346 254 392 254 q 281 276 311 254 q 240 350 240 301 q 383 590 240 451 q 642 728 525 728 q 706 688 694 728 l 708 679 l 708 676 q 714 671 711 671 m 299 332 q 333 285 299 285 q 526 426 403 285 q 628 559 557 460 q 700 658 700 658 q 699 660 700 658 q 665 676 689 676 q 438 547 578 676 q 299 332 299 417 z "},"A":{"ha":1417,"x_min":-1,"x_max":1581,"o":"m 1314 397 l 1449 400 q 1499 393 1499 400 q 1296 361 1499 375 q 1167 17 1167 108 q 1207 -47 1167 -47 q 1245 -28 1222 -47 q 1273 -10 1268 -10 q 1278 -17 1278 -10 q 1235 -58 1271 -42 q 1176 -75 1200 -75 q 1138 -72 1151 -75 q 1104 8 1104 -60 q 1211 365 1104 149 l 1044 361 q 671 42 858 179 q 232 -162 390 -162 q 213 -161 222 -162 q -1 58 -1 -143 q 74 311 -1 178 q 347 615 174 489 q 658 740 521 740 q 796 639 796 740 q 754 488 796 571 q 669 382 713 404 q 660 381 665 381 q 656 383 656 381 l 701 458 q 749 588 749 532 q 724 677 749 643 q 647 711 700 711 q 388 590 539 711 q 159 293 238 469 q 81 18 81 117 q 232 -131 81 -131 q 624 56 376 -131 q 981 365 733 138 q 890 356 932 363 q 807 361 801 339 q 860 413 813 413 q 1014 401 951 401 q 1371 761 1133 511 q 1565 929 1531 929 q 1581 906 1581 929 q 1568 832 1581 882 q 1540 771 1556 782 q 1481 710 1508 749 q 1401 567 1453 672 q 1314 397 1350 463 m 1425 736 l 1069 403 l 1151 403 q 1224 401 1181 401 q 1425 736 1264 481 z "},"B":{"ha":1138,"x_min":25,"x_max":1242,"o":"m 1069 263 q 1047 168 1069 213 q 867 1 1000 68 q 589 -65 733 -65 q 290 85 369 -65 q 86 -35 147 -35 q 67 -31 75 -35 q 25 65 25 -8 q 86 246 25 139 q 193 372 147 353 q 225 379 214 379 q 286 313 265 379 l 328 179 q 438 317 368 222 l 561 483 q 860 807 789 779 q 911 817 885 817 q 955 806 938 817 q 972 778 972 794 q 932 749 972 753 q 773 610 890 725 q 633 465 656 496 q 346 132 478 249 q 600 -36 431 -36 q 804 28 703 -36 q 956 188 906 93 q 978 278 978 228 q 938 373 978 328 q 839 439 899 418 q 750 451 811 443 q 689 476 689 458 q 694 489 689 483 q 738 508 711 508 q 767 503 753 508 q 790 494 782 497 q 810 488 799 492 q 863 485 840 485 q 1029 514 954 485 q 1151 626 1125 551 q 1168 714 1168 675 q 1075 857 1168 810 q 854 899 994 899 q 458 815 633 899 q 290 692 369 774 q 210 551 210 610 q 231 485 210 511 q 260 457 239 474 q 251 453 267 453 q 165 568 165 472 q 263 749 165 664 q 425 850 335 811 q 851 931 613 931 q 1124 881 1022 931 q 1242 713 1242 825 q 1224 622 1242 668 q 1072 496 1194 539 q 875 463 981 464 q 1013 402 957 458 q 1069 263 1069 346 m 182 314 q 175 311 181 314 q 72 72 72 163 q 90 4 72 35 q 104 -3 94 -3 q 275 124 149 -3 l 271 129 q 182 314 215 314 z "},"C":{"ha":1008,"x_min":42,"x_max":1107,"o":"m 751 386 q 611 424 668 386 q 554 521 554 463 q 650 668 554 594 q 675 681 667 681 q 683 675 683 681 q 661 653 683 661 q 583 526 583 590 q 625 449 583 481 q 729 418 667 418 q 986 549 865 418 q 1049 706 1049 617 q 982 838 1049 794 q 832 876 926 876 q 558 808 696 876 q 252 553 389 726 q 115 221 115 381 q 201 26 115 94 q 415 -43 288 -43 q 701 28 561 -43 q 886 169 808 83 q 921 194 908 194 q 929 180 929 194 q 914 150 929 165 q 701 0 840 72 q 358 -90 531 -90 q 100 24 185 -90 q 43 203 43 99 q 54 301 43 249 q 251 647 92 479 q 525 835 367 768 q 825 903 683 903 q 956 885 900 903 q 1107 694 1107 838 q 1056 543 1107 607 q 751 386 928 386 z "},"D":{"ha":1279,"x_min":21,"x_max":1286,"o":"m 260 35 q 81 -60 138 -60 q 35 -30 50 -60 q 21 35 21 0 q 77 235 21 101 q 185 368 133 368 q 230 264 211 368 q 268 113 249 160 q 542 446 363 213 q 840 769 767 742 q 892 779 865 779 q 935 768 918 779 q 953 740 953 757 q 913 713 953 717 q 763 585 864 686 q 600 400 661 486 q 294 63 451 193 q 539 -53 372 -53 q 593 -50 557 -53 q 1140 285 979 -14 q 1206 521 1206 404 q 1121 731 1206 638 q 973 825 1053 807 q 810 843 893 843 q 415 744 596 843 q 225 511 225 640 q 244 454 225 476 q 269 429 263 432 l 261 429 q 197 465 225 436 q 167 542 167 501 q 341 781 167 681 q 750 881 515 881 q 972 856 858 881 q 1179 736 1086 831 q 1286 485 1286 625 q 1225 269 1286 381 q 910 -11 1119 78 q 547 -82 742 -82 q 260 35 353 -82 m 71 40 q 88 -35 71 -3 q 232 75 147 -8 q 181 180 192 142 q 167 281 171 218 q 71 40 71 143 m 269 429 q 272 431 271 429 q 272 428 272 428 q 269 429 271 428 z "},"E":{"ha":960,"x_min":4,"x_max":1079,"o":"m 700 565 q 836 514 836 565 q 828 489 836 503 q 707 438 794 438 q 590 458 650 438 q 500 500 531 478 q 270 385 371 463 q 119 208 169 307 q 93 106 93 156 q 158 -21 93 28 q 347 -69 222 -69 q 419 -65 382 -69 q 771 76 640 -42 q 881 281 881 174 q 799 365 881 365 q 572 260 700 365 q 518 193 540 233 q 496 114 496 153 q 535 65 496 75 q 549 51 549 60 q 521 40 549 38 q 454 128 454 42 q 542 289 454 214 q 794 392 661 392 q 921 329 894 392 q 932 271 932 300 q 789 28 932 142 q 356 -111 618 -111 q 99 -51 193 -111 q 4 107 4 10 q 40 221 4 164 q 476 522 168 424 q 431 635 431 575 q 460 735 431 694 q 631 863 517 813 q 903 922 767 922 q 1030 897 982 922 q 1078 817 1078 871 q 1038 727 1078 764 q 956 690 999 690 q 913 711 913 690 q 931 724 913 724 l 958 719 q 1009 749 986 719 q 1032 811 1032 779 q 978 881 1032 858 q 913 894 943 894 q 869 893 882 894 q 636 810 750 886 q 503 613 503 722 q 531 538 503 572 q 700 565 619 565 m 554 515 q 692 468 614 468 q 769 511 769 468 q 700 531 769 531 q 554 515 631 531 z "},"F":{"ha":878,"x_min":-17,"x_max":1011,"o":"m 733 349 q 876 344 868 344 q 885 344 883 344 q 918 335 918 347 q 864 315 918 315 l 746 318 q 703 311 710 315 q 546 102 644 239 q 447 -61 447 -35 q 472 -56 447 -72 q 488 -60 488 -56 q 457 -81 488 -67 l 418 -101 q 358 -124 392 -124 q 326 -107 324 -124 q 425 62 328 -74 q 626 319 522 197 q 474 301 526 301 q 468 310 468 303 q 485 332 468 318 q 520 346 501 346 q 581 347 539 346 l 651 347 q 861 642 699 411 q 928 800 928 738 q 783 897 928 897 q 519 835 671 897 q 239 664 367 772 q 96 501 149 589 q 43 346 43 414 q 174 236 43 236 q 197 238 185 236 q 358 334 282 244 q 433 485 433 424 q 432 497 433 490 q 468 454 468 490 q 390 314 468 394 q 146 204 285 204 q 26 244 69 204 q -17 354 -17 285 q 183 685 -17 518 q 490 863 328 803 q 773 924 653 924 q 952 889 893 924 q 1011 792 1011 854 q 957 653 1011 731 q 733 349 925 601 z "},"G":{"ha":1150,"x_min":-21,"x_max":1317,"o":"m 761 676 l 758 632 q 856 542 758 542 q 1018 597 936 542 q 1100 710 1100 653 q 1033 806 1100 767 q 894 832 989 832 q 581 765 754 832 q 257 551 408 699 q 58 194 58 357 q 131 40 58 99 q 322 -18 204 -18 q 703 106 486 -18 q 974 321 883 207 l 1014 381 q 807 366 989 381 q 599 345 625 351 q 556 339 572 339 q 510 361 510 339 q 615 419 510 396 q 972 442 721 442 q 1304 422 1224 442 q 1317 415 1317 419 q 1221 393 1317 400 q 1099 383 1101 383 q 732 -192 957 197 q 708 -214 719 -214 q 696 -196 696 -214 q 774 -8 696 -147 l 871 174 q 644 31 782 97 q 306 -54 465 -54 q 63 15 147 -54 q -21 199 -21 83 q 236 631 -21 411 q 549 815 365 742 q 870 889 732 889 q 1082 835 1008 889 q 1139 735 1139 790 q 1041 583 1139 656 q 847 510 943 510 q 718 658 718 510 q 742 715 718 715 q 761 676 761 715 z "},"H":{"ha":1321,"x_min":26,"x_max":1754,"o":"m 393 -64 q 553 238 393 -25 q 401 228 439 238 q 308 165 339 213 q 290 149 297 150 q 282 155 282 147 q 288 168 282 163 q 392 265 340 239 q 554 292 443 292 q 588 292 571 292 q 825 675 672 421 q 882 849 882 782 q 751 957 882 956 q 736 957 743 957 q 413 868 558 957 q 182 647 267 779 q 97 410 97 515 q 218 281 97 281 q 382 365 314 281 q 450 526 450 450 q 428 597 450 569 q 425 604 425 600 q 436 614 425 614 q 444 610 442 614 q 472 524 472 574 q 403 351 472 439 q 257 253 333 263 q 211 249 233 249 q 74 306 122 249 q 26 444 26 357 q 35 518 26 481 q 276 846 76 706 q 724 986 475 986 q 888 945 819 986 q 957 831 957 904 q 906 675 957 757 l 654 289 q 813 276 699 288 q 985 264 928 264 q 1063 265 1043 264 l 1115 353 q 1427 776 1250 579 q 1736 1019 1604 972 q 1744 1021 1740 1021 q 1754 1010 1754 1021 q 1750 1003 1754 1006 q 1495 760 1661 953 q 1208 365 1329 568 l 1154 274 q 1246 306 1218 282 q 1256 301 1251 310 q 1254 288 1260 292 q 1136 242 1213 256 q 1039 -12 1039 61 q 1079 -60 1039 -60 q 1144 -41 1107 -60 q 1193 -9 1181 -22 q 1208 4 1206 4 q 1210 -5 1211 4 q 1204 -19 1208 -14 q 1133 -67 1181 -42 q 1057 -92 1086 -92 q 1014 -82 1028 -92 q 969 19 969 -53 q 1043 231 969 92 q 947 226 992 226 q 621 236 932 226 q 463 -47 522 81 q 419 -85 444 -85 q 393 -64 393 -85 z "},"I":{"ha":800,"x_min":28,"x_max":1217,"o":"m 992 550 l 982 588 q 993 599 982 599 q 1004 594 997 599 q 1036 532 1036 571 q 986 456 1036 493 q 860 419 936 419 q 813 424 836 419 q 579 99 717 247 q 246 -96 396 -96 q 29 160 29 -96 q 142 500 29 371 q 358 611 236 611 q 424 600 390 611 q 506 465 506 568 q 421 249 506 361 q 247 136 336 136 q 147 244 147 136 q 160 308 147 275 q 190 342 174 342 q 203 329 203 342 q 190 294 203 322 q 178 245 178 267 q 201 205 178 224 q 249 186 224 186 q 401 287 331 186 q 471 483 471 388 q 418 581 471 557 q 381 588 400 588 q 183 451 282 588 q 88 150 88 314 q 126 3 88 60 q 238 -56 167 -56 q 715 443 421 -56 q 563 624 563 489 q 744 910 563 803 q 968 976 860 976 q 1121 949 1053 976 q 1217 835 1217 911 q 1209 803 1217 818 q 1193 788 1201 788 q 1150 806 1175 806 q 826 454 1032 806 q 850 453 838 453 q 944 481 897 453 q 992 550 992 508 m 1001 938 q 966 938 1001 938 q 838 897 931 938 q 691 776 746 856 q 636 597 636 697 q 739 478 636 497 q 936 727 815 603 q 1138 851 1057 851 q 1174 842 1158 851 q 1119 910 1172 881 q 1001 938 1072 938 z "},"J":{"ha":1142,"x_min":54,"x_max":1550,"o":"m 950 663 q 922 651 950 651 q 865 680 893 651 q 836 749 836 708 q 861 824 836 790 q 1038 926 914 896 q 1215 949 1126 949 l 1226 949 q 1294 944 1239 949 q 1309 978 1292 963 q 1349 994 1326 994 q 1389 935 1390 994 q 1547 854 1539 908 q 1549 833 1549 842 q 1533 806 1549 806 q 1522 839 1517 806 q 1385 911 1488 890 q 1124 422 1360 799 q 758 8 967 175 q 308 -181 519 -181 q 117 -115 179 -181 q 54 30 54 -50 q 85 167 54 110 q 297 388 158 308 q 488 447 400 447 q 635 401 582 447 q 689 286 689 356 q 633 150 689 211 q 578 111 599 111 q 572 116 572 111 q 576 129 572 121 q 626 266 626 203 q 592 369 626 329 q 483 413 551 413 q 329 357 414 413 q 158 153 225 289 q 124 12 124 85 q 178 -106 124 -61 q 324 -151 232 -151 q 1061 468 676 -151 q 1297 921 1292 838 q 1210 925 1214 925 q 1042 889 1144 925 q 910 800 940 853 q 897 754 897 779 q 924 699 897 729 q 950 663 950 668 z "},"K":{"ha":1300,"x_min":31,"x_max":2203,"o":"m 1156 968 q 1185 947 1185 968 q 951 463 1185 863 q 982 375 961 425 l 1396 690 q 1717 922 1633 871 q 2082 1033 1903 1033 q 2176 1017 2133 1033 q 2203 981 2203 1007 q 2189 954 2203 954 q 2172 965 2181 954 q 2119 976 2163 976 q 1976 954 2075 976 q 1624 799 1821 919 q 1293 564 1500 722 q 994 346 1086 406 q 1176 69 1065 197 q 1483 -129 1347 -129 q 1550 -78 1550 -129 q 1548 -58 1550 -68 q 1553 -35 1546 -49 q 1569 -21 1560 -21 q 1593 -64 1588 -21 q 1594 -78 1594 -71 q 1549 -151 1594 -122 q 1442 -179 1504 -179 q 1339 -160 1381 -179 q 1117 31 1229 -106 q 946 317 1006 167 q 819 268 869 272 q 590 33 726 147 q 431 -67 517 -29 q 265 -106 344 -106 q 92 -49 153 -106 q 31 122 31 7 q 53 228 31 179 q 267 444 124 385 q 424 479 346 479 q 529 428 503 479 q 539 390 539 410 q 533 364 539 369 q 518 374 528 358 q 447 442 485 435 q 411 444 422 444 q 208 354 303 444 q 86 99 86 236 q 256 -71 86 -51 q 267 -71 261 -71 q 424 -17 328 -71 q 756 289 579 72 q 724 375 724 318 q 766 483 724 432 q 882 533 808 533 q 921 529 903 533 q 1056 781 990 646 q 1121 938 1121 917 q 1113 940 1121 940 q 1016 897 1104 940 q 890 828 928 853 q 799 749 853 803 q 744 663 744 696 q 766 632 744 647 q 844 617 788 617 q 851 609 851 614 q 813 598 851 604 q 753 592 775 592 q 703 633 703 592 q 763 750 703 682 q 893 857 822 818 q 1156 968 1100 968 m 935 346 q 917 401 924 374 q 861 322 889 361 q 886 324 875 322 q 935 346 897 326 m 882 465 q 845 472 865 472 q 805 447 825 472 q 785 394 785 422 q 800 346 785 365 q 882 465 868 443 z "},"L":{"ha":914,"x_min":4,"x_max":1193,"o":"m 1193 822 q 1086 564 1193 713 q 865 376 1003 447 q 610 306 726 306 q 538 315 567 306 q 350 81 479 240 q 526 -50 399 11 q 744 -111 653 -111 q 881 -86 836 -111 q 942 6 942 -54 q 939 35 942 21 q 948 49 936 49 q 969 28 960 49 q 978 -7 978 8 q 926 -99 978 -56 q 749 -151 861 -151 q 515 -99 636 -151 q 317 44 394 -46 q 106 -67 206 -67 q 53 -56 75 -67 q 4 50 4 -28 q 69 242 4 128 q 171 363 133 356 q 228 306 196 363 l 315 136 q 469 349 389 233 q 356 497 356 400 q 421 628 356 578 q 498 654 457 654 q 560 611 539 654 q 560 601 564 603 q 556 600 557 599 q 496 628 528 628 q 493 628 494 628 q 423 585 453 628 q 393 506 393 542 q 393 497 393 501 q 493 374 393 425 q 547 452 510 397 q 604 538 583 507 q 1064 943 881 943 q 1193 822 1193 943 m 1069 919 q 897 803 1000 919 q 731 583 826 721 q 560 346 636 444 q 600 342 578 342 q 822 408 697 342 q 1019 576 947 475 q 1146 844 1146 753 q 1097 915 1146 900 q 1069 919 1085 919 m 281 90 q 211 208 247 136 q 163 293 175 279 q 147 307 151 307 q 142 307 143 307 q 88 218 117 303 q 58 52 58 133 q 108 -29 58 -29 q 195 8 144 -29 q 281 90 246 46 z "},"M":{"ha":1578,"x_min":22,"x_max":1797,"o":"m 588 57 q 554 -10 554 6 q 567 -32 554 -25 q 542 -53 567 -33 q 492 -64 519 -64 q 451 -58 464 -64 q 443 -37 439 -51 q 589 213 463 25 q 758 479 715 401 q 851 747 851 647 q 838 818 851 789 q 706 875 810 875 q 369 735 543 875 q 157 497 231 622 q 83 272 83 371 q 208 128 83 131 q 219 128 214 128 q 467 243 379 128 q 500 321 500 289 q 486 361 500 353 q 485 367 485 363 q 493 371 485 371 q 529 324 529 371 q 501 244 529 294 q 400 150 472 194 q 232 106 328 106 q 79 165 136 106 q 22 322 22 225 q 308 771 22 542 q 502 867 382 829 q 732 904 622 904 q 881 866 842 904 q 921 764 921 828 q 842 501 921 667 q 729 314 817 450 l 836 450 q 1106 739 914 551 q 1198 806 1147 779 q 1285 833 1249 833 q 1335 781 1335 833 q 1291 642 1335 735 q 1203 467 1247 550 q 1149 359 1158 385 q 1135 318 1139 333 q 1129 301 1131 303 q 1221 408 1133 308 q 1479 656 1308 507 l 1701 839 q 1749 861 1728 861 q 1783 826 1769 861 q 1796 770 1796 792 q 1729 681 1796 749 q 1435 292 1556 503 q 1314 -10 1314 81 q 1322 -42 1314 -33 q 1349 -48 1331 -51 q 1424 -19 1367 -44 q 1500 10 1482 6 q 1507 3 1507 7 q 1434 -56 1507 -18 q 1324 -93 1361 -93 q 1279 -81 1288 -93 q 1254 7 1254 -44 q 1382 350 1254 126 q 1635 728 1464 490 q 1274 396 1501 619 q 975 46 1046 172 q 888 -19 939 -19 q 864 -3 864 -19 q 892 47 864 3 q 1018 256 921 92 q 1257 756 1257 671 q 1242 778 1257 778 q 1176 740 1219 778 q 849 403 1022 611 q 588 57 675 194 z "},"N":{"ha":1285,"x_min":3,"x_max":1529,"o":"m 558 17 q 525 -51 525 -35 q 538 -72 525 -67 q 515 -90 538 -75 q 451 -104 492 -104 q 411 -83 411 -104 q 548 156 411 -47 q 728 438 685 360 q 822 706 822 607 q 807 778 822 744 q 693 828 783 828 q 342 676 528 828 q 124 435 200 560 q 54 224 54 317 q 178 88 54 90 q 189 88 183 88 q 438 203 353 88 q 471 281 471 249 q 456 321 471 313 q 454 326 454 322 q 463 331 454 331 q 499 283 499 331 q 471 204 499 254 q 370 110 443 154 q 204 65 297 65 q 57 119 111 65 q 3 265 3 174 q 300 721 3 482 q 495 821 375 781 q 713 861 615 861 q 851 824 811 861 q 892 722 892 788 q 700 274 892 564 q 840 411 743 328 q 1435 793 1186 701 q 1463 799 1447 799 q 1529 739 1515 799 q 1463 640 1536 715 q 1168 251 1289 463 q 1047 -51 1047 40 q 1056 -83 1047 -74 q 1082 -88 1064 -92 q 1158 -60 1100 -85 q 1233 -31 1215 -35 q 1240 -37 1240 -33 q 1167 -96 1240 -58 q 1058 -133 1094 -133 q 1013 -121 1022 -133 q 988 -33 988 -86 q 1115 310 988 86 q 1368 688 1197 450 q 890 396 1183 671 q 558 17 657 175 z "},"O":{"ha":1089,"x_min":33,"x_max":1156,"o":"m 1128 494 q 950 163 1128 321 q 338 -82 676 -82 q 279 -81 300 -82 q 101 -8 168 -75 q 33 167 33 60 q 90 400 33 274 q 372 711 163 560 q 872 883 614 883 q 1083 829 1011 883 q 1156 694 1156 775 q 1117 571 1156 644 q 1128 494 1128 533 m 1099 613 q 1113 687 1113 646 q 1082 771 1113 728 q 871 854 1022 854 q 475 724 661 854 q 185 397 289 594 q 108 140 108 254 q 293 -53 108 -43 q 332 -54 313 -54 q 853 167 606 -54 q 1044 468 1031 325 q 794 279 972 389 l 783 276 q 782 278 782 276 q 819 315 782 283 l 897 379 q 1043 522 997 467 q 973 652 1033 600 q 835 728 913 704 q 715 740 796 738 q 633 746 633 743 q 636 751 633 749 q 759 772 700 772 q 894 754 818 772 q 1099 613 1040 719 z "},"P":{"ha":1468,"x_min":60,"x_max":1661,"o":"m 1661 621 q 1590 465 1661 550 q 1376 328 1519 381 q 1097 275 1232 275 q 882 310 961 275 q 654 0 707 53 q 296 -150 504 -150 q 119 -95 178 -150 q 60 47 60 -40 q 157 275 60 168 q 426 393 264 393 q 539 363 493 393 q 585 269 585 332 q 538 169 585 228 q 479 111 490 111 q 476 117 476 111 q 481 128 476 122 q 525 248 525 193 q 491 333 525 303 q 407 363 457 363 q 201 256 290 363 q 111 42 111 150 q 155 -71 111 -28 q 290 -114 199 -114 q 583 1 461 -114 q 726 196 654 68 l 847 414 q 1054 839 936 557 q 1029 839 1042 839 q 653 798 842 839 q 367 681 464 757 q 325 618 325 649 q 358 569 325 588 q 435 550 390 550 q 545 567 479 550 q 644 614 611 585 q 664 625 658 625 q 668 614 675 625 q 517 526 618 556 q 393 508 454 508 q 293 535 332 508 q 254 609 254 563 q 304 703 254 656 q 642 839 399 794 q 1038 869 814 869 q 1075 869 1056 869 q 1131 896 1106 896 q 1156 876 1156 896 q 1154 867 1156 872 q 1503 794 1369 851 q 1661 621 1661 728 m 1596 635 q 1454 778 1596 722 q 1144 836 1331 826 l 1100 697 q 897 333 1047 567 q 944 318 911 326 q 1031 308 1000 308 q 1274 352 1136 308 q 1503 480 1411 396 q 1596 635 1596 564 z "},"Q":{"ha":1107,"x_min":33,"x_max":1156,"o":"m 135 -114 q 119 -61 119 -114 q 122 -26 119 -42 q 33 174 33 42 q 90 400 33 274 q 372 711 163 560 q 872 883 614 883 q 1083 829 1011 883 q 1156 694 1156 775 q 1117 571 1156 644 q 1128 494 1128 533 q 950 163 1128 321 q 615 -37 792 21 q 996 -240 897 -240 q 1036 -228 1018 -240 q 1054 -201 1054 -217 q 1044 -171 1054 -185 q 1040 -156 1040 -161 q 1065 -162 1040 -136 q 1089 -218 1089 -189 q 1061 -267 1089 -247 q 989 -286 1033 -286 q 529 -62 844 -286 q 336 -82 443 -82 q 164 -51 229 -82 q 135 -114 144 -114 m 1099 613 q 1113 687 1113 646 q 1082 771 1113 728 q 871 854 1022 854 q 475 724 661 854 q 185 397 289 594 q 108 140 108 254 q 139 24 108 68 q 176 92 154 61 q 267 142 211 142 q 379 110 322 142 q 571 -7 454 69 q 853 167 719 49 q 1044 468 1029 322 q 794 279 972 389 l 783 276 q 782 278 782 276 q 819 315 782 283 l 897 379 q 1043 522 997 467 q 973 652 1033 600 q 835 728 913 704 q 715 740 796 738 q 633 746 633 743 q 636 751 633 749 q 759 772 700 772 q 894 754 818 772 q 1099 613 1040 719 m 486 -33 q 268 64 326 64 q 189 19 210 64 l 175 -14 q 293 -53 222 -51 q 321 -53 307 -53 q 486 -33 401 -53 z "},"R":{"ha":1044,"x_min":-58,"x_max":1267,"o":"m 794 375 q 665 386 725 375 q 747 110 685 325 q 808 -17 767 47 q 914 -99 865 -99 q 1011 19 972 -99 q 1026 47 1018 47 q 1037 31 1033 47 q 1040 10 1040 15 q 1001 -79 1040 -25 q 889 -156 950 -156 q 776 -94 828 -156 q 676 128 725 -33 q 626 335 626 290 q 628 346 626 342 q 389 54 461 125 q 60 -103 228 -103 q -58 -14 -58 -103 q -31 84 -58 31 q 38 178 -3 138 q 108 218 78 218 q 114 215 114 218 q 79 181 114 208 q 13 102 44 153 q -19 10 -19 51 q 79 -64 -19 -64 q 588 369 264 -64 q 618 403 606 393 l 596 411 q 567 404 578 404 q 538 428 538 404 q 581 469 538 460 q 590 471 586 471 q 649 446 615 471 q 774 585 771 582 q 910 689 875 689 q 946 658 946 689 q 940 632 946 644 q 925 619 933 619 q 917 628 917 617 q 925 644 917 633 q 913 664 926 664 q 697 428 868 664 q 767 425 739 425 q 1169 592 1089 425 q 1186 658 1186 628 q 1131 764 1186 719 q 842 836 1042 836 q 433 735 642 836 q 181 444 181 611 q 249 390 181 390 q 393 440 317 390 q 496 539 469 490 q 515 557 506 557 q 519 546 524 557 q 402 413 493 468 q 213 358 311 358 q 114 421 114 358 q 114 431 114 425 q 337 740 135 613 q 824 867 539 867 q 1200 775 1089 867 q 1267 644 1267 719 q 1251 575 1267 613 q 1075 424 1208 474 q 794 375 942 375 z "},"S":{"ha":1039,"x_min":-24,"x_max":1183,"o":"m 1099 594 q 1010 574 1047 574 q 974 589 974 574 q 1015 600 974 599 q 1074 610 1056 601 q 1126 692 1126 638 q 1111 750 1126 719 q 896 829 1067 829 q 699 799 797 829 q 533 708 600 769 q 467 593 467 646 q 626 475 467 513 l 790 444 q 938 394 889 426 q 1001 283 1001 356 q 992 221 1001 254 q 763 -8 947 71 q 399 -76 608 -76 q 294 -71 339 -76 q 411 -114 339 -96 q 417 -119 417 -115 q 388 -132 417 -132 q 246 -64 331 -132 q 74 0 131 -46 q 7 86 38 29 q -24 189 -24 143 q -6 265 -24 235 q 100 339 36 339 q 157 257 149 339 q 183 76 176 99 q 254 -39 204 8 q 381 -51 313 -51 q 675 8 531 -51 q 883 178 819 68 q 910 254 910 221 q 794 356 910 319 l 550 411 q 430 471 475 429 q 385 567 385 513 q 489 733 385 650 q 683 833 568 797 q 908 868 797 868 q 1090 836 1018 868 q 1183 710 1183 793 q 1099 594 1183 628 m 204 -25 q 101 218 124 64 q 78 306 89 306 q 57 299 67 306 q 38 272 47 293 q 28 218 28 251 q 103 35 28 111 q 204 -25 140 -4 z "},"T":{"ha":918,"x_min":25,"x_max":1496,"o":"m 39 93 q 128 390 39 243 q 25 583 25 456 q 161 857 25 738 q 556 992 314 992 q 794 960 667 992 q 1043 852 824 953 q 1358 751 1263 751 q 1454 788 1422 751 q 1471 826 1471 806 q 1453 864 1471 847 q 1443 882 1443 878 q 1451 886 1443 886 q 1477 862 1458 886 q 1496 805 1496 838 q 1452 742 1496 772 q 1342 713 1408 713 q 1018 813 1238 713 q 742 925 799 914 q 614 936 686 936 q 161 750 326 936 q 115 666 142 729 q 89 544 89 603 q 146 419 89 464 q 317 588 218 525 q 517 650 415 650 q 642 553 642 650 q 505 299 642 436 q 251 163 368 163 q 176 226 176 163 q 188 265 176 249 q 217 278 200 282 l 214 246 q 278 225 214 225 q 477 322 372 225 q 604 513 582 419 q 610 550 610 533 q 530 613 610 613 q 365 551 450 613 q 204 390 279 490 q 247 379 210 388 l 331 376 q 392 363 392 374 q 333 343 392 343 q 325 343 329 343 q 186 364 240 343 q 79 63 79 200 q 217 -115 79 -115 q 540 101 372 -115 l 813 507 q 1078 735 965 729 l 1131 722 q 1156 681 1156 708 q 1142 653 1156 653 l 1097 660 q 851 453 1001 660 l 575 67 q 235 -140 397 -140 q 81 -81 124 -140 q 39 93 39 -21 z "},"U":{"ha":1113,"x_min":19,"x_max":1347,"o":"m 479 -26 q 419 15 419 -26 q 603 347 419 88 q 826 665 788 606 q 911 843 911 796 q 893 872 911 867 q 815 886 860 886 q 425 724 663 886 q 167 470 269 615 q 65 231 65 325 q 121 153 65 163 q 165 149 143 149 q 311 194 236 149 q 406 268 349 217 l 431 276 q 320 175 404 226 q 147 124 236 124 q 99 129 126 124 q 45 169 71 135 q 19 258 19 203 q 431 771 19 476 q 628 874 514 831 q 835 918 742 918 q 926 900 882 918 q 969 840 969 882 q 920 719 969 797 q 766 498 871 640 q 588 232 661 356 q 515 60 515 108 q 535 36 515 36 q 675 114 572 36 q 1250 718 919 300 q 1335 785 1303 785 q 1347 772 1347 785 q 1343 758 1347 767 q 1344 750 1344 754 q 1311 671 1344 721 l 1147 439 q 971 165 1047 294 q 900 14 894 36 l 925 22 q 1046 113 994 61 q 1068 126 1064 126 l 1071 124 q 1033 71 1071 111 q 894 -14 936 -14 q 853 13 853 -14 q 927 176 853 39 q 1165 556 1001 314 q 1078 457 1138 522 q 668 53 736 107 q 479 -26 567 -26 z "},"V":{"ha":958,"x_min":-26,"x_max":1681,"o":"m 403 397 q 422 351 422 397 q 353 222 422 282 q 196 161 285 161 q 86 189 139 161 q -26 401 -26 250 q 32 611 -26 508 q 263 833 113 751 q 557 915 414 915 q 728 869 661 915 q 803 717 803 818 q 678 312 803 588 q 553 0 553 36 q 560 -7 553 -11 q 891 370 596 17 q 1301 807 1186 724 q 1473 922 1404 883 q 1614 960 1542 960 q 1643 958 1633 960 q 1681 919 1681 956 q 1668 901 1681 901 q 1649 908 1667 901 q 1618 914 1631 914 q 1094 563 1424 914 q 794 207 971 431 q 585 -35 617 -17 q 458 -99 472 -99 q 454 -85 454 -99 q 532 149 454 -39 q 625 365 564 221 l 689 553 q 722 690 722 647 q 667 836 722 786 q 507 886 611 886 q 283 813 403 886 q 90 607 154 729 q 26 400 26 485 q 61 267 26 315 q 213 188 118 188 q 340 235 285 188 q 396 357 396 283 q 392 385 396 372 q 403 397 389 397 z "},"W":{"ha":1576,"x_min":21,"x_max":1746,"o":"m 879 38 q 972 -56 879 -56 q 1274 125 1097 -56 q 1517 453 1433 286 q 1601 708 1601 621 q 1599 736 1601 722 q 1536 768 1568 736 l 1536 767 q 1515 801 1515 783 q 1529 829 1515 818 q 1565 840 1543 840 q 1597 823 1588 840 q 1619 792 1606 806 q 1632 772 1633 778 q 1658 760 1640 760 q 1697 776 1675 760 q 1733 793 1719 793 q 1746 785 1746 793 q 1719 756 1746 769 q 1686 743 1706 744 l 1642 743 q 1658 661 1658 686 q 1552 372 1658 550 q 1279 57 1446 194 q 974 -85 1111 -85 q 838 49 838 -85 q 926 350 838 154 l 1026 568 l 890 463 q 760 347 826 410 q 531 86 694 283 l 369 -111 q 300 -156 331 -156 q 276 -125 276 -156 q 301 -46 276 -94 l 569 340 q 813 793 813 697 q 715 846 813 846 q 386 701 597 846 q 186 506 272 624 q 100 312 100 389 q 203 235 100 235 q 400 324 299 235 q 442 354 436 354 q 446 344 447 354 q 333 244 431 292 q 160 196 235 196 q 133 197 140 196 l 132 197 q 21 307 21 221 q 117 514 21 393 q 553 832 286 728 q 779 885 690 885 q 889 813 889 885 q 511 161 889 663 q 383 -7 385 -7 q 528 150 388 -7 q 796 418 669 307 q 964 576 844 461 q 1099 682 1026 635 q 1151 693 1117 693 q 1197 674 1185 693 q 974 319 1069 515 q 879 38 879 122 m 1686 743 l 1688 743 l 1686 743 z "},"X":{"ha":889,"x_min":-232,"x_max":1435,"o":"m 1397 894 q 1061 697 1306 894 q 775 442 903 569 q 746 346 764 413 q 686 51 686 129 q 710 11 686 11 q 910 153 767 11 q 933 161 933 176 q 833 46 933 119 q 657 -47 708 -47 q 611 15 611 -47 q 675 315 611 78 l 690 376 q 153 -18 383 107 q -101 -106 -8 -106 q -124 -104 -112 -106 q -232 29 -232 -89 q -153 278 -232 147 q -106 326 -124 326 q -100 317 -100 326 q -110 294 -100 308 q -186 68 -186 172 q -161 -29 -186 11 q -76 -74 -129 -74 q 292 111 35 -74 q 688 435 479 246 l 710 454 q 742 701 742 593 q 692 843 742 810 q 615 864 661 864 q 526 850 569 864 q 273 673 368 801 q 178 438 178 544 q 258 331 178 331 q 368 371 303 331 q 385 385 385 383 q 375 367 389 381 q 229 311 319 311 q 143 338 175 311 q 111 414 111 365 q 113 432 111 422 q 291 749 129 617 q 617 881 453 881 q 694 871 661 881 q 806 667 806 835 q 790 529 806 610 q 1095 779 935 657 q 1310 917 1256 901 q 1383 932 1364 932 q 1408 929 1401 932 q 1435 906 1435 919 q 1400 894 1435 893 q 1397 894 1399 894 z "},"Y":{"ha":1225,"x_min":19,"x_max":1319,"o":"m 467 -353 q 363 -315 414 -353 q 313 -232 313 -278 q 342 -203 313 -203 q 363 -206 349 -203 q 390 -285 379 -264 q 471 -322 414 -322 q 890 144 642 -322 l 1140 590 q 760 192 872 304 q 607 56 649 81 q 469 6 524 6 q 390 99 390 6 q 485 328 390 210 q 544 399 492 336 q 666 550 596 463 q 783 719 736 638 q 829 833 829 800 q 810 875 829 865 q 718 896 769 896 q 311 718 571 896 q 139 547 203 644 q 75 368 75 450 q 154 265 75 286 q 203 258 179 258 q 360 319 274 258 q 474 392 461 388 q 364 279 460 340 q 167 214 258 214 q 120 219 154 214 q 53 269 86 224 q 19 381 19 315 q 296 767 19 569 q 508 872 376 825 q 722 919 640 919 q 845 894 803 919 q 888 812 888 868 q 810 637 888 756 q 564 314 732 518 q 500 209 529 274 q 471 106 471 144 q 501 68 471 68 q 590 111 531 68 q 928 404 760 232 q 1176 693 1097 576 q 1297 775 1233 775 q 1319 761 1319 775 q 1317 750 1319 758 q 840 -61 1142 444 q 651 -280 751 -207 q 467 -353 550 -353 z "},"Z":{"ha":1026,"x_min":-114,"x_max":1307,"o":"m 1261 740 q 1113 763 1254 740 q 574 421 878 629 q 83 36 271 213 q 515 79 296 60 q 588 81 540 81 q 861 47 761 81 q 961 -42 961 14 q 921 -115 961 -75 q 849 -164 868 -164 q 842 -152 842 -164 q 858 -126 842 -140 q 874 -99 874 -111 q 744 -19 874 -56 q 492 19 610 19 q 217 -3 374 19 q -29 -26 61 -26 q -39 -26 -35 -26 q -67 -46 -61 -46 q -69 -41 -69 -46 q -61 -22 -69 -36 q -112 7 -112 -19 q -90 50 -112 28 q -51 72 -68 72 q -46 69 -49 72 q 14 50 -39 58 q 1021 776 365 417 l 979 785 q 725 807 881 807 q 454 765 569 807 q 379 735 429 760 q 299 639 299 694 q 302 619 299 631 q 301 600 306 607 q 283 592 296 592 q 258 611 269 592 q 246 653 246 631 q 253 699 246 675 q 424 829 279 788 q 670 850 497 850 q 1013 819 843 850 q 1082 807 1033 818 l 1158 849 q 1207 854 1169 854 q 1244 840 1244 854 q 1232 831 1244 835 q 1161 790 1226 826 q 1238 786 1224 786 q 1265 793 1253 786 q 1273 814 1276 800 q 1275 828 1269 828 q 1295 809 1283 828 q 1307 775 1307 790 q 1261 740 1307 740 z "},"[":{"ha":813,"x_min":32,"x_max":796,"o":"m 228 6 l 332 13 q 372 -4 372 13 q 256 -24 372 -24 q 32 26 32 -24 q 212 536 32 192 q 528 974 392 881 q 680 997 564 997 q 796 968 796 997 q 794 950 796 963 q 775 949 789 949 l 675 954 q 592 940 614 954 q 514 861 569 926 q 261 469 401 728 q 121 83 121 210 q 228 6 121 6 z "},"\\":{"ha":765,"x_min":40,"x_max":817,"o":"m 75 969 q 424 550 108 969 q 786 3 743 121 q 817 -126 817 -81 q 793 -172 817 -172 q 764 -158 774 -172 q 769 -142 758 -147 q 779 -115 779 -137 q 771 -67 779 -92 q 484 376 726 50 q 54 917 242 701 q 42 942 42 932 q 51 960 42 951 q 75 969 60 969 z "},"]":{"ha":772,"x_min":32,"x_max":796,"o":"m 600 968 l 496 961 q 456 978 456 961 q 572 997 456 997 q 796 947 796 997 q 616 438 796 781 q 300 0 436 94 q 148 -24 264 -24 q 32 6 32 -24 q 33 24 32 11 q 53 25 39 25 l 153 19 q 236 33 214 19 q 314 113 258 47 q 567 505 426 246 q 707 890 707 764 q 600 968 707 968 z "},"^":{"ha":514,"x_min":89,"x_max":467,"o":"m 258 572 q 104 456 119 456 q 89 470 89 456 q 174 553 89 485 q 278 626 260 625 l 286 624 q 460 474 339 565 l 467 460 l 461 450 q 354 501 429 453 q 258 572 279 550 z "},"_":{"ha":1119,"x_min":11,"x_max":1101,"o":"m 1092 -83 q 35 -101 618 -83 q 11 -68 11 -101 q 35 -35 11 -35 l 1063 -35 q 1101 -74 1097 -35 l 1092 -83 z "},"`":{"ha":307,"x_min":51,"x_max":240,"o":"m 235 433 q 240 423 240 429 q 232 417 240 417 q 150 461 224 417 q 64 515 76 506 q 51 541 51 524 q 65 558 51 558 q 235 433 82 558 z "},"a":{"ha":572,"x_min":-12,"x_max":663,"o":"m 461 415 l 481 419 q 510 407 496 419 q 524 388 524 394 q 438 253 524 381 q 351 76 351 126 q 353 68 351 72 q 383 36 360 36 q 647 275 456 36 q 657 281 651 281 q 663 270 663 281 q 650 243 663 260 q 379 6 472 6 q 356 10 367 6 q 294 101 294 33 q 300 149 294 125 l 214 65 q 95 -7 132 -7 q 25 17 58 -7 q -12 90 -12 44 q 129 333 -12 192 q 389 474 271 474 q 450 442 435 474 q 457 423 454 431 q 461 415 460 415 m 46 74 q 81 24 46 24 q 300 200 161 24 l 447 403 q 411 422 436 422 q 186 291 326 422 q 46 74 46 160 z "},"b":{"ha":507,"x_min":-7,"x_max":557,"o":"m 317 346 q 375 440 317 440 q 388 439 381 440 q 411 403 411 435 q 400 322 411 371 q 385 268 389 286 q 408 208 389 244 q 459 171 426 171 q 532 215 492 171 q 548 225 540 225 q 556 216 556 225 q 546 192 557 207 q 456 140 503 140 q 346 240 388 140 q 224 70 303 142 q 67 -1 144 -1 q -7 110 -7 -1 q 156 432 -7 197 q 406 667 319 667 q 438 656 424 667 q 453 629 453 644 q 433 608 453 631 q 323 489 413 586 q 147 275 233 392 q 61 94 61 158 q 70 58 61 78 q 100 39 79 39 q 243 133 161 39 q 326 274 311 217 q 317 346 317 303 z "},"c":{"ha":393,"x_min":-11,"x_max":474,"o":"m 106 -18 q 78 -14 90 -18 q -11 86 -11 11 q 111 311 -11 183 q 331 439 233 439 q 383 422 363 439 q 403 374 403 404 q 385 312 403 344 q 331 279 367 279 q 294 301 294 279 q 313 348 294 317 q 332 381 332 379 q 328 383 332 383 q 222 328 289 379 q 129 242 154 276 l 75 163 q 55 110 61 140 q 49 64 49 79 q 66 29 49 49 q 115 10 83 10 q 288 91 185 10 q 446 246 390 172 q 463 254 453 254 q 472 249 472 254 q 465 235 472 243 q 283 58 389 133 q 106 -18 176 -18 z "},"d":{"ha":649,"x_min":-12,"x_max":717,"o":"m 456 421 q 672 674 611 674 q 699 667 682 674 q 717 649 717 661 q 710 631 717 642 q 544 426 599 494 q 364 129 381 219 q 360 90 360 110 q 411 28 360 28 q 679 218 514 28 q 703 234 693 232 q 713 229 713 236 q 704 213 713 222 q 418 -3 543 19 q 399 -4 411 -4 q 334 26 356 -4 q 313 90 313 56 q 328 176 313 129 l 215 64 q 95 -7 139 -7 q 22 17 51 -7 q -12 90 -12 43 q 129 333 -12 192 q 389 474 271 474 q 443 453 428 474 q 456 421 449 446 m 46 74 q 81 24 46 24 q 279 188 140 24 q 446 406 304 217 q 413 422 436 422 q 186 291 326 422 q 46 74 46 160 z "},"e":{"ha":357,"x_min":-46,"x_max":442,"o":"m 71 -18 q 43 -14 56 -18 q -46 86 -46 11 q 76 311 -46 183 q 296 439 199 439 q 348 422 328 439 q 368 379 368 404 q 251 231 368 301 q 60 160 133 160 q 40 163 49 160 q 19 83 19 125 q 88 11 19 11 q 267 104 157 11 q 411 249 351 172 q 433 265 424 265 q 442 257 442 265 q 431 233 442 249 q 250 58 356 135 q 71 -18 144 -18 m 333 382 q 298 399 333 399 q 197 344 263 399 q 61 193 110 272 q 79 190 69 190 q 220 247 132 190 q 331 369 308 303 q 333 382 333 376 z "},"f":{"ha":336,"x_min":-337,"x_max":567,"o":"m 567 679 q 542 636 567 636 q 528 647 535 636 q 486 669 515 669 q 367 578 422 669 q 297 447 356 560 l 314 447 q 515 451 465 447 q 521 446 521 450 q 422 415 521 435 q 269 389 329 400 q 165 178 226 300 q 0 -112 40 -56 q -236 -285 -121 -285 q -306 -251 -276 -285 q -337 -175 -336 -217 q -325 -158 -333 -158 q -319 -168 -321 -158 q -292 -224 -311 -204 q -251 -243 -272 -243 q -36 -97 -133 -243 q 115 203 19 -14 l 190 383 q 51 417 51 385 q 65 440 51 431 q 88 450 78 450 l 218 447 q 468 750 354 750 q 556 708 511 750 q 567 679 567 697 z "},"g":{"ha":514,"x_min":-117,"x_max":522,"o":"m 464 424 l 483 428 q 512 417 501 428 q 522 399 522 406 q 521 385 522 393 q 481 315 519 378 q 400 172 432 231 q 228 -115 288 -37 q -15 -285 100 -285 q -85 -251 -56 -285 q -117 -175 -115 -217 q -104 -158 -112 -158 q -97 -168 -100 -158 q -71 -224 -90 -204 q -32 -243 -51 -243 q 138 -139 47 -243 q 269 64 197 -69 l 339 201 l 235 96 q 98 0 135 0 q 28 25 61 0 q -10 99 -10 53 q 133 340 -10 200 q 392 481 275 481 q 453 450 439 481 q 460 431 457 439 q 464 424 463 424 m 49 82 q 83 32 49 32 q 303 208 164 32 l 450 411 q 415 431 442 431 q 189 298 329 431 q 49 82 49 165 z "},"h":{"ha":522,"x_min":-78,"x_max":583,"o":"m 329 6 q 247 101 247 6 q 285 222 247 156 q 379 376 324 288 q 57 114 201 288 q -37 -7 -24 -7 q -78 17 -78 -7 q -61 61 -78 29 q 143 413 74 301 q 376 700 308 678 q 382 701 379 701 q 407 672 400 701 q 263 461 403 643 q 97 219 117 276 q 276 346 149 257 q 458 442 414 442 q 503 407 503 442 q 502 399 503 401 q 406 268 501 397 q 310 78 310 139 q 333 46 310 46 q 558 226 408 49 q 577 239 571 239 q 583 231 583 239 q 446 81 583 203 q 329 6 360 6 z "},"i":{"ha":314,"x_min":-21,"x_max":374,"o":"m 301 567 q 341 553 322 567 q 360 522 360 540 q 342 491 360 504 q 304 478 325 478 q 266 493 283 478 q 249 528 249 508 q 301 567 249 567 m 50 -15 q -21 76 -21 -15 q 61 284 -21 151 q 193 418 143 417 q 224 407 207 418 q 242 385 242 396 q 225 363 235 375 q 204 338 215 351 q 174 298 193 324 q 136 249 154 272 q 32 63 32 114 q 67 13 32 13 q 146 44 96 13 q 331 203 263 117 q 365 235 356 235 q 374 224 374 235 q 342 179 374 213 q 291 126 310 146 q 265 101 272 107 q 240 77 258 94 q 211 53 221 60 q 183 32 201 46 q 151 12 165 18 q 119 -3 138 6 q 50 -15 90 -15 z "},"j":{"ha":279,"x_min":-368,"x_max":342,"o":"m 283 569 q 323 556 304 569 q 342 524 342 542 q 324 494 342 507 q 286 481 307 481 q 248 495 265 481 q 231 529 231 510 q 283 569 231 569 m 257 378 q 147 181 257 369 q -18 -104 40 -24 q -256 -285 -144 -285 q -333 -258 -297 -285 q -368 -203 -368 -231 q -356 -176 -368 -176 q -327 -212 -354 -176 q -264 -247 -300 -247 q -11 4 -153 -247 q 108 258 76 161 q 51 201 92 239 q 1 164 10 164 q -8 168 -8 164 q 14 200 -8 181 q 74 274 36 219 q 118 333 111 328 l 164 382 q 224 408 192 408 q 257 378 257 408 z "},"k":{"ha":547,"x_min":-39,"x_max":608,"o":"m 285 -17 q 99 157 175 -17 q 11 -7 79 128 q -39 46 -39 13 q 140 374 -39 106 q 386 689 319 642 q 408 693 392 693 q 451 671 451 693 q 355 546 451 660 q 247 408 258 432 q 449 474 374 474 q 522 439 492 474 q 551 379 551 410 q 551 371 551 375 q 440 240 540 292 q 290 197 360 197 q 193 215 221 197 q 180 211 185 217 q 178 197 175 206 q 307 25 217 25 q 428 78 354 25 q 583 226 503 131 q 601 236 593 236 q 608 228 608 236 q 599 207 608 221 q 457 63 524 115 q 285 -17 356 -17 m 485 408 q 472 431 485 419 q 446 442 460 442 q 266 379 371 442 q 138 238 161 317 q 204 233 150 238 q 368 285 267 233 q 485 408 485 343 z "},"l":{"ha":338,"x_min":-4,"x_max":424,"o":"m 54 69 q 54 49 54 69 q 100 28 54 28 q 218 76 146 28 q 358 208 290 125 q 385 231 375 231 q 394 222 394 231 q 338 150 394 214 q 106 -3 199 -3 q 28 19 60 -3 q -4 85 -4 40 q 19 190 -4 131 q 149 428 60 285 q 379 692 311 692 q 408 681 393 692 q 424 658 422 671 q 301 493 392 615 q 175 317 210 371 q 123 238 140 264 q 97 197 106 211 q 78 158 89 182 q 54 69 54 111 z "},"m":{"ha":876,"x_min":-51,"x_max":946,"o":"m 664 17 q 569 104 569 17 q 614 241 569 154 q 707 388 658 328 q 508 237 621 346 q 351 8 396 128 q 328 -3 344 -3 q 294 35 294 -3 q 357 210 308 111 q 447 396 372 242 q 263 244 339 325 q 123 81 188 163 q 50 -1 58 -1 q 19 15 32 -1 q 6 49 6 32 q 78 232 6 74 l -6 144 q -44 114 -36 114 q -51 123 -51 114 q -40 143 -51 132 q 51 246 11 194 q 185 429 92 297 q 228 450 200 450 q 256 424 256 450 q 182 288 256 414 q 100 131 108 163 q 271 299 157 193 q 496 457 442 457 q 526 447 513 457 q 540 426 540 438 q 486 321 540 414 q 428 207 433 225 q 582 338 582 336 q 769 439 713 439 q 801 428 786 439 q 815 404 815 418 q 725 287 815 401 q 624 99 635 172 q 633 61 621 74 q 678 49 646 49 q 774 94 711 49 q 903 215 838 139 q 937 243 928 243 q 946 236 946 243 q 933 214 946 226 q 787 74 865 132 q 664 17 708 17 z "},"n":{"ha":560,"x_min":-51,"x_max":618,"o":"m 224 439 q 261 410 261 439 q 257 393 261 401 q 107 131 132 219 q 500 454 431 454 q 513 456 507 456 q 551 421 551 456 q 549 407 551 414 q 493 332 546 400 q 390 193 432 260 q 347 82 347 126 q 367 38 347 38 q 579 206 428 38 q 589 218 582 208 q 614 243 610 243 q 618 229 618 243 q 599 193 618 215 q 354 -3 426 -3 q 286 72 286 -3 q 342 244 286 147 l 431 389 q 263 237 336 319 q 128 76 189 154 q 58 -1 68 -1 q 26 16 38 -1 q 14 59 14 33 q 32 128 14 85 q 78 232 50 171 l -6 144 q -44 114 -36 114 q -51 123 -51 114 q -40 143 -51 132 q 49 242 11 194 q 197 422 85 289 q 224 439 210 439 z "},"o":{"ha":390,"x_min":-14,"x_max":471,"o":"m 363 294 q 269 132 363 246 q 82 -3 160 -3 l 60 -3 q 3 35 24 -3 q -14 93 -14 61 q 108 327 -14 176 q 304 478 229 478 q 375 403 375 478 q 368 353 375 383 q 394 349 369 349 q 471 375 419 349 q 361 307 469 351 q 363 294 363 301 m 272 367 q 138 256 225 367 q 51 92 51 144 q 85 39 51 39 q 236 147 144 39 q 328 303 328 256 q 272 367 306 315 z "},"p":{"ha":524,"x_min":-139,"x_max":524,"o":"m 524 314 q 395 101 524 201 q 172 0 267 0 q 81 8 110 0 q 18 58 53 17 q -46 -41 -6 39 q -86 -178 -86 -121 q -60 -247 -86 -204 q -64 -259 -57 -254 q -74 -264 -71 -264 q -81 -262 -78 -264 q -139 -138 -139 -231 q 15 181 -139 -46 q 226 428 168 408 q 244 431 240 431 q 268 379 268 431 q 325 406 282 393 q 400 419 378 419 q 487 391 450 419 q 524 314 524 363 m 453 328 q 390 381 453 381 q 276 354 328 381 q 146 232 253 343 q 39 89 39 121 q 77 51 39 64 q 154 39 115 39 q 342 126 231 39 q 453 328 453 213 z "},"q":{"ha":461,"x_min":-39,"x_max":474,"o":"m 171 67 q 29 6 82 6 q -39 81 -39 6 q 35 225 -39 139 q 164 333 100 297 q 413 418 317 418 q 450 394 443 418 l 450 350 q 474 327 474 332 q 469 317 474 322 l 360 213 q 217 17 256 106 q 263 19 225 19 q 321 -13 300 19 q 342 -78 342 -46 q 283 -235 342 -144 q 144 -336 219 -336 q 72 -229 72 -336 q 107 -82 72 -164 l 171 67 m 379 349 q 166 256 308 349 q 4 68 24 164 q 3 60 3 64 q 36 33 3 33 q 222 154 106 33 l 397 340 q 379 349 394 349 m 203 -12 q 146 -132 176 -54 q 115 -237 115 -210 q 126 -287 115 -265 q 157 -308 138 -308 q 247 -219 208 -308 q 286 -86 286 -131 q 267 -28 286 -42 q 203 -12 247 -14 z "},"r":{"ha":547,"x_min":-7,"x_max":604,"o":"m 283 -7 q 179 108 179 -7 q 210 236 179 167 q 276 353 240 306 q 258 351 269 351 q 203 399 225 351 l 100 265 q 0 158 14 158 q -7 164 -7 158 q 17 204 -7 178 q 188 442 138 344 q 268 563 219 563 q 300 535 300 563 q 265 464 300 507 l 232 419 q 275 390 232 390 q 331 408 300 390 l 367 431 q 381 432 369 432 q 404 418 392 432 q 413 393 417 404 l 317 272 q 228 92 228 158 q 289 26 228 26 q 446 94 353 26 q 547 185 501 135 q 594 235 590 235 q 604 224 604 235 q 592 200 604 214 l 547 150 q 464 75 510 111 q 283 -7 354 -7 z "},"s":{"ha":499,"x_min":-29,"x_max":571,"o":"m 256 21 q 156 -3 215 -3 q 66 36 97 -3 q 13 160 35 75 q -22 135 -12 135 q -29 144 -29 135 q -22 161 -29 154 q 133 325 24 218 l 308 489 q 397 560 383 560 q 442 526 442 560 q 428 494 442 510 q 409 469 415 478 q 396 451 403 460 q 345 274 371 408 q 306 86 319 139 q 543 236 421 88 q 564 250 557 250 q 571 241 571 250 q 558 217 571 232 q 408 85 478 122 q 300 50 367 64 l 256 21 m 68 175 q 99 98 68 128 q 169 68 131 68 q 229 83 208 68 q 284 211 257 99 q 317 410 311 324 l 322 457 q 159 310 246 400 q 69 190 72 219 q 68 175 68 182 z "},"t":{"ha":413,"x_min":-10,"x_max":567,"o":"m 363 447 l 563 450 q 567 446 567 447 q 394 411 567 433 q 207 385 221 389 q 110 244 181 361 q 39 72 39 126 q 110 21 39 21 q 197 42 143 21 q 281 81 251 63 q 447 224 358 129 q 474 243 467 243 q 478 235 478 243 q 457 201 478 226 q 294 58 385 113 q 88 -8 186 -8 q 17 10 44 -8 q -10 86 -10 29 q 40 242 -10 143 q 117 390 90 342 q 83 386 97 386 q 43 418 43 386 q 76 451 43 442 q 89 453 81 451 l 169 453 q 226 526 194 485 q 279 576 265 576 q 314 565 293 576 q 335 539 335 554 q 268 449 335 524 q 363 447 304 447 z "},"u":{"ha":590,"x_min":-26,"x_max":653,"o":"m 389 -8 q 359 -10 382 -10 q 313 8 336 -10 q 290 55 290 26 q 301 118 290 83 q 315 171 311 153 q 65 -15 156 -15 q 3 56 8 -15 q 3 65 3 61 q 75 226 3 125 q -7 143 35 190 q -21 138 -12 138 q -26 144 -26 138 q -14 168 -26 151 l 178 393 q 251 435 214 435 q 289 410 289 435 q 281 392 289 400 q 141 221 225 340 q 57 44 57 101 q 74 19 57 19 q 243 135 132 19 q 388 306 282 174 q 526 439 493 439 q 576 400 576 439 q 518 319 576 386 q 397 163 439 224 q 356 65 356 103 q 376 28 356 28 q 399 33 386 28 q 628 228 494 75 q 644 238 636 238 q 653 228 653 238 q 643 208 653 219 q 503 69 583 139 q 389 -8 422 -1 z "},"v":{"ha":418,"x_min":-21,"x_max":476,"o":"m 376 546 q 447 518 418 546 q 476 440 476 490 q 294 165 476 331 q 46 -4 140 26 q 6 13 31 -4 q -19 43 -19 29 q 47 250 -19 74 q 139 447 114 426 q 157 453 144 453 q 183 440 169 453 q 199 408 197 426 q 130 247 199 407 q 65 57 61 88 q 278 203 125 75 q 432 432 432 331 q 371 521 432 493 q 361 533 361 525 q 376 546 361 546 z "},"w":{"ha":624,"x_min":-26,"x_max":622,"o":"m 558 436 q 567 444 558 444 q 606 414 592 444 q 622 322 622 388 q 535 117 622 222 q 346 13 447 13 q 267 60 297 13 q 238 157 238 107 q 260 279 238 207 q 142 141 219 239 q 36 -3 64 43 q -2 13 22 -3 q -26 42 -26 28 q 58 262 -26 75 q 185 449 143 449 q 213 434 200 449 q 225 412 225 419 q 149 269 225 404 q 75 106 74 133 q 215 275 207 265 q 392 431 350 431 q 422 417 407 431 q 436 394 436 404 q 397 332 436 383 q 331 231 358 281 q 304 132 304 182 q 363 44 304 44 l 381 44 q 517 159 456 44 q 579 343 579 274 q 561 429 579 399 q 558 436 558 432 z "},"x":{"ha":593,"x_min":-49,"x_max":656,"o":"m 503 61 q 337 -22 403 -22 q 250 74 271 -22 q 240 190 243 113 q -14 -136 71 10 q -25 -142 -18 -142 q -42 -126 -42 -142 q -39 -119 -42 -122 q 240 239 90 85 q 247 453 246 429 q 111 292 215 446 q 21 172 60 214 q -26 124 -18 131 q -41 118 -33 118 q -49 125 -49 118 q -4 181 -49 132 q 114 342 40 231 q 219 483 188 454 q 279 513 251 513 q 319 505 307 513 q 328 478 332 497 q 323 446 325 460 q 319 414 321 432 q 310 307 311 349 q 617 575 378 372 q 626 578 619 578 q 644 566 633 578 q 656 542 656 554 q 644 519 656 531 q 490 403 600 483 q 307 257 379 324 q 306 178 306 228 q 318 86 306 128 q 379 32 335 32 q 624 222 458 32 q 644 236 638 236 q 651 227 651 236 q 640 206 651 218 q 503 61 554 104 z "},"y":{"ha":514,"x_min":-78,"x_max":561,"o":"m -78 -161 q 38 -244 -11 -244 q 208 -118 117 -244 q 339 117 275 -25 l 392 244 l 188 85 q 36 11 93 11 q -12 32 6 11 q -31 79 -31 53 q 72 276 -31 139 q 222 413 175 413 q 269 381 269 413 q 147 237 269 368 q 24 60 24 106 q 47 42 24 42 q 226 146 92 42 q 428 318 360 250 q 471 372 443 336 q 529 403 497 403 q 561 372 561 403 q 499 274 561 367 q 433 175 436 181 q 301 -68 390 92 q 32 -285 167 -285 q -46 -247 -12 -285 q -78 -161 -79 -208 z "},"z":{"ha":536,"x_min":-18,"x_max":531,"o":"m 93 57 q 14 18 38 18 q -18 53 -18 18 q -10 83 -18 65 q 7 101 -1 101 q 13 81 19 101 q 25 60 8 60 q 65 76 42 60 l 13 117 q 10 126 10 119 q 24 147 10 133 q 45 160 38 160 q 113 113 53 160 q 365 368 285 307 q 203 401 256 401 q 174 399 188 401 q 144 383 160 397 q 128 350 128 368 q 143 320 128 332 q 158 301 158 308 q 148 294 158 294 q 114 322 138 294 q 92 379 92 350 q 163 443 92 428 q 239 450 200 450 q 431 400 278 450 q 472 411 450 411 q 531 376 531 411 q 513 351 531 363 q 469 339 494 339 q 424 349 444 339 q 140 90 292 267 l 190 51 q 329 13 250 13 q 446 38 408 13 q 483 101 483 63 q 476 135 483 119 q 489 151 469 151 q 503 135 496 151 q 510 97 510 119 q 457 6 510 42 q 321 -31 404 -31 q 169 4 229 -31 q 93 57 146 17 z "},"{":{"ha":449,"x_min":13,"x_max":524,"o":"m 213 242 q 190 98 213 196 q 167 -58 167 0 q 206 -133 167 -117 l 296 -150 l 308 -161 q 282 -169 289 -169 q 165 -150 204 -169 q 111 -47 111 -122 q 136 99 111 1 q 161 249 161 197 q 13 360 161 357 l 28 382 q 164 422 126 393 q 229 546 211 457 l 260 717 q 333 846 281 803 q 499 889 386 889 q 506 889 503 889 l 508 889 q 524 876 517 889 l 506 869 q 356 810 399 869 q 307 658 326 769 q 282 543 301 622 q 121 368 236 396 q 213 242 213 335 z "},"|":{"ha":304,"x_min":71,"x_max":219,"o":"m 72 -142 q 71 -140 71 -142 q 76 -114 71 -137 q 119 82 97 -26 q 165 611 165 349 q 157 775 165 719 q 140 857 140 844 q 164 869 140 869 q 219 747 219 869 q 180 276 219 624 q 106 -118 140 -71 q 72 -142 89 -142 z "},"}":{"ha":590,"x_min":21,"x_max":585,"o":"m 38 -167 l 36 -167 q 21 -154 28 -167 q 92 -142 36 -147 q 225 -42 186 -136 l 279 128 q 360 279 314 238 q 496 357 415 333 q 394 467 394 382 q 429 628 394 525 q 464 785 464 731 q 426 851 464 839 l 344 864 l 333 874 l 353 885 q 461 872 425 885 q 522 790 522 851 q 484 621 522 728 q 446 463 446 514 q 488 388 446 411 q 585 365 522 371 l 567 342 q 393 268 446 339 q 326 92 363 225 q 251 -85 296 -32 q 38 -167 182 -167 z "},"~":{"ha":421,"x_min":67,"x_max":374,"o":"m 374 621 q 319 563 374 600 q 278 550 300 550 q 210 569 256 550 q 142 588 165 588 q 97 569 119 588 q 68 551 75 551 q 67 556 67 553 q 125 611 67 575 q 172 625 147 625 q 241 610 197 625 q 314 596 285 596 q 365 626 343 596 q 374 621 374 626 z "},"":{"ha":275,"x_min":0,"x_max":0,"o":""},"":{"ha":410,"x_min":-69,"x_max":350,"o":"m 350 271 q 297 231 350 231 q 258 244 276 231 q 239 276 239 258 q 257 306 239 293 q 295 319 275 319 q 333 305 315 319 q 350 271 350 290 m -12 -299 q -49 -292 -29 -299 q -69 -275 -69 -286 q -64 -265 -69 -271 q 106 -57 -3 -201 q 233 124 218 88 q 264 160 249 160 q 271 150 271 160 q 149 -116 271 67 q -12 -299 28 -299 z "},"":{"ha":410,"x_min":35,"x_max":426,"o":"m 254 372 l 263 404 q 226 428 263 428 q 158 375 190 428 q 126 279 126 322 q 189 208 126 208 q 353 317 265 208 q 369 331 363 331 q 376 326 376 331 q 329 267 376 310 q 248 201 282 224 q 169 179 214 179 q 147 182 161 179 q 53 -56 100 119 q 49 -58 50 -58 q 35 -49 35 -58 q 42 -8 35 -43 q 117 194 68 129 q 83 273 83 217 q 147 397 83 329 q 263 464 210 464 q 272 464 267 464 q 334 574 285 490 q 394 665 383 657 q 415 672 404 672 q 426 663 426 672 q 404 627 426 658 q 296 454 382 596 q 303 435 303 447 q 286 395 303 424 q 258 367 269 367 q 254 372 254 367 z "},"":{"ha":1224,"x_min":53,"x_max":1215,"o":"m 1136 164 q 1215 56 1215 106 q 1192 -26 1215 7 q 1128 -75 1168 -60 q 738 -69 969 -137 q 494 29 614 -33 q 297 -39 388 -39 q 130 20 207 -39 q 53 163 53 79 q 113 214 53 214 q 494 64 197 214 q 678 439 589 179 l 454 439 q 438 450 438 439 q 471 482 438 482 l 693 482 q 901 924 803 810 q 1078 1015 983 1015 q 1164 981 1131 1015 q 1197 892 1197 947 q 1046 683 1197 756 q 1028 678 1036 678 q 1021 689 1021 678 q 1035 710 1021 700 q 1062 731 1050 721 q 1081 747 1074 742 q 1154 907 1154 815 q 1135 956 1154 939 q 1086 972 1115 972 q 1025 952 1057 972 q 964 893 993 932 q 883 769 926 843 q 753 482 840 694 l 992 482 q 1003 472 1003 482 q 963 439 1003 439 l 736 439 q 647 233 674 288 q 528 50 583 101 q 717 -22 601 4 q 917 -53 829 -53 q 1074 -28 1006 -53 q 1169 75 1169 3 q 1144 128 1169 103 q 1118 162 1118 154 q 1124 169 1118 169 q 1136 164 1131 169 m 450 39 q 307 109 414 67 q 172 151 200 151 q 143 140 143 151 q 193 38 143 83 q 317 -4 244 -4 q 450 39 389 -4 z "},"":{"ha":719,"x_min":68,"x_max":607,"o":"m 492 706 q 532 622 532 676 q 501 524 532 567 q 421 458 471 482 q 508 325 488 349 l 463 325 q 396 447 457 343 q 307 433 356 433 q 226 449 258 433 l 113 324 l 68 324 l 210 457 q 161 547 161 488 q 254 699 161 643 l 181 811 l 221 824 q 275 710 226 799 q 384 733 329 733 q 475 717 439 733 q 575 821 535 775 l 607 808 q 585 789 604 806 q 492 706 535 746 m 333 474 q 363 474 333 474 q 436 513 393 474 q 479 600 479 553 q 379 699 479 699 q 261 662 307 699 q 215 576 215 625 q 244 501 215 528 q 333 474 272 474 z "},"":{"ha":763,"x_min":142,"x_max":1333,"o":"m 435 428 q 614 838 614 749 q 542 901 614 901 q 350 817 469 901 q 182 667 231 733 q 164 668 169 649 q 163 690 163 675 q 182 731 163 706 q 352 871 244 810 q 545 932 460 932 q 658 894 631 932 q 672 843 672 875 q 529 494 672 729 l 490 428 l 499 428 q 836 729 629 567 q 1251 943 1099 943 q 1313 928 1293 943 q 1332 902 1332 914 q 1329 883 1332 890 q 1325 876 1326 876 l 1315 900 q 1272 922 1303 922 q 949 750 1189 922 q 567 429 710 578 l 758 431 q 747 417 754 421 q 717 410 739 414 q 674 403 694 406 q 608 395 653 400 q 528 385 564 390 l 490 344 q 465 308 488 340 q 433 261 442 275 l 672 268 q 672 261 674 267 q 633 247 669 256 q 408 218 543 224 q 290 -33 290 18 q 306 -53 290 -53 q 407 3 329 -53 q 413 -6 414 3 q 347 -56 407 -26 q 264 -86 286 -86 q 214 -33 214 -86 q 311 215 214 35 l 204 217 q 143 226 143 217 q 186 261 143 261 l 333 261 l 410 381 q 315 381 353 381 q 261 381 278 381 q 233 394 231 382 q 275 428 242 428 l 435 428 z "},"":{"ha":304,"x_min":139,"x_max":219,"o":"m 151 617 q 146 800 151 751 q 140 856 140 849 q 164 869 140 869 q 219 742 219 869 q 213 447 219 615 l 151 450 l 151 617 m 153 86 l 151 385 l 210 386 q 174 -89 192 -18 q 151 -126 164 -126 q 139 -110 139 -126 q 146 -36 139 -93 q 153 86 153 21 z "},"":{"ha":792,"x_min":-39,"x_max":939,"o":"m 221 458 q 264 353 228 390 q 340 297 304 314 q 392 272 375 279 q 489 235 439 251 q 611 172 565 204 q 740 251 686 197 q 793 359 793 304 q 746 449 793 414 q 638 503 699 485 q 506 558 578 522 q 399 640 435 594 q 272 565 324 613 q 221 458 221 517 m 7 -64 q 164 -165 7 -165 q 443 -103 304 -165 q 576 -1 531 -68 q 592 39 592 21 q 529 138 592 96 q 424 188 496 158 q 300 239 351 217 q 206 308 249 261 q 164 426 164 356 q 224 567 164 497 q 379 675 283 636 q 364 742 364 708 q 435 887 364 815 q 613 1003 506 958 q 839 1053 731 1053 q 922 1024 906 1053 q 939 970 939 996 q 935 927 939 944 q 917 884 932 910 q 885 857 901 858 q 881 875 875 857 q 888 931 888 922 q 786 1001 888 1001 q 642 974 725 1001 q 490 894 558 947 q 421 781 421 842 q 478 659 428 704 q 591 590 528 614 q 717 544 654 567 q 865 407 865 494 q 800 260 865 333 q 638 147 735 188 q 667 88 667 118 q 652 27 667 58 q 601 -36 638 -4 q 453 -133 531 -99 q 154 -208 297 -208 q -36 -96 -10 -208 q -39 -71 -39 -83 q 22 42 -39 -12 q 157 126 78 94 q 177 133 168 133 q 190 128 186 133 q 140 96 190 121 q 53 29 90 71 q 7 -64 7 -15 z "},"":{"ha":363,"x_min":44,"x_max":322,"o":"m 321 594 q 301 569 319 594 l 279 514 q 242 476 263 476 q 222 491 232 476 q 213 522 213 506 q 253 567 213 538 q 317 596 294 596 l 321 594 m 74 476 q 54 491 64 476 q 44 522 44 506 q 85 567 44 538 q 149 596 126 596 q 153 594 150 596 q 133 569 151 594 l 111 514 q 74 476 94 476 m 154 593 q 153 594 154 594 l 154 594 l 154 593 m 322 594 l 322 593 l 321 594 l 322 594 z "},"":{"ha":886,"x_min":57,"x_max":807,"o":"m 807 506 q 638 192 807 344 q 301 40 468 40 q 130 99 203 40 q 57 257 57 158 q 230 573 57 421 q 569 725 403 725 q 738 664 668 725 q 807 506 807 603 m 754 494 q 699 640 754 583 q 556 697 643 697 q 253 554 400 697 q 107 256 107 411 q 174 119 107 171 q 321 69 233 69 q 611 208 468 69 q 754 494 754 347 m 654 569 q 629 525 654 528 l 622 531 q 629 565 626 568 q 579 613 626 613 q 350 483 471 613 q 229 243 229 353 q 297 176 229 176 q 469 235 364 176 q 574 297 575 293 q 578 293 578 297 q 467 203 578 246 q 303 160 356 160 q 219 181 250 160 q 182 249 182 203 q 319 501 182 376 q 586 625 456 625 q 654 569 654 625 z "},"":{"ha":333,"x_min":-12,"x_max":663,"o":"m 461 749 l 481 753 q 510 740 496 753 q 524 721 524 728 q 438 587 524 714 q 351 410 351 460 q 353 401 351 406 q 383 369 360 369 q 647 608 456 369 q 657 614 651 614 q 663 603 663 614 q 650 576 663 593 q 379 339 472 339 q 356 343 367 339 q 294 435 294 367 q 300 482 294 458 l 214 399 q 95 326 132 326 q 25 350 58 326 q -12 424 -12 378 q 129 666 -12 525 q 389 807 271 807 q 450 775 435 807 q 457 756 454 764 q 461 749 460 749 m 46 407 q 81 357 46 357 q 300 533 161 357 l 447 736 q 411 756 436 756 q 186 624 326 756 q 46 407 46 493 z "},"":{"ha":583,"x_min":118,"x_max":513,"o":"m 375 393 q 511 205 511 221 q 499 189 511 189 q 485 194 496 189 q 407 276 450 240 l 317 347 q 313 360 313 350 q 382 469 313 369 q 471 591 451 568 q 501 614 490 614 q 513 606 513 614 q 375 393 513 585 m 181 393 q 315 206 315 224 q 304 189 315 189 q 290 194 301 189 q 211 276 258 238 l 122 347 q 118 356 118 350 q 189 472 118 372 q 277 592 260 571 q 306 614 294 614 q 318 606 318 614 q 181 393 318 585 z "},"":{"ha":360,"x_min":4,"x_max":547,"o":"m 53 31 q 104 -32 53 -22 q 108 -35 108 -33 q 78 -44 108 -44 q 15 10 33 -44 q 4 82 4 46 q 225 481 4 167 q 490 794 446 794 q 547 771 547 794 q 542 761 547 767 q 222 357 390 596 q 53 31 53 118 z "},"":{"ha":413,"x_min":26,"x_max":397,"o":"m 146 361 l 281 360 q 396 364 361 360 q 397 360 397 363 q 288 319 397 339 q 176 302 228 311 q 109 293 124 293 q 60 299 94 293 q 26 326 26 306 q 38 350 26 340 q 58 360 50 360 q 75 361 67 360 l 111 361 q 146 361 126 361 z "},"":{"ha":886,"x_min":57,"x_max":807,"o":"m 807 506 q 638 192 807 344 q 301 40 468 40 q 130 99 203 40 q 57 257 57 158 q 230 573 57 421 q 569 725 403 725 q 738 664 668 725 q 807 506 807 603 m 754 494 q 699 640 754 583 q 556 697 643 697 q 258 561 403 697 q 493 610 383 610 q 610 589 560 610 q 679 504 679 561 q 581 394 679 435 q 422 363 510 365 q 472 244 440 297 q 567 171 515 174 q 754 494 754 321 m 644 514 q 488 593 644 593 q 352 569 435 593 q 217 517 269 544 q 107 256 107 386 q 174 119 107 171 q 331 69 233 69 q 540 150 429 69 q 444 231 489 163 q 381 367 400 300 q 364 371 368 367 l 379 376 l 389 383 l 401 379 q 644 514 644 413 m 208 106 q 193 161 193 106 q 304 378 193 217 q 467 585 394 513 l 497 569 q 421 470 493 563 q 313 324 349 378 q 214 121 225 196 q 208 106 211 106 z "},"":{"ha":694,"x_min":306,"x_max":594,"o":"m 306 856 q 442 867 328 867 q 590 850 557 867 q 594 846 594 847 q 586 839 594 839 q 460 831 543 839 q 335 822 376 822 q 317 835 328 822 q 306 856 307 847 z "},"":{"ha":393,"x_min":90,"x_max":329,"o":"m 294 649 q 312 631 294 649 q 329 564 329 614 q 294 479 329 514 q 209 444 258 444 q 125 479 160 444 q 90 564 90 514 q 125 649 90 614 q 210 683 160 683 q 294 649 260 683 m 272 501 q 285 515 272 501 q 299 564 299 528 q 272 626 299 600 q 210 653 246 653 q 147 626 174 653 q 121 564 121 600 q 147 501 121 528 q 210 475 174 475 q 272 501 246 475 z "},"":{"ha":608,"x_min":85,"x_max":561,"o":"m 304 403 l 111 396 q 94 406 103 396 q 85 425 86 415 l 92 432 q 215 438 149 438 q 304 438 281 438 l 296 629 q 306 646 296 638 q 326 654 317 654 l 333 647 q 339 526 339 592 q 339 438 339 461 q 553 428 450 435 q 561 419 561 424 l 561 414 l 549 406 q 339 404 440 406 q 331 205 338 218 q 318 192 325 192 q 304 331 304 192 l 304 403 m 156 124 q 292 135 178 135 q 440 118 407 135 q 444 114 444 117 q 436 107 444 107 q 310 99 393 107 q 185 90 226 90 q 167 103 178 90 q 156 124 157 115 z "},"":{"ha":632,"x_min":0,"x_max":600,"o":"m 600 975 q 522 832 594 907 q 403 730 489 797 q 164 582 318 663 q 295 547 204 578 q 429 517 386 517 q 505 531 472 517 q 538 574 538 546 q 486 625 538 607 q 481 632 481 629 q 494 639 481 643 q 564 572 564 618 q 522 510 564 533 q 433 486 481 486 q 314 510 385 486 l 199 551 q 136 563 158 563 q 21 522 42 522 q 0 538 0 522 q 21 569 0 556 q 111 593 54 593 q 143 592 126 593 q 399 758 344 715 q 486 842 454 801 q 532 950 526 889 q 476 996 532 996 q 342 960 421 996 q 218 883 264 924 q 207 881 213 881 q 201 890 201 881 q 207 900 201 899 q 361 993 267 951 q 528 1035 456 1035 q 600 975 600 1035 z "},"":{"ha":661,"x_min":26,"x_max":622,"o":"m 90 660 l 86 631 q 186 540 86 558 q 238 536 213 536 q 386 571 311 536 q 544 726 503 625 q 550 756 550 739 q 517 803 550 788 q 433 818 483 818 q 364 810 383 818 q 335 803 344 803 q 319 817 319 803 q 327 834 319 826 q 344 842 335 842 q 478 865 415 842 q 568 956 558 896 q 569 965 569 960 q 524 1001 569 1001 q 417 978 478 1001 q 341 943 357 954 q 320 932 325 932 q 315 949 315 932 q 332 971 315 967 q 373 998 350 976 q 401 1019 396 1019 q 406 1013 406 1017 q 401 1003 406 1008 q 394 997 400 1003 q 543 1035 485 1035 q 622 960 625 1035 q 472 842 618 888 q 599 753 599 828 q 594 731 599 743 q 447 569 569 632 q 213 517 338 517 q 78 543 131 517 q 26 617 26 569 q 44 675 26 642 q 125 736 63 708 q 202 757 178 757 q 226 751 226 757 q 207 743 226 743 q 146 718 188 743 q 90 660 101 689 z "},"":{"ha":307,"x_min":67,"x_max":254,"o":"m 158 404 q 122 382 158 404 q 76 360 86 360 q 67 367 67 360 q 72 378 67 374 l 218 490 q 242 503 233 503 q 254 486 254 503 q 243 458 254 469 q 158 404 231 449 z "},"":{"ha":590,"x_min":-110,"x_max":653,"o":"m 13 15 q -57 -178 -57 -106 q -31 -247 -57 -204 q -35 -259 -28 -254 q -45 -264 -42 -264 q -51 -262 -49 -264 q -110 -138 -110 -231 q 47 186 -110 -46 l 65 214 l 3 157 q -12 149 -6 149 q -19 156 -19 149 q -6 178 -19 164 l 178 393 q 252 435 215 435 q 289 410 289 435 q 271 383 289 400 q 217 324 253 365 q 181 275 206 307 q 150 233 154 240 q 57 44 57 101 q 74 19 57 19 q 168 72 100 19 l 243 135 q 385 304 265 151 q 526 439 493 439 q 576 400 576 439 q 518 319 576 386 q 397 163 439 224 q 356 65 356 103 q 376 28 356 28 q 399 33 386 28 q 628 225 499 78 q 644 235 636 235 q 653 228 653 235 q 513 76 653 200 q 389 -8 422 -1 q 359 -10 382 -10 q 313 8 336 -10 q 290 55 290 26 q 301 118 290 83 q 315 171 311 153 l 193 49 q 74 -15 121 -15 q 13 15 26 -15 z "},"":{"ha":761,"x_min":-72,"x_max":868,"o":"m 501 842 l 651 847 q 706 842 688 847 q 824 900 761 900 q 868 882 860 900 q 841 874 865 879 q 806 863 817 869 q 629 592 732 819 l 460 183 q 283 -82 347 -82 q 275 -76 275 -82 q 294 -54 278 -69 q 461 289 369 17 q 554 567 511 443 q 692 822 618 733 l 678 822 q 458 564 581 822 q 318 211 406 456 q 175 -65 265 67 q -50 -246 53 -246 q -72 -233 -69 -246 q -58 -225 -68 -225 q 189 29 64 -225 q 333 396 231 117 q 119 553 119 414 q 248 757 119 672 q 501 842 376 842 z "},"":{"ha":314,"x_min":122,"x_max":233,"o":"m 175 482 q 215 468 196 482 q 233 437 233 454 q 216 406 233 419 q 178 393 199 393 q 140 408 157 393 q 122 442 122 422 q 175 482 122 482 z "},"":{"ha":311,"x_min":21,"x_max":240,"o":"m 240 -251 q 173 -353 240 -317 q 33 -389 106 -389 q 21 -374 21 -389 q 33 -362 21 -367 q 133 -347 100 -351 q 182 -267 182 -332 q 146 -197 182 -249 q 110 -118 110 -144 q 137 -33 110 -69 q 207 3 164 3 q 224 -7 222 3 q 177 -37 194 -12 q 160 -94 160 -61 q 200 -162 160 -110 q 240 -251 240 -214 z "},"":{"ha":485,"x_min":-1,"x_max":403,"o":"m 251 581 q 260 572 260 581 q 247 560 260 560 q 140 544 188 560 q 53 513 93 529 q 10 496 14 496 q 3 502 7 496 q -1 519 -1 508 q 13 536 -1 531 q 90 564 28 542 l 300 946 q 183 890 257 918 q 171 899 171 886 q 178 910 171 906 q 336 1010 233 931 l 340 1018 q 376 1033 350 1033 q 403 1021 403 1033 q 132 571 403 1018 q 251 581 185 581 z "},"":{"ha":265,"x_min":-14,"x_max":471,"o":"m 363 619 q 269 457 363 571 q 82 322 160 322 l 60 322 q 3 360 24 322 q -14 418 -14 386 q 108 652 -14 501 q 304 803 229 803 q 375 728 375 803 q 368 678 375 708 q 394 674 369 674 q 471 700 419 674 q 361 632 469 676 q 363 619 363 626 m 272 692 q 138 581 225 692 q 51 417 51 469 q 85 364 51 364 q 236 472 144 364 q 328 628 328 581 q 272 692 306 640 z "},"":{"ha":583,"x_min":118,"x_max":535,"o":"m 472 400 q 336 589 336 574 q 349 604 336 604 q 363 599 351 604 q 531 446 401 544 q 535 434 535 444 q 465 324 535 424 q 376 202 396 225 q 346 179 357 179 q 335 188 335 179 q 472 400 335 208 m 256 400 q 119 589 119 574 q 132 604 119 604 q 146 599 135 604 q 314 446 185 544 q 318 434 318 444 q 249 324 318 424 q 160 202 179 225 q 129 179 140 179 q 118 188 118 179 q 256 400 118 208 z "},"":{"ha":1107,"x_min":-1,"x_max":999,"o":"m 711 -96 q 688 -32 688 -96 q 724 128 688 32 q 611 146 658 146 q 464 104 564 146 q 447 109 454 101 q 440 134 440 117 q 458 158 440 151 q 506 169 476 164 q 642 260 550 193 q 760 342 735 326 q 949 488 929 447 l 957 499 q 971 504 961 504 q 999 489 999 504 q 997 486 999 486 l 851 275 q 768 142 803 203 q 858 122 829 122 q 908 136 888 122 q 932 176 932 157 q 929 206 932 196 q 935 215 926 215 q 949 207 943 215 q 964 156 964 181 q 863 99 964 99 q 754 119 819 99 q 715 -15 715 44 q 719 -58 715 -43 q 725 -81 724 -74 q 711 -96 725 -96 m 251 581 q 260 572 260 581 q 247 560 260 560 q 140 544 188 560 q 15 497 93 529 q 3 501 8 494 q -1 519 -1 508 q 13 536 -1 531 q 90 564 28 542 l 300 946 q 183 890 257 918 q 171 899 171 886 q 178 910 171 906 q 336 1010 233 931 l 340 1018 q 376 1033 350 1033 q 403 1021 403 1033 q 132 571 403 1018 q 251 581 185 581 m 292 192 q 286 161 286 172 q 293 147 286 150 q 295 136 300 143 q 277 129 290 129 q 264 157 264 129 q 287 245 264 185 q 500 563 310 306 q 710 814 690 814 q 726 806 718 814 q 722 782 735 799 q 465 459 608 651 q 292 192 321 267 m 564 178 q 635 182 606 182 q 736 154 665 182 q 893 407 769 231 q 721 290 838 374 q 564 178 604 206 z "},"":{"ha":1115,"x_min":-1,"x_max":1017,"o":"m 1017 449 q 939 306 1011 381 q 820 203 906 271 q 581 56 735 136 q 711 21 619 51 q 846 -10 803 -10 q 922 5 889 -10 q 954 47 954 19 q 903 99 954 81 q 897 106 897 103 q 911 113 897 117 q 981 46 981 92 q 939 -17 981 7 q 849 -40 897 -40 q 731 -17 801 -40 l 615 25 q 553 36 575 36 q 438 -4 458 -4 q 417 13 417 -4 q 438 44 417 29 q 528 67 471 67 q 560 65 543 67 q 816 232 761 189 q 903 314 871 275 q 949 424 943 363 q 893 469 949 469 q 759 433 838 469 q 635 357 681 397 q 624 354 629 354 q 618 363 618 354 q 624 374 618 372 q 778 467 683 425 q 944 508 872 508 q 1017 449 1017 508 m 251 581 q 260 572 260 581 q 247 560 260 560 q 140 544 188 560 q 15 497 93 529 q 3 501 8 494 q -1 519 -1 508 q 13 536 -1 531 q 90 564 28 542 l 300 946 q 183 890 257 918 q 171 899 171 886 q 178 910 171 906 q 336 1010 233 931 l 340 1018 q 376 1033 350 1033 q 403 1021 403 1033 q 132 571 403 1018 q 251 581 185 581 m 710 814 q 724 808 718 814 q 729 797 729 803 q 722 782 729 792 q 464 458 608 651 q 286 165 286 221 q 293 147 286 150 q 295 136 300 143 q 277 129 290 129 q 264 157 264 129 q 287 245 264 185 q 500 563 310 306 q 710 814 690 814 z "},"":{"ha":1269,"x_min":26,"x_max":1172,"o":"m 90 657 l 86 628 q 186 538 86 556 q 238 533 213 533 q 386 568 311 533 q 544 724 503 622 q 550 753 550 736 q 517 800 550 785 q 433 815 483 815 q 364 808 383 815 q 335 800 344 800 q 319 814 319 800 q 327 831 319 824 q 344 839 335 839 q 478 863 415 839 q 568 953 558 893 q 569 963 569 957 q 524 999 569 999 q 417 975 478 999 q 341 940 357 951 q 320 929 325 929 q 315 947 315 929 q 332 968 315 964 q 373 995 350 974 q 401 1017 396 1017 q 406 1010 406 1014 q 401 1000 406 1006 q 394 994 400 1000 q 543 1032 485 1032 q 622 957 625 1032 q 472 839 618 885 q 599 750 599 825 q 594 728 599 740 q 447 567 569 629 q 213 514 338 514 q 78 540 131 514 q 26 614 26 567 q 44 672 26 639 q 125 733 63 706 q 202 754 178 754 q 226 749 226 754 q 207 740 226 740 q 146 715 188 740 q 90 657 101 686 m 465 192 q 460 161 460 172 q 466 147 460 150 q 468 136 472 143 q 451 129 464 129 q 438 157 438 129 q 460 245 438 185 q 674 563 483 306 q 883 814 864 814 q 900 806 892 814 q 896 782 908 799 q 638 459 782 651 q 465 192 494 267 m 885 -96 q 861 -32 861 -96 q 897 128 861 32 q 785 146 832 146 q 638 104 738 146 q 621 109 628 101 q 614 134 614 117 q 632 158 614 151 q 679 169 650 164 q 816 260 724 193 q 933 342 908 326 q 1122 488 1103 447 l 1131 499 q 1144 504 1135 504 q 1172 489 1172 504 q 1171 486 1172 486 l 1025 275 q 942 142 976 203 q 1032 122 1003 122 q 1082 136 1061 122 q 1106 176 1106 157 q 1103 206 1106 196 q 1108 215 1100 215 q 1122 207 1117 215 q 1138 156 1138 181 q 1036 99 1138 99 q 928 119 992 99 q 889 -15 889 44 q 893 -58 889 -43 q 899 -81 897 -74 q 885 -96 899 -96 m 738 178 q 809 182 779 182 q 910 154 839 182 q 1067 407 943 231 q 894 290 1011 374 q 738 178 778 206 z "},"":{"ha":557,"x_min":-11,"x_max":481,"o":"m 474 351 q 419 311 474 311 q 381 325 400 311 q 363 356 363 339 q 380 387 363 374 q 418 400 397 400 q 456 385 439 400 q 474 351 474 371 m 218 -286 q -11 -154 -11 -286 q 63 -11 -11 -69 q 229 89 81 3 q 363 213 326 144 q 384 236 375 236 q 393 224 393 236 q 390 203 393 211 q 268 74 356 131 q 117 -29 143 -4 q 57 -129 57 -83 q 107 -202 57 -175 q 234 -229 157 -229 q 373 -193 311 -229 q 446 -87 435 -157 q 431 -53 449 -69 q 382 -37 414 -37 q 310 -79 350 -37 q 297 -79 300 -89 q 303 -58 293 -68 q 392 -11 349 -11 q 458 -33 436 -11 q 479 -83 479 -54 q 479 -90 479 -86 q 388 -235 471 -183 q 218 -286 306 -286 z "},"":{"ha":1417,"x_min":-1,"x_max":1636,"o":"m 1314 397 l 1449 400 q 1499 393 1499 400 q 1296 361 1499 375 q 1167 17 1167 108 q 1207 -47 1167 -47 q 1245 -28 1222 -47 q 1273 -10 1268 -10 q 1278 -17 1278 -10 q 1235 -58 1271 -42 q 1176 -75 1200 -75 q 1138 -72 1151 -75 q 1104 8 1104 -60 q 1211 365 1104 149 l 1044 361 q 671 42 858 179 q 232 -162 390 -162 q 213 -161 222 -162 q -1 58 -1 -143 q 74 311 -1 178 q 347 615 174 489 q 658 740 521 740 q 796 639 796 740 q 754 488 796 571 q 669 382 713 404 q 660 381 665 381 q 656 383 656 381 l 701 458 q 749 588 749 532 q 724 677 749 643 q 647 711 700 711 q 388 590 539 711 q 159 293 238 469 q 81 18 81 117 q 232 -131 81 -131 q 624 56 376 -131 q 981 365 733 138 q 890 356 932 363 q 807 361 801 339 q 860 413 813 413 q 1014 401 951 401 q 1371 761 1133 511 q 1565 929 1531 929 q 1581 906 1581 929 q 1568 832 1581 882 q 1540 771 1556 782 q 1481 710 1508 749 q 1401 567 1453 672 q 1314 397 1350 463 m 1425 736 l 1069 403 l 1151 403 q 1224 401 1181 401 q 1425 736 1264 481 m 1631 1021 q 1636 1010 1636 1017 q 1628 1004 1636 1004 q 1546 1049 1619 1004 q 1460 1102 1472 1093 q 1447 1128 1447 1111 q 1461 1146 1447 1146 q 1631 1021 1478 1146 z "},"":{"ha":1417,"x_min":-1,"x_max":1764,"o":"m 1314 397 l 1449 400 q 1499 393 1499 400 q 1296 361 1499 375 q 1167 17 1167 108 q 1207 -47 1167 -47 q 1245 -28 1222 -47 q 1273 -10 1268 -10 q 1278 -17 1278 -10 q 1235 -58 1271 -42 q 1176 -75 1200 -75 q 1138 -72 1151 -75 q 1104 8 1104 -60 q 1211 365 1104 149 l 1044 361 q 671 42 858 179 q 232 -162 390 -162 q 213 -161 222 -162 q -1 58 -1 -143 q 74 311 -1 178 q 347 615 174 489 q 658 740 521 740 q 796 639 796 740 q 754 488 796 571 q 669 382 713 404 q 660 381 665 381 q 656 383 656 381 l 701 458 q 749 588 749 532 q 724 677 749 643 q 647 711 700 711 q 388 590 539 711 q 159 293 238 469 q 81 18 81 117 q 232 -131 81 -131 q 624 56 376 -131 q 981 365 733 138 q 890 356 932 363 q 807 361 801 339 q 860 413 813 413 q 1014 401 951 401 q 1371 761 1133 511 q 1565 929 1531 929 q 1581 906 1581 929 q 1568 832 1581 882 q 1540 771 1556 782 q 1481 710 1508 749 q 1401 567 1453 672 q 1314 397 1350 463 m 1425 736 l 1069 403 l 1151 403 q 1224 401 1181 401 q 1425 736 1264 481 m 1668 1047 q 1632 1025 1668 1047 q 1586 1003 1596 1003 q 1576 1010 1576 1003 q 1582 1021 1576 1017 l 1728 1133 q 1753 1146 1742 1146 q 1764 1129 1764 1146 q 1753 1101 1764 1113 q 1668 1047 1740 1092 z "},"":{"ha":1417,"x_min":-1,"x_max":1735,"o":"m 1314 397 l 1449 400 q 1499 393 1499 400 q 1296 361 1499 375 q 1167 17 1167 108 q 1207 -47 1167 -47 q 1245 -28 1222 -47 q 1273 -10 1268 -10 q 1278 -17 1278 -10 q 1235 -58 1271 -42 q 1176 -75 1200 -75 q 1138 -72 1151 -75 q 1104 8 1104 -60 q 1211 365 1104 149 l 1044 361 q 671 42 858 179 q 232 -162 390 -162 q 213 -161 222 -162 q -1 58 -1 -143 q 74 311 -1 178 q 347 615 174 489 q 658 740 521 740 q 796 639 796 740 q 754 488 796 571 q 669 382 713 404 q 660 381 665 381 q 656 383 656 381 l 701 458 q 749 588 749 532 q 724 677 749 643 q 647 711 700 711 q 388 590 539 711 q 159 293 238 469 q 81 18 81 117 q 232 -131 81 -131 q 624 56 376 -131 q 981 365 733 138 q 890 356 932 363 q 807 361 801 339 q 860 413 813 413 q 1014 401 951 401 q 1371 761 1133 511 q 1565 929 1531 929 q 1581 906 1581 929 q 1568 832 1581 882 q 1540 771 1556 782 q 1481 710 1508 749 q 1401 567 1453 672 q 1314 397 1350 463 m 1425 736 l 1069 403 l 1151 403 q 1224 401 1181 401 q 1425 736 1264 481 m 1422 990 q 1392 1000 1392 982 q 1406 1017 1392 1004 q 1543 1108 1511 1081 q 1593 1143 1585 1143 q 1672 1078 1614 1143 q 1733 1006 1731 1014 q 1735 996 1735 999 q 1724 982 1735 982 q 1664 1026 1713 982 q 1585 1089 1615 1071 q 1538 1060 1576 1083 q 1467 1014 1500 1036 q 1422 990 1433 992 z "},"":{"ha":1417,"x_min":-1,"x_max":1775,"o":"m 1314 397 l 1449 400 q 1499 393 1499 400 q 1296 361 1499 375 q 1167 17 1167 108 q 1207 -47 1167 -47 q 1245 -28 1222 -47 q 1273 -10 1268 -10 q 1278 -17 1278 -10 q 1235 -58 1271 -42 q 1176 -75 1200 -75 q 1138 -72 1151 -75 q 1104 8 1104 -60 q 1211 365 1104 149 l 1044 361 q 671 42 858 179 q 232 -162 390 -162 q 213 -161 222 -162 q -1 58 -1 -143 q 74 311 -1 178 q 347 615 174 489 q 658 740 521 740 q 796 639 796 740 q 754 488 796 571 q 669 382 713 404 q 660 381 665 381 q 656 383 656 381 l 701 458 q 749 588 749 532 q 724 677 749 643 q 647 711 700 711 q 388 590 539 711 q 159 293 238 469 q 81 18 81 117 q 232 -131 81 -131 q 624 56 376 -131 q 981 365 733 138 q 890 356 932 363 q 807 361 801 339 q 860 413 813 413 q 1014 401 951 401 q 1371 761 1133 511 q 1565 929 1531 929 q 1581 906 1581 929 q 1568 832 1581 882 q 1540 771 1556 782 q 1481 710 1508 749 q 1401 567 1453 672 q 1314 397 1350 463 m 1425 736 l 1069 403 l 1151 403 q 1224 401 1181 401 q 1425 736 1264 481 m 1775 1110 q 1719 1051 1775 1089 q 1678 1040 1701 1040 q 1610 1059 1656 1040 q 1542 1078 1565 1078 q 1497 1060 1519 1078 q 1468 1042 1475 1042 q 1467 1044 1467 1043 q 1526 1101 1467 1067 q 1573 1115 1549 1115 q 1641 1101 1597 1115 q 1713 1086 1685 1086 q 1767 1115 1742 1086 q 1775 1110 1775 1115 z "},"":{"ha":1417,"x_min":-1,"x_max":1769,"o":"m 1314 397 l 1449 400 q 1499 393 1499 400 q 1296 361 1499 375 q 1167 17 1167 108 q 1207 -47 1167 -47 q 1245 -28 1222 -47 q 1273 -10 1268 -10 q 1278 -17 1278 -10 q 1235 -58 1271 -42 q 1176 -75 1200 -75 q 1138 -72 1151 -75 q 1104 8 1104 -60 q 1211 365 1104 149 l 1044 361 q 671 42 858 179 q 232 -162 390 -162 q 213 -161 222 -162 q -1 58 -1 -143 q 74 311 -1 178 q 347 615 174 489 q 658 740 521 740 q 796 639 796 740 q 754 488 796 571 q 669 382 713 404 q 660 381 665 381 q 656 383 656 381 l 701 458 q 749 588 749 532 q 724 677 749 643 q 647 711 700 711 q 388 590 539 711 q 159 293 238 469 q 81 18 81 117 q 232 -131 81 -131 q 624 56 376 -131 q 981 365 733 138 q 890 356 932 363 q 807 361 801 339 q 860 413 813 413 q 1014 401 951 401 q 1371 761 1133 511 q 1565 929 1531 929 q 1581 906 1581 929 q 1568 832 1581 882 q 1540 771 1556 782 q 1481 710 1508 749 q 1401 567 1453 672 q 1314 397 1350 463 m 1425 736 l 1069 403 l 1151 403 q 1224 401 1181 401 q 1425 736 1264 481 m 1768 1142 q 1749 1117 1767 1142 l 1726 1061 q 1689 1024 1710 1024 q 1669 1038 1679 1024 q 1660 1069 1660 1053 q 1700 1114 1660 1085 q 1764 1143 1742 1143 l 1768 1142 m 1521 1024 q 1501 1038 1511 1024 q 1492 1069 1492 1053 q 1532 1114 1492 1085 q 1596 1143 1574 1143 q 1600 1142 1597 1143 q 1581 1117 1599 1142 l 1558 1061 q 1521 1024 1542 1024 m 1769 1142 l 1769 1140 l 1768 1142 l 1769 1142 m 1601 1142 l 1601 1140 l 1600 1142 l 1601 1142 z "},"":{"ha":1417,"x_min":-1,"x_max":1704,"o":"m 981 365 q 890 356 932 363 q 807 361 801 339 q 860 413 813 413 q 1014 401 951 401 q 1371 761 1133 511 q 1542 919 1492 889 q 1519 965 1519 932 q 1535 1031 1519 997 q 1574 1071 1550 1064 q 1644 1115 1597 1115 q 1687 1094 1669 1115 q 1704 1033 1704 1072 q 1665 953 1704 993 q 1579 913 1625 913 q 1581 895 1581 908 q 1568 832 1581 882 q 1540 771 1556 782 q 1481 710 1508 749 q 1401 567 1453 672 q 1314 397 1350 463 l 1449 400 q 1499 393 1499 400 q 1296 361 1499 375 q 1167 17 1167 108 q 1207 -47 1167 -47 q 1245 -28 1222 -47 q 1273 -10 1268 -10 q 1278 -17 1278 -10 q 1235 -58 1271 -42 q 1176 -75 1200 -75 q 1138 -72 1151 -75 q 1104 8 1104 -60 q 1211 365 1104 149 l 1044 361 q 671 42 858 179 q 232 -162 390 -162 q 213 -161 222 -162 q -1 58 -1 -143 q 74 311 -1 178 q 347 615 174 489 q 658 740 521 740 q 796 639 796 740 q 754 488 796 571 q 669 382 713 404 q 660 381 665 381 q 656 383 656 381 l 701 458 q 749 588 749 532 q 724 677 749 643 q 647 711 700 711 q 388 590 539 711 q 159 293 238 469 q 81 18 81 117 q 232 -131 81 -131 q 624 56 376 -131 q 981 365 733 138 m 1425 736 l 1069 403 l 1151 403 q 1224 401 1181 401 q 1425 736 1264 481 m 1592 939 q 1647 972 1624 939 q 1671 1047 1671 1004 q 1640 1090 1671 1090 q 1600 1072 1624 1090 l 1615 1064 q 1592 1027 1614 1060 q 1571 967 1571 994 q 1592 939 1571 939 z "},"":{"ha":1944,"x_min":-1,"x_max":2064,"o":"m 1571 842 q 1888 922 1726 922 q 2015 897 1967 922 q 2063 817 2063 871 q 2023 727 2063 764 q 1940 690 1983 690 q 1897 711 1897 690 q 1915 724 1897 724 l 1943 719 q 1994 749 1971 719 q 2017 811 2017 779 q 1963 881 2017 858 q 1897 894 1928 894 q 1854 893 1867 894 q 1621 810 1736 886 q 1488 613 1488 722 q 1515 538 1488 572 q 1685 565 1604 565 q 1821 514 1821 565 q 1813 489 1821 503 q 1692 438 1779 438 q 1576 458 1635 438 q 1485 500 1517 478 q 1332 433 1447 489 l 1314 397 q 1228 104 1228 229 q 1249 13 1228 50 q 1347 -56 1282 -46 q 1407 -60 1372 -60 q 1505 -47 1442 -60 q 1640 1 1568 -35 q 1756 76 1711 36 q 1865 281 1865 174 q 1783 365 1865 365 q 1557 260 1685 365 q 1503 193 1525 233 q 1481 114 1481 153 q 1519 65 1481 75 q 1533 51 1533 60 q 1506 40 1533 38 q 1439 128 1439 42 q 1526 289 1439 214 q 1779 392 1646 392 q 1878 361 1839 392 q 1917 271 1917 331 q 1774 28 1917 136 q 1649 -40 1724 -10 q 1415 -86 1536 -86 q 1332 -79 1372 -86 q 1208 -10 1258 -67 q 1153 158 1153 53 q 1171 269 1153 207 q 1211 365 1190 335 l 1044 361 q 671 42 858 179 q 232 -162 390 -162 q 213 -161 222 -162 q -1 58 -1 -143 q 74 311 -1 178 q 347 615 174 489 q 658 740 521 740 q 796 639 796 740 q 754 488 796 571 q 669 382 713 404 q 660 381 665 381 q 656 383 656 381 l 701 458 q 749 588 749 532 q 724 677 749 643 q 647 711 700 711 q 388 590 539 711 q 159 293 238 469 q 81 18 81 117 q 232 -131 81 -131 q 624 56 376 -131 q 981 365 733 138 q 890 356 932 363 q 807 361 801 339 q 860 413 813 413 q 1014 401 951 401 q 1371 761 1133 511 q 1565 929 1531 929 q 1581 903 1581 929 q 1571 842 1581 876 m 1425 736 l 1069 403 l 1151 403 q 1224 401 1181 401 q 1425 736 1264 481 m 1539 515 q 1676 468 1597 468 q 1754 511 1754 468 q 1685 531 1754 531 q 1539 515 1615 531 m 1419 603 q 1360 485 1364 493 q 1461 522 1399 501 q 1419 603 1428 558 z "},"":{"ha":1008,"x_min":43,"x_max":1107,"o":"m 317 -294 q 249 -394 317 -358 q 110 -431 182 -431 q 97 -417 97 -431 q 110 -406 97 -408 q 210 -390 176 -394 q 258 -310 258 -375 q 222 -239 258 -290 q 186 -161 186 -187 q 221 -67 186 -101 q 43 215 43 3 q 251 647 43 428 q 525 835 367 768 q 825 903 683 903 q 956 885 900 903 q 1107 694 1107 838 q 1056 543 1107 607 q 751 386 928 386 q 611 424 668 386 q 554 521 554 463 q 650 668 554 594 q 675 681 667 681 q 683 675 683 681 q 661 653 683 661 q 583 526 583 590 q 625 449 583 481 q 729 418 667 418 q 986 549 865 418 q 1049 706 1049 617 q 982 838 1049 794 q 832 876 926 876 q 558 808 696 876 q 252 553 389 726 q 115 221 115 381 q 201 26 115 94 q 415 -43 288 -43 q 701 28 561 -43 q 886 169 808 83 q 921 194 908 194 q 929 180 929 194 q 914 150 929 165 q 701 0 840 72 q 367 -90 531 -90 q 256 -78 308 -90 q 236 -136 236 -104 q 276 -204 236 -151 q 317 -294 317 -257 z "},"":{"ha":960,"x_min":4,"x_max":1079,"o":"m 700 565 q 836 514 836 565 q 828 489 836 503 q 707 438 794 438 q 590 458 650 438 q 500 500 531 478 q 270 385 371 463 q 119 208 169 307 q 93 106 93 156 q 158 -21 93 28 q 347 -69 222 -69 q 419 -65 382 -69 q 771 76 640 -42 q 881 281 881 174 q 799 365 881 365 q 572 260 700 365 q 518 193 540 233 q 496 114 496 153 q 535 65 496 75 q 549 51 549 60 q 521 40 549 38 q 454 128 454 42 q 542 289 454 214 q 794 392 661 392 q 921 329 894 392 q 932 271 932 300 q 789 28 932 142 q 356 -111 618 -111 q 99 -51 193 -111 q 4 107 4 10 q 40 221 4 164 q 476 522 168 424 q 431 635 431 575 q 460 735 431 694 q 631 863 517 813 q 903 922 767 922 q 1030 897 982 922 q 1078 817 1078 871 q 1038 727 1078 764 q 956 690 999 690 q 913 711 913 690 q 931 724 913 724 l 958 719 q 1009 749 986 719 q 1032 811 1032 779 q 978 881 1032 858 q 913 894 943 894 q 869 893 882 894 q 636 810 750 886 q 503 613 503 722 q 531 538 503 572 q 700 565 619 565 m 554 515 q 692 468 614 468 q 769 511 769 468 q 700 531 769 531 q 554 515 631 531 m 985 1006 q 990 995 990 1001 q 982 989 990 989 q 900 1033 974 989 q 815 1087 826 1078 q 803 1113 803 1096 q 815 1131 803 1131 q 985 1006 835 1131 z "},"":{"ha":960,"x_min":4,"x_max":1085,"o":"m 700 565 q 836 514 836 565 q 828 489 836 503 q 707 438 794 438 q 590 458 650 438 q 500 500 531 478 q 270 385 371 463 q 119 208 169 307 q 93 106 93 156 q 158 -21 93 28 q 347 -69 222 -69 q 419 -65 382 -69 q 771 76 640 -42 q 881 281 881 174 q 799 365 881 365 q 572 260 700 365 q 518 193 540 233 q 496 114 496 153 q 535 65 496 75 q 549 51 549 60 q 521 40 549 38 q 454 128 454 42 q 542 289 454 214 q 794 392 661 392 q 921 329 894 392 q 932 271 932 300 q 789 28 932 142 q 356 -111 618 -111 q 99 -51 193 -111 q 4 107 4 10 q 40 221 4 164 q 476 522 168 424 q 431 635 431 575 q 460 735 431 694 q 631 863 517 813 q 903 922 767 922 q 1030 897 982 922 q 1078 817 1078 871 q 1038 727 1078 764 q 956 690 999 690 q 913 711 913 690 q 931 724 913 724 l 958 719 q 1009 749 986 719 q 1032 811 1032 779 q 978 881 1032 858 q 913 894 943 894 q 869 893 882 894 q 636 810 750 886 q 503 613 503 722 q 531 538 503 572 q 700 565 619 565 m 554 515 q 692 468 614 468 q 769 511 769 468 q 700 531 769 531 q 554 515 631 531 m 989 1047 q 953 1025 989 1047 q 907 1003 917 1003 q 897 1010 897 1003 q 903 1021 897 1017 l 1049 1133 q 1072 1146 1064 1146 q 1085 1129 1085 1146 q 1074 1101 1085 1113 q 989 1047 1061 1092 z "},"":{"ha":960,"x_min":4,"x_max":1144,"o":"m 700 565 q 836 514 836 565 q 828 489 836 503 q 707 438 794 438 q 590 458 650 438 q 500 500 531 478 q 270 385 371 463 q 119 208 169 307 q 93 106 93 156 q 158 -21 93 28 q 347 -69 222 -69 q 419 -65 382 -69 q 771 76 640 -42 q 881 281 881 174 q 799 365 881 365 q 572 260 700 365 q 518 193 540 233 q 496 114 496 153 q 535 65 496 75 q 549 51 549 60 q 521 40 549 38 q 454 128 454 42 q 542 289 454 214 q 794 392 661 392 q 921 329 894 392 q 932 271 932 300 q 789 28 932 142 q 356 -111 618 -111 q 99 -51 193 -111 q 4 107 4 10 q 40 221 4 164 q 476 522 168 424 q 431 635 431 575 q 460 735 431 694 q 631 863 517 813 q 903 922 767 922 q 1030 897 982 922 q 1078 817 1078 871 q 1038 727 1078 764 q 956 690 999 690 q 913 711 913 690 q 931 724 913 724 l 958 719 q 1009 749 986 719 q 1032 811 1032 779 q 978 881 1032 858 q 913 894 943 894 q 869 893 882 894 q 636 810 750 886 q 503 613 503 722 q 531 538 503 572 q 700 565 619 565 m 554 515 q 692 468 614 468 q 769 511 769 468 q 700 531 769 531 q 554 515 631 531 m 832 993 q 801 1003 801 985 q 815 1019 801 1007 q 953 1111 921 1083 q 1003 1146 994 1146 q 1082 1081 1024 1146 q 1142 1009 1140 1017 q 1144 999 1144 1001 q 1133 985 1144 985 q 1074 1029 1122 985 q 994 1092 1025 1074 q 948 1063 986 1086 q 876 1017 910 1039 q 832 993 843 994 z "},"":{"ha":960,"x_min":4,"x_max":1139,"o":"m 700 565 q 836 514 836 565 q 828 489 836 503 q 707 438 794 438 q 590 458 650 438 q 500 500 531 478 q 270 385 371 463 q 119 208 169 307 q 93 106 93 156 q 158 -21 93 28 q 347 -69 222 -69 q 419 -65 382 -69 q 771 76 640 -42 q 881 281 881 174 q 799 365 881 365 q 572 260 700 365 q 518 193 540 233 q 496 114 496 153 q 535 65 496 75 q 549 51 549 60 q 521 40 549 38 q 454 128 454 42 q 542 289 454 214 q 794 392 661 392 q 921 329 894 392 q 932 271 932 300 q 789 28 932 142 q 356 -111 618 -111 q 99 -51 193 -111 q 4 107 4 10 q 40 221 4 164 q 476 522 168 424 q 431 635 431 575 q 460 735 431 694 q 631 863 517 813 q 903 922 767 922 q 1030 897 982 922 q 1078 817 1078 871 q 1038 727 1078 764 q 956 690 999 690 q 913 711 913 690 q 931 724 913 724 l 958 719 q 1009 749 986 719 q 1032 811 1032 779 q 978 881 1032 858 q 913 894 943 894 q 869 893 882 894 q 636 810 750 886 q 503 613 503 722 q 531 538 503 572 q 700 565 619 565 m 554 515 q 692 468 614 468 q 769 511 769 468 q 700 531 769 531 q 554 515 631 531 m 1138 1101 q 1118 1076 1136 1101 l 1096 1021 q 1058 983 1079 983 q 1039 998 1049 983 q 1029 1028 1029 1013 q 1069 1074 1029 1044 q 1133 1103 1111 1103 l 1138 1101 m 965 1103 l 969 1101 q 950 1076 968 1101 l 928 1021 q 890 983 911 983 q 871 998 881 983 q 861 1028 861 1013 q 901 1074 861 1044 q 965 1103 943 1103 m 1139 1101 l 1139 1100 l 1138 1101 l 1139 1101 m 971 1100 q 969 1101 971 1101 l 971 1101 l 971 1100 z "},"":{"ha":800,"x_min":28,"x_max":1217,"o":"m 992 550 l 982 588 q 993 599 982 599 q 1004 594 997 599 q 1036 532 1036 571 q 986 456 1036 493 q 860 419 936 419 q 813 424 836 419 q 579 99 717 247 q 246 -96 396 -96 q 29 160 29 -96 q 142 500 29 371 q 358 611 236 611 q 424 600 390 611 q 506 465 506 568 q 421 249 506 361 q 247 136 336 136 q 147 244 147 136 q 160 308 147 275 q 190 342 174 342 q 203 329 203 342 q 190 294 203 322 q 178 245 178 267 q 201 205 178 224 q 249 186 224 186 q 401 287 331 186 q 471 483 471 388 q 418 581 471 557 q 381 588 400 588 q 183 451 282 588 q 88 150 88 314 q 126 3 88 60 q 238 -56 167 -56 q 715 443 421 -56 q 563 624 563 489 q 744 910 563 803 q 968 976 860 976 q 1121 949 1053 976 q 1217 835 1217 911 q 1209 803 1217 818 q 1193 788 1201 788 q 1150 806 1175 806 q 826 454 1032 806 q 850 453 838 453 q 944 481 897 453 q 992 550 992 508 m 1001 938 q 966 938 1001 938 q 838 897 931 938 q 691 776 746 856 q 636 597 636 697 q 739 478 636 497 q 936 727 815 603 q 1138 851 1057 851 q 1174 842 1158 851 q 1119 910 1172 881 q 1001 938 1072 938 m 1201 1021 q 1207 1010 1207 1017 q 1199 1004 1207 1004 q 1117 1049 1190 1004 q 1031 1102 1043 1093 q 1018 1128 1018 1111 q 1032 1146 1018 1146 q 1201 1021 1049 1146 z "},"":{"ha":800,"x_min":28,"x_max":1247,"o":"m 992 550 l 982 588 q 993 599 982 599 q 1004 594 997 599 q 1036 532 1036 571 q 986 456 1036 493 q 860 419 936 419 q 813 424 836 419 q 579 99 717 247 q 246 -96 396 -96 q 29 160 29 -96 q 142 500 29 371 q 358 611 236 611 q 424 600 390 611 q 506 465 506 568 q 421 249 506 361 q 247 136 336 136 q 147 244 147 136 q 160 308 147 275 q 190 342 174 342 q 203 329 203 342 q 190 294 203 322 q 178 245 178 267 q 201 205 178 224 q 249 186 224 186 q 401 287 331 186 q 471 483 471 388 q 418 581 471 557 q 381 588 400 588 q 183 451 282 588 q 88 150 88 314 q 126 3 88 60 q 238 -56 167 -56 q 715 443 421 -56 q 563 624 563 489 q 744 910 563 803 q 968 976 860 976 q 1121 949 1053 976 q 1217 835 1217 911 q 1209 803 1217 818 q 1193 788 1201 788 q 1150 806 1175 806 q 826 454 1032 806 q 850 453 838 453 q 944 481 897 453 q 992 550 992 508 m 1001 938 q 966 938 1001 938 q 838 897 931 938 q 691 776 746 856 q 636 597 636 697 q 739 478 636 497 q 936 727 815 603 q 1138 851 1057 851 q 1174 842 1158 851 q 1119 910 1172 881 q 1001 938 1072 938 m 1151 1047 q 1115 1025 1151 1047 q 1069 1003 1079 1003 q 1060 1010 1060 1003 q 1065 1021 1060 1017 l 1211 1133 q 1236 1146 1225 1146 q 1247 1129 1247 1146 q 1236 1101 1247 1113 q 1151 1047 1224 1092 z "},"":{"ha":800,"x_min":28,"x_max":1257,"o":"m 992 550 l 982 588 q 993 599 982 599 q 1004 594 997 599 q 1036 532 1036 571 q 986 456 1036 493 q 860 419 936 419 q 813 424 836 419 q 579 99 717 247 q 246 -96 396 -96 q 29 160 29 -96 q 142 500 29 371 q 358 611 236 611 q 424 600 390 611 q 506 465 506 568 q 421 249 506 361 q 247 136 336 136 q 147 244 147 136 q 160 308 147 275 q 190 342 174 342 q 203 329 203 342 q 190 294 203 322 q 178 245 178 267 q 201 205 178 224 q 249 186 224 186 q 401 287 331 186 q 471 483 471 388 q 418 581 471 557 q 381 588 400 588 q 183 451 282 588 q 88 150 88 314 q 126 3 88 60 q 238 -56 167 -56 q 715 443 421 -56 q 563 624 563 489 q 744 910 563 803 q 968 976 860 976 q 1121 949 1053 976 q 1217 835 1217 911 q 1209 803 1217 818 q 1193 788 1201 788 q 1150 806 1175 806 q 826 454 1032 806 q 850 453 838 453 q 944 481 897 453 q 992 550 992 508 m 1001 938 q 966 938 1001 938 q 838 897 931 938 q 691 776 746 856 q 636 597 636 697 q 739 478 636 497 q 936 727 815 603 q 1138 851 1057 851 q 1174 842 1158 851 q 1119 910 1172 881 q 1001 938 1072 938 m 944 993 q 914 1003 914 985 q 928 1019 914 1007 q 1065 1111 1033 1083 q 1115 1146 1107 1146 q 1194 1081 1136 1146 q 1255 1009 1253 1017 q 1257 999 1257 1001 q 1246 985 1257 985 q 1186 1029 1235 985 q 1107 1092 1138 1074 q 1060 1063 1099 1086 q 989 1017 1022 1039 q 944 993 956 994 z "},"":{"ha":800,"x_min":28,"x_max":1221,"o":"m 992 550 l 982 588 q 993 599 982 599 q 1004 594 997 599 q 1036 532 1036 571 q 986 456 1036 493 q 860 419 936 419 q 813 424 836 419 q 579 99 717 247 q 246 -96 396 -96 q 29 160 29 -96 q 142 500 29 371 q 358 611 236 611 q 424 600 390 611 q 506 465 506 568 q 421 249 506 361 q 247 136 336 136 q 147 244 147 136 q 160 308 147 275 q 190 342 174 342 q 203 329 203 342 q 190 294 203 322 q 178 245 178 267 q 201 205 178 224 q 249 186 224 186 q 401 287 331 186 q 471 483 471 388 q 418 581 471 557 q 381 588 400 588 q 183 451 282 588 q 88 150 88 314 q 126 3 88 60 q 238 -56 167 -56 q 715 443 421 -56 q 563 624 563 489 q 744 910 563 803 q 968 976 860 976 q 1121 949 1053 976 q 1217 835 1217 911 q 1209 803 1217 818 q 1193 788 1201 788 q 1150 806 1175 806 q 826 454 1032 806 q 850 453 838 453 q 944 481 897 453 q 992 550 992 508 m 1001 938 q 966 938 1001 938 q 838 897 931 938 q 691 776 746 856 q 636 597 636 697 q 739 478 636 497 q 936 727 815 603 q 1138 851 1057 851 q 1174 842 1158 851 q 1119 910 1172 881 q 1001 938 1072 938 m 1140 1026 q 1121 1041 1131 1026 q 1111 1072 1111 1056 q 1151 1117 1111 1088 q 1215 1146 1193 1146 q 1219 1144 1217 1146 q 1200 1119 1218 1144 l 1178 1064 q 1140 1026 1161 1026 m 1051 1144 q 1032 1119 1050 1144 l 1010 1064 q 972 1026 993 1026 q 953 1041 963 1026 q 943 1072 943 1056 q 983 1117 943 1088 q 1047 1146 1025 1146 l 1051 1144 m 1221 1144 l 1221 1143 l 1219 1144 l 1221 1144 m 1053 1144 l 1053 1143 l 1051 1144 l 1053 1144 z "},"":{"ha":1279,"x_min":21,"x_max":1286,"o":"m 731 385 q 551 335 731 360 q 294 63 433 178 q 539 -53 372 -53 q 593 -50 557 -53 q 1140 285 979 -14 q 1206 521 1206 404 q 1121 731 1206 638 q 973 825 1053 807 q 810 843 893 843 q 415 744 596 843 q 225 511 225 640 q 244 454 225 476 q 269 429 263 432 l 261 429 q 197 465 225 436 q 167 542 167 501 q 341 781 167 681 q 750 881 515 881 q 972 856 858 881 q 1179 736 1086 831 q 1286 485 1286 625 q 1225 269 1286 381 q 910 -11 1119 78 q 547 -82 742 -82 q 260 35 353 -82 q 81 -60 138 -60 q 35 -30 50 -60 q 21 35 21 0 q 77 235 21 101 q 185 368 133 368 q 230 264 211 368 q 268 113 249 160 q 442 318 331 176 q 404 322 425 318 q 360 351 360 331 q 372 375 360 365 q 392 385 383 385 q 408 386 400 385 l 496 386 l 542 446 q 840 769 767 742 q 892 779 865 779 q 935 768 918 779 q 953 740 953 757 q 913 713 953 717 q 763 585 864 686 q 589 385 667 492 q 729 389 681 385 q 731 385 731 388 m 71 40 q 88 -35 71 -3 q 232 75 147 -8 q 181 180 192 142 q 167 281 171 218 q 71 40 71 143 m 269 429 q 272 431 271 429 q 272 428 272 428 q 269 429 271 428 z "},"":{"ha":1285,"x_min":3,"x_max":1529,"o":"m 558 17 q 525 -51 525 -35 q 538 -72 525 -67 q 515 -90 538 -75 q 451 -104 492 -104 q 411 -83 411 -104 q 548 156 411 -47 q 728 438 685 360 q 822 706 822 607 q 807 778 822 744 q 693 828 783 828 q 342 676 528 828 q 124 435 200 560 q 54 224 54 317 q 178 88 54 90 q 189 88 183 88 q 438 203 353 88 q 471 281 471 249 q 456 321 471 313 q 454 326 454 322 q 463 331 454 331 q 499 283 499 331 q 471 204 499 254 q 370 110 443 154 q 204 65 297 65 q 57 119 111 65 q 3 265 3 174 q 300 721 3 482 q 495 821 375 781 q 713 861 615 861 q 851 824 811 861 q 892 722 892 788 q 700 274 892 564 q 840 411 743 328 q 1435 793 1186 701 q 1463 799 1447 799 q 1529 739 1515 799 q 1463 640 1536 715 q 1168 251 1289 463 q 1047 -51 1047 40 q 1056 -83 1047 -74 q 1082 -88 1064 -92 q 1158 -60 1100 -85 q 1233 -31 1215 -35 q 1240 -37 1240 -33 q 1167 -96 1240 -58 q 1058 -133 1094 -133 q 1013 -121 1022 -133 q 988 -33 988 -86 q 1115 310 988 86 q 1368 688 1197 450 q 890 396 1183 671 q 558 17 657 175 m 1418 1017 q 1363 958 1418 996 q 1322 947 1344 947 q 1253 966 1299 947 q 1185 985 1208 985 q 1140 967 1163 985 q 1111 949 1118 949 q 1110 951 1110 950 q 1169 1008 1110 974 q 1216 1022 1192 1022 q 1284 1008 1240 1022 q 1356 993 1328 993 q 1410 1022 1385 993 q 1418 1017 1418 1022 z "},"":{"ha":1089,"x_min":33,"x_max":1156,"o":"m 1128 494 q 950 163 1128 321 q 338 -82 676 -82 q 279 -81 300 -82 q 101 -8 168 -75 q 33 167 33 60 q 90 400 33 274 q 372 711 163 560 q 872 883 614 883 q 1083 829 1011 883 q 1156 694 1156 775 q 1117 571 1156 644 q 1128 494 1128 533 m 1099 613 q 1113 687 1113 646 q 1082 771 1113 728 q 871 854 1022 854 q 475 724 661 854 q 185 397 289 594 q 108 140 108 254 q 293 -53 108 -43 q 332 -54 313 -54 q 853 167 606 -54 q 1044 468 1031 325 q 794 279 972 389 l 783 276 q 782 278 782 276 q 819 315 782 283 l 897 379 q 1043 522 997 467 q 973 652 1033 600 q 835 728 913 704 q 715 740 796 738 q 633 746 633 743 q 636 751 633 749 q 759 772 700 772 q 894 754 818 772 q 1099 613 1040 719 m 1097 993 q 1103 983 1103 989 q 1094 976 1103 976 q 1013 1021 1086 976 q 926 1074 939 1065 q 914 1101 914 1083 q 928 1118 914 1118 q 1097 993 944 1118 z "},"":{"ha":1089,"x_min":33,"x_max":1156,"o":"m 1128 494 q 950 163 1128 321 q 338 -82 676 -82 q 279 -81 300 -82 q 101 -8 168 -75 q 33 167 33 60 q 90 400 33 274 q 372 711 163 560 q 872 883 614 883 q 1083 829 1011 883 q 1156 694 1156 775 q 1117 571 1156 644 q 1128 494 1128 533 m 1099 613 q 1113 687 1113 646 q 1082 771 1113 728 q 871 854 1022 854 q 475 724 661 854 q 185 397 289 594 q 108 140 108 254 q 293 -53 108 -43 q 332 -54 313 -54 q 853 167 606 -54 q 1044 468 1031 325 q 794 279 972 389 l 783 276 q 782 278 782 276 q 819 315 782 283 l 897 379 q 1043 522 997 467 q 973 652 1033 600 q 835 728 913 704 q 715 740 796 738 q 633 746 633 743 q 636 751 633 749 q 759 772 700 772 q 894 754 818 772 q 1099 613 1040 719 m 1017 1019 q 981 997 1017 1019 q 935 975 944 975 q 925 982 925 975 q 931 993 925 989 l 1076 1106 q 1100 1118 1092 1118 q 1113 1101 1113 1118 q 1101 1074 1113 1085 q 1017 1019 1089 1064 z "},"":{"ha":1089,"x_min":33,"x_max":1176,"o":"m 1128 494 q 950 163 1128 321 q 338 -82 676 -82 q 279 -81 300 -82 q 101 -8 168 -75 q 33 167 33 60 q 90 400 33 274 q 372 711 163 560 q 872 883 614 883 q 1083 829 1011 883 q 1156 694 1156 775 q 1117 571 1156 644 q 1128 494 1128 533 m 1099 613 q 1113 687 1113 646 q 1082 771 1113 728 q 871 854 1022 854 q 475 724 661 854 q 185 397 289 594 q 108 140 108 254 q 293 -53 108 -43 q 332 -54 313 -54 q 853 167 606 -54 q 1044 468 1031 325 q 794 279 972 389 l 783 276 q 782 278 782 276 q 819 315 782 283 l 897 379 q 1043 522 997 467 q 973 652 1033 600 q 835 728 913 704 q 715 740 796 738 q 633 746 633 743 q 636 751 633 749 q 759 772 700 772 q 894 754 818 772 q 1099 613 1040 719 m 799 953 q 792 958 792 954 q 807 976 792 964 q 1024 1125 958 1069 l 1033 1129 q 1117 1057 1050 1128 q 1175 974 1175 990 q 1163 958 1175 958 q 1102 997 1147 958 q 1024 1072 1057 1036 q 977 1043 1015 1067 q 890 988 939 1019 q 799 953 842 956 z "},"":{"ha":1089,"x_min":33,"x_max":1169,"o":"m 1128 494 q 950 163 1128 321 q 338 -82 676 -82 q 279 -81 300 -82 q 101 -8 168 -75 q 33 167 33 60 q 90 400 33 274 q 372 711 163 560 q 872 883 614 883 q 1083 829 1011 883 q 1156 694 1156 775 q 1117 571 1156 644 q 1128 494 1128 533 m 1099 613 q 1113 687 1113 646 q 1082 771 1113 728 q 871 854 1022 854 q 475 724 661 854 q 185 397 289 594 q 108 140 108 254 q 293 -53 108 -43 q 332 -54 313 -54 q 853 167 606 -54 q 1044 468 1031 325 q 794 279 972 389 l 783 276 q 782 278 782 276 q 819 315 782 283 l 897 379 q 1043 522 997 467 q 973 652 1033 600 q 835 728 913 704 q 715 740 796 738 q 633 746 633 743 q 636 751 633 749 q 759 772 700 772 q 894 754 818 772 q 1099 613 1040 719 m 1169 1017 q 1114 958 1169 996 q 1073 947 1096 947 q 1005 966 1050 947 q 937 985 960 985 q 892 967 914 985 q 863 949 869 949 q 861 951 861 950 q 921 1008 861 974 q 967 1022 943 1022 q 1035 1008 992 1022 q 1108 993 1079 993 q 1161 1022 1136 993 q 1169 1017 1169 1022 z "},"":{"ha":1089,"x_min":33,"x_max":1156,"o":"m 1128 494 q 950 163 1128 321 q 338 -82 676 -82 q 279 -81 300 -82 q 101 -8 168 -75 q 33 167 33 60 q 90 400 33 274 q 372 711 163 560 q 872 883 614 883 q 1083 829 1011 883 q 1156 694 1156 775 q 1117 571 1156 644 q 1128 494 1128 533 m 1099 613 q 1113 687 1113 646 q 1082 771 1113 728 q 871 854 1022 854 q 475 724 661 854 q 185 397 289 594 q 108 140 108 254 q 293 -53 108 -43 q 332 -54 313 -54 q 853 167 606 -54 q 1044 468 1031 325 q 794 279 972 389 l 783 276 q 782 278 782 276 q 819 315 782 283 l 897 379 q 1043 522 997 467 q 973 652 1033 600 q 835 728 913 704 q 715 740 796 738 q 633 746 633 743 q 636 751 633 749 q 759 772 700 772 q 894 754 818 772 q 1099 613 1040 719 m 1132 1094 q 1113 1069 1131 1094 l 1090 1014 q 1053 976 1074 976 q 1033 991 1043 976 q 1024 1022 1024 1006 q 1064 1067 1024 1038 q 1128 1096 1106 1096 l 1132 1094 m 885 976 q 865 991 875 976 q 856 1022 856 1006 q 896 1067 856 1038 q 960 1096 938 1096 q 964 1094 961 1096 q 944 1069 963 1094 l 922 1014 q 885 976 906 976 m 1133 1094 l 1133 1093 l 1132 1094 l 1133 1094 m 965 1094 l 965 1093 l 964 1094 l 965 1094 z "},"":{"ha":394,"x_min":29,"x_max":404,"o":"m 174 415 l 192 417 q 210 401 206 417 q 229 288 215 385 q 315 360 246 304 q 386 415 383 415 q 404 399 404 415 q 399 389 404 394 l 233 263 q 315 136 254 136 q 354 146 322 136 q 358 143 358 146 q 324 121 358 133 q 264 108 289 108 q 222 136 239 108 q 188 235 204 164 q 115 163 176 221 q 42 106 54 106 q 29 113 29 106 q 101 188 36 126 q 182 260 165 249 l 168 338 q 147 385 160 369 q 127 402 135 400 q 119 407 119 404 q 174 415 119 415 z "},"":{"ha":1089,"x_min":33,"x_max":1156,"o":"m 918 882 q 1008 969 993 969 q 1033 960 1024 969 q 1042 942 1042 951 q 1029 917 1042 932 l 989 871 q 1085 828 1047 856 q 1156 694 1156 775 q 1117 571 1156 644 q 1128 494 1128 533 q 950 163 1128 321 q 338 -82 676 -82 l 307 -82 q 304 -115 304 -92 q 315 -142 304 -137 q 319 -158 325 -147 q 290 -172 310 -172 q 267 -139 267 -172 q 272 -79 267 -106 q 99 -6 164 -72 q 33 167 33 61 q 90 400 33 274 q 372 711 163 560 q 872 883 614 883 q 918 882 904 883 m 636 751 q 747 772 700 772 q 826 767 793 772 q 865 816 840 786 q 894 853 889 846 q 871 854 888 854 q 475 724 661 854 q 185 397 289 594 q 108 140 108 254 q 279 -51 108 -35 q 297 3 282 -39 q 660 550 340 121 q 800 733 775 701 q 703 740 774 738 q 633 746 633 743 q 636 751 633 749 m 333 -53 q 853 167 607 -53 q 1044 468 1031 325 q 794 279 972 389 l 783 276 q 782 278 782 276 q 819 315 782 283 l 897 379 q 1043 522 997 467 q 968 656 1033 600 q 863 718 922 696 q 618 401 771 604 q 317 -53 369 71 q 333 -53 325 -53 m 1099 613 q 1113 687 1113 646 q 1078 776 1113 728 q 967 843 1043 825 q 893 754 957 832 l 894 754 q 1099 613 1040 719 z "},"":{"ha":1113,"x_min":19,"x_max":1347,"o":"m 479 -26 q 419 15 419 -26 q 603 347 419 88 q 826 665 788 606 q 911 843 911 796 q 893 872 911 867 q 815 886 860 886 q 425 724 663 886 q 167 470 269 615 q 65 231 65 325 q 121 153 65 163 q 165 149 143 149 q 311 194 236 149 q 406 268 349 217 l 431 276 q 320 175 404 226 q 147 124 236 124 q 99 129 126 124 q 45 169 71 135 q 19 258 19 203 q 431 771 19 476 q 628 873 514 828 q 835 918 742 918 q 926 900 882 918 q 969 840 969 882 q 920 719 969 797 q 766 498 871 640 q 588 232 661 356 q 515 60 515 108 q 535 36 515 36 q 675 114 572 36 q 1250 718 919 300 q 1335 785 1303 785 q 1347 772 1347 785 q 1343 758 1347 767 q 1344 750 1344 754 q 1311 671 1344 721 l 1147 439 q 971 165 1047 294 q 900 14 894 36 l 925 22 q 1046 113 994 61 q 1068 126 1064 126 l 1071 124 q 1033 71 1071 111 q 894 -14 936 -14 q 853 13 853 -14 q 927 176 853 39 q 1165 556 1001 314 q 1078 457 1138 522 q 668 53 736 107 q 479 -26 567 -26 m 1210 896 q 1201 888 1210 888 q 1125 928 1193 888 q 1039 982 1057 969 q 1021 1012 1021 994 q 1035 1029 1021 1029 q 1204 904 1056 1029 q 1210 896 1210 900 z "},"":{"ha":1113,"x_min":19,"x_max":1347,"o":"m 479 -26 q 419 15 419 -26 q 603 347 419 88 q 826 665 788 606 q 911 843 911 796 q 893 872 911 867 q 815 886 860 886 q 425 724 663 886 q 167 470 269 615 q 65 231 65 325 q 121 153 65 163 q 165 149 143 149 q 311 194 236 149 q 406 268 349 217 l 431 276 q 320 175 404 226 q 147 124 236 124 q 99 129 126 124 q 45 169 71 135 q 19 258 19 203 q 431 771 19 476 q 628 873 514 828 q 835 918 742 918 q 926 900 882 918 q 969 840 969 882 q 920 719 969 797 q 766 498 871 640 q 588 232 661 356 q 515 60 515 108 q 535 36 515 36 q 675 114 572 36 q 1250 718 919 300 q 1335 785 1303 785 q 1347 772 1347 785 q 1343 758 1347 767 q 1344 750 1344 754 q 1311 671 1344 721 l 1147 439 q 971 165 1047 294 q 900 14 894 36 l 925 22 q 1046 113 994 61 q 1068 126 1064 126 l 1071 124 q 1033 71 1071 111 q 894 -14 936 -14 q 853 13 853 -14 q 927 176 853 39 q 1165 556 1001 314 q 1078 457 1138 522 q 668 53 736 107 q 479 -26 567 -26 m 1250 989 q 1275 1001 1264 1001 q 1286 985 1286 1001 q 1272 956 1286 969 q 1188 901 1258 943 q 1109 858 1118 858 q 1100 868 1100 858 q 1104 876 1100 872 l 1250 989 z "},"":{"ha":1113,"x_min":19,"x_max":1394,"o":"m 479 -26 q 419 15 419 -26 q 603 347 419 88 q 826 665 788 606 q 911 843 911 796 q 893 872 911 867 q 815 886 860 886 q 425 724 663 886 q 167 470 269 615 q 65 231 65 325 q 121 153 65 163 q 165 149 143 149 q 311 194 236 149 q 406 268 349 217 l 431 276 q 320 175 404 226 q 147 124 236 124 q 99 129 126 124 q 45 169 71 135 q 19 258 19 203 q 431 771 19 476 q 628 874 514 831 q 835 918 742 918 q 926 900 882 918 q 969 840 969 882 q 920 719 969 797 q 766 498 871 640 q 588 232 661 356 q 515 60 515 108 q 535 36 515 36 q 675 114 572 36 q 1250 718 919 300 q 1335 785 1303 785 q 1347 772 1347 785 q 1343 758 1347 767 q 1344 750 1344 754 q 1311 671 1344 721 l 1147 439 q 971 165 1047 294 q 900 14 894 36 l 925 22 q 1046 113 994 61 q 1068 126 1064 126 l 1071 124 q 1033 71 1071 111 q 894 -14 936 -14 q 853 13 853 -14 q 927 176 853 39 q 1165 556 1001 314 q 1078 457 1138 522 q 668 53 736 107 q 479 -26 567 -26 m 1082 940 q 1051 950 1051 932 q 1065 967 1051 954 q 1203 1058 1171 1031 q 1253 1093 1244 1093 q 1332 1028 1274 1093 q 1392 956 1390 964 q 1394 946 1394 949 q 1383 932 1394 932 q 1324 976 1372 932 q 1244 1039 1275 1021 q 1198 1010 1236 1033 q 1126 964 1160 986 q 1082 940 1093 942 z "},"":{"ha":1113,"x_min":19,"x_max":1347,"o":"m 479 -26 q 419 15 419 -26 q 603 347 419 88 q 826 665 788 606 q 911 843 911 796 q 893 872 911 867 q 815 886 860 886 q 425 724 663 886 q 167 470 269 615 q 65 231 65 325 q 121 153 65 163 q 165 149 143 149 q 311 194 236 149 q 406 268 349 217 l 431 276 q 320 175 404 226 q 147 124 236 124 q 99 129 126 124 q 45 169 71 135 q 19 258 19 203 q 431 771 19 476 q 628 874 514 831 q 835 918 742 918 q 926 900 882 918 q 969 840 969 882 q 920 719 969 797 q 766 498 871 640 q 588 232 661 356 q 515 60 515 108 q 535 36 515 36 q 675 114 572 36 q 1250 718 919 300 q 1335 785 1303 785 q 1347 772 1347 785 q 1343 758 1347 767 q 1344 750 1344 754 q 1311 671 1344 721 l 1147 439 q 971 165 1047 294 q 900 14 894 36 l 925 22 q 1046 113 994 61 q 1068 126 1064 126 l 1071 124 q 1033 71 1071 111 q 894 -14 936 -14 q 853 13 853 -14 q 927 176 853 39 q 1165 556 1001 314 q 1078 457 1138 522 q 668 53 736 107 q 479 -26 567 -26 m 1088 890 q 1068 905 1078 890 q 1058 935 1058 919 q 1099 981 1058 951 q 1163 1010 1140 1010 q 1167 1008 1164 1010 q 1147 983 1165 1008 l 1125 928 q 1088 890 1108 890 m 1335 1008 q 1315 983 1333 1008 l 1293 928 q 1256 890 1276 890 q 1236 905 1246 890 q 1226 935 1226 919 q 1267 981 1226 951 q 1331 1010 1308 1010 l 1335 1008 m 1168 1007 q 1167 1008 1168 1008 l 1168 1008 l 1168 1007 m 1336 1007 q 1335 1008 1336 1008 l 1336 1008 l 1336 1007 z "},"":{"ha":1225,"x_min":19,"x_max":1319,"o":"m 467 -353 q 363 -315 414 -353 q 313 -232 313 -278 q 342 -203 313 -203 q 363 -206 349 -203 q 390 -285 379 -264 q 471 -322 414 -322 q 890 144 642 -322 l 1140 590 q 760 192 872 304 q 607 56 649 81 q 469 6 524 6 q 390 99 390 6 q 485 328 390 210 q 544 399 492 336 q 666 550 596 463 q 783 719 736 638 q 829 833 829 800 q 810 875 829 865 q 718 896 769 896 q 311 718 571 896 q 139 547 203 644 q 75 368 75 450 q 154 265 75 286 q 203 258 179 258 q 360 319 274 258 q 474 392 461 388 q 364 279 460 340 q 167 214 258 214 q 120 219 154 214 q 53 269 86 224 q 19 381 19 315 q 296 767 19 569 q 508 872 376 825 q 722 919 640 919 q 845 894 803 919 q 888 812 888 868 q 810 637 888 756 q 564 314 732 518 q 500 209 529 274 q 471 106 471 144 q 501 68 471 68 q 590 111 531 68 q 928 404 760 232 q 1176 693 1097 576 q 1297 775 1233 775 q 1319 761 1319 775 q 1317 750 1319 758 q 840 -61 1142 444 q 651 -280 751 -207 q 467 -353 550 -353 m 1136 951 q 1100 929 1136 951 q 1054 907 1064 907 q 1044 914 1044 907 q 1050 925 1044 921 l 1196 1038 q 1219 1050 1211 1050 q 1232 1033 1232 1050 q 1221 1006 1232 1017 q 1136 951 1208 996 z "},"":{"ha":229,"x_min":-75,"x_max":704,"o":"m 554 851 l 503 842 q 496 850 494 842 q 553 871 503 871 q 625 856 604 871 q 646 825 646 840 q 642 796 646 810 q 603 726 639 782 q 517 587 568 669 q 450 481 467 504 q 506 506 464 493 q 581 519 558 519 q 667 491 631 519 q 704 408 704 463 q 672 291 704 354 q 574 176 639 228 q 353 100 475 100 q 265 108 290 100 q 213 142 239 115 q -29 -274 -29 -212 q -11 -290 -29 -290 l 36 -275 q 38 -278 40 -275 q 14 -297 35 -287 q -18 -306 -7 -306 q -74 -256 -74 -306 q 28 -31 -74 -186 l 508 701 q 571 822 564 793 q 554 851 579 851 m 633 428 q 571 481 633 481 q 457 454 508 481 q 396 403 438 444 q 229 165 251 199 q 335 139 258 139 q 518 199 442 139 q 633 428 633 290 z "},"":{"ha":807,"x_min":-614,"x_max":781,"o":"m 221 167 q 196 119 196 167 q 233 33 196 71 q 283 4 253 14 q 232 131 249 39 q 221 167 225 167 m -546 -211 q -583 -306 -583 -258 q -549 -381 -583 -353 q -447 -410 -514 -410 q -326 -367 -381 -410 q -106 -125 -211 -279 q 64 172 -1 29 q 369 782 281 642 q 568 922 458 922 q 708 888 661 922 q 756 751 756 853 q 710 636 756 678 q 571 564 664 594 q 510 540 532 550 q 465 506 489 531 q 440 447 440 481 q 538 365 440 393 q 729 308 693 333 q 779 222 779 271 q 707 88 779 149 q 550 -1 635 26 q 393 -28 465 -28 q 328 -18 386 -28 q 380 -41 338 -24 q 433 -61 422 -58 q 443 -67 443 -64 q 429 -72 443 -72 q 370 -52 415 -72 q 304 -15 325 -32 q 219 17 244 -7 q 185 60 200 32 q 171 113 171 88 q 188 161 171 139 q 232 183 206 183 q 260 143 256 183 q 272 81 265 103 q 285 35 278 58 q 308 -3 292 13 q 369 -10 339 -10 q 640 96 508 -10 q 703 199 703 146 q 632 271 703 253 l 482 308 q 410 350 438 321 q 382 415 382 379 q 431 520 382 476 q 545 585 479 564 q 651 652 611 606 q 692 758 692 699 q 660 853 692 817 q 576 890 629 890 q 463 817 522 890 q 346 625 404 743 q 224 365 288 507 q 85 81 160 224 q -69 -179 11 -61 q -249 -371 -149 -297 q -456 -444 -350 -444 q -572 -412 -529 -444 q -614 -333 -614 -381 q -585 -237 -614 -287 l -564 -218 q -547 -210 -560 -210 l -546 -211 z "},"":{"ha":572,"x_min":-12,"x_max":663,"o":"m 461 415 l 481 419 q 510 406 496 419 q 524 387 524 393 q 438 253 524 381 q 351 76 351 126 q 353 68 351 72 q 383 36 360 36 q 647 275 456 36 q 657 281 651 281 q 663 270 663 281 q 650 243 663 260 q 379 6 472 6 q 356 10 367 6 q 294 101 294 33 q 300 149 294 125 l 213 65 q 95 -7 132 -7 q 25 17 58 -7 q -12 90 -12 44 q 129 333 -12 192 q 389 474 271 474 q 450 442 435 474 q 457 423 454 431 q 461 415 460 415 m 46 74 q 81 24 46 24 q 299 200 160 24 q 447 403 435 385 q 411 422 436 422 q 186 291 326 422 q 46 74 46 160 m 471 551 q 464 543 471 543 q 399 576 454 543 q 325 626 344 610 q 315 647 315 632 q 326 661 315 661 q 397 615 336 661 q 465 561 458 568 q 471 551 471 554 z "},"":{"ha":572,"x_min":-12,"x_max":663,"o":"m 461 415 l 481 419 q 510 406 496 419 q 524 387 524 393 q 438 253 524 381 q 351 76 351 126 q 353 68 351 72 q 383 36 360 36 q 647 275 456 36 q 657 281 651 281 q 663 270 663 281 q 650 243 663 260 q 379 6 472 6 q 356 10 367 6 q 294 101 294 33 q 300 149 294 125 l 213 65 q 95 -7 132 -7 q 25 17 58 -7 q -12 90 -12 44 q 129 333 -12 192 q 389 474 271 474 q 450 442 435 474 q 457 423 454 431 q 461 415 460 415 m 46 74 q 81 24 46 24 q 299 200 160 24 q 447 403 435 385 q 411 422 436 422 q 186 291 326 422 q 46 74 46 160 m 565 678 q 479 624 553 668 q 397 579 406 579 q 389 588 389 579 q 393 596 389 592 l 540 710 q 564 722 556 722 q 576 706 576 722 q 565 678 576 689 z "},"":{"ha":572,"x_min":-12,"x_max":663,"o":"m 461 415 l 481 419 q 510 406 496 419 q 524 387 524 393 q 438 253 524 381 q 351 76 351 126 q 353 68 351 72 q 383 36 360 36 q 647 275 456 36 q 657 281 651 281 q 663 270 663 281 q 650 243 663 260 q 379 6 472 6 q 356 10 367 6 q 294 101 294 33 q 300 149 294 125 l 213 65 q 95 -7 132 -7 q 25 17 58 -7 q -12 90 -12 44 q 129 333 -12 192 q 389 474 271 474 q 450 442 435 474 q 457 423 454 431 q 461 415 460 415 m 46 74 q 81 24 46 24 q 299 200 160 24 q 447 403 435 385 q 411 422 436 422 q 186 291 326 422 q 46 74 46 160 m 367 526 q 361 535 361 526 q 408 582 361 543 q 468 624 456 621 l 474 622 q 572 538 506 586 l 576 529 l 572 524 q 515 550 557 524 q 457 593 474 576 q 367 526 378 526 z "},"":{"ha":572,"x_min":-12,"x_max":663,"o":"m 461 415 l 481 419 q 510 406 496 419 q 524 387 524 393 q 438 253 524 381 q 351 76 351 126 q 353 68 351 72 q 383 36 360 36 q 647 275 456 36 q 657 281 651 281 q 663 270 663 281 q 650 243 663 260 q 379 6 472 6 q 356 10 367 6 q 294 101 294 33 q 300 149 294 125 l 213 65 q 95 -7 132 -7 q 25 17 58 -7 q -12 90 -12 44 q 129 333 -12 192 q 389 474 271 474 q 450 442 435 474 q 457 423 454 431 q 461 415 460 415 m 46 74 q 81 24 46 24 q 299 200 160 24 q 447 403 435 385 q 411 422 436 422 q 186 291 326 422 q 46 74 46 160 m 446 614 l 542 593 q 583 614 567 593 q 588 615 586 615 q 590 611 590 615 q 564 579 590 597 q 522 561 538 561 q 472 574 506 561 q 426 588 443 588 q 367 561 408 588 q 365 564 365 563 q 408 604 365 582 q 446 614 426 614 z "},"":{"ha":572,"x_min":-12,"x_max":663,"o":"m 461 415 l 481 419 q 510 406 496 419 q 524 387 524 393 q 438 253 524 381 q 351 76 351 126 q 353 68 351 72 q 383 36 360 36 q 647 275 456 36 q 657 281 651 281 q 663 270 663 281 q 650 243 663 260 q 379 6 472 6 q 356 10 367 6 q 294 101 294 33 q 300 149 294 125 l 213 65 q 95 -7 132 -7 q 25 17 58 -7 q -12 90 -12 44 q 129 333 -12 192 q 389 474 271 474 q 450 442 435 474 q 457 423 454 431 q 461 415 460 415 m 46 74 q 81 24 46 24 q 299 200 160 24 q 447 403 435 385 q 411 422 436 422 q 186 291 326 422 q 46 74 46 160 m 528 553 q 511 565 519 553 q 503 585 503 576 q 538 626 503 603 q 581 650 572 650 q 592 649 590 650 l 592 650 q 593 647 593 649 q 576 628 585 636 l 557 583 q 528 553 544 553 m 390 553 q 374 565 382 553 q 367 585 367 576 q 401 626 367 603 q 445 650 436 650 q 456 649 454 650 l 456 647 l 440 628 l 421 583 q 390 553 408 553 z "},"":{"ha":572,"x_min":-14,"x_max":663,"o":"m 46 74 q 81 24 46 24 q 300 200 161 24 l 447 403 q 411 422 436 422 q 186 291 326 422 q 46 74 46 160 m 461 415 l 481 419 q 510 407 496 419 q 524 388 524 394 q 438 253 524 381 q 351 76 351 126 q 353 68 351 72 q 383 36 360 36 q 647 275 456 36 q 657 281 651 281 q 663 270 663 281 q 650 243 663 260 q 379 6 472 6 q 356 10 367 6 q 294 101 294 33 q 300 149 294 125 l 214 65 q 95 -7 132 -7 q 25 17 58 -7 q -12 93 -12 44 q 121 325 -12 194 q 385 474 268 472 q 378 510 378 488 q 393 567 378 533 q 432 607 408 600 q 503 651 456 651 q 545 630 528 651 q 563 571 563 608 q 528 494 563 533 q 447 449 493 454 q 453 436 450 444 q 461 415 457 415 m 450 475 q 506 508 482 475 q 529 583 529 540 q 499 626 529 626 q 458 607 485 626 l 474 600 q 451 563 472 596 q 429 503 429 531 q 450 475 429 475 z "},"":{"ha":392,"x_min":18,"x_max":467,"o":"m 462 129 q 464 129 462 129 q 467 125 467 129 q 465 118 467 121 q 377 35 439 75 q 275 -6 315 -6 q 219 10 235 -6 q 196 50 210 29 q 190 98 190 78 q 192 132 190 118 q 54 -6 114 -6 q 18 33 18 -6 q 75 178 18 92 q 228 290 153 290 q 286 263 267 290 q 360 294 322 294 q 389 260 389 294 q 338 177 389 225 q 246 114 286 129 q 238 65 238 86 q 279 19 238 19 q 446 118 360 19 q 462 129 457 129 m 354 249 q 340 261 354 261 q 292 212 322 261 q 253 138 261 163 q 320 186 286 153 q 354 249 354 219 m 224 253 q 116 179 175 253 q 57 53 57 106 q 75 29 57 29 q 168 122 113 29 q 235 251 210 189 q 224 253 232 253 z "},"":{"ha":393,"x_min":-108,"x_max":474,"o":"m 111 -251 q 44 -353 111 -317 q -96 -389 -24 -389 q -108 -374 -108 -389 q -96 -362 -108 -367 q 4 -347 -29 -351 q 53 -267 53 -332 q 17 -197 53 -249 q -19 -111 -19 -144 q -2 -46 -19 -78 q 46 -1 15 -14 q -11 86 -11 26 q 111 311 -11 183 q 331 439 233 439 q 383 422 363 439 q 403 374 403 404 q 385 312 403 344 q 331 279 367 279 q 294 301 294 279 q 313 348 294 317 q 332 381 332 379 q 328 383 332 383 q 222 328 289 379 q 129 242 154 276 l 75 163 q 55 110 61 140 q 49 64 49 79 q 66 29 49 49 q 115 10 83 10 q 288 91 185 10 q 446 246 390 172 q 463 254 453 254 q 472 249 472 254 q 465 235 472 243 q 283 58 389 133 q 106 -18 176 -18 q 81 -15 86 -18 q 74 -12 75 -12 q 29 -94 29 -35 q 70 -162 29 -110 q 111 -251 111 -214 z "},"":{"ha":357,"x_min":-46,"x_max":442,"o":"m 71 -18 q 43 -14 56 -18 q -46 86 -46 11 q 76 311 -46 183 q 296 439 199 439 q 348 422 328 439 q 368 379 368 404 q 251 231 368 301 q 60 160 133 160 q 40 163 49 160 q 19 83 19 125 q 88 11 19 11 q 267 104 157 11 q 411 250 349 169 q 433 267 424 267 q 442 258 442 267 q 431 235 442 250 q 249 58 353 133 q 71 -18 144 -18 m 333 382 q 298 399 333 399 q 197 344 263 399 q 61 193 110 272 q 79 190 69 190 q 220 247 132 190 q 331 369 308 303 q 333 382 333 376 m 367 506 q 361 499 367 499 q 219 579 350 499 q 210 602 210 588 q 219 617 210 617 q 252 600 229 617 q 363 513 275 583 q 367 506 367 508 z "},"":{"ha":357,"x_min":-46,"x_max":494,"o":"m 395 553 q 359 532 395 553 q 315 511 324 511 q 307 519 307 511 q 311 528 307 524 q 457 642 381 581 q 481 653 472 653 q 494 635 494 653 q 481 608 494 618 q 395 553 467 596 m 71 -18 q 43 -14 56 -18 q -46 86 -46 11 q 76 311 -46 183 q 296 439 199 439 q 348 422 328 439 q 368 379 368 404 q 251 231 368 301 q 60 160 133 160 q 40 163 49 160 q 19 83 19 125 q 88 11 19 11 q 267 104 157 11 q 411 250 349 169 q 433 267 424 267 q 442 258 442 267 q 431 235 442 250 q 249 58 353 133 q 71 -18 144 -18 m 333 382 q 298 399 333 399 q 197 344 263 399 q 61 193 110 272 q 79 190 69 190 q 220 247 132 190 q 331 369 308 303 q 333 382 333 376 z "},"":{"ha":357,"x_min":-46,"x_max":453,"o":"m 71 -18 q 43 -14 56 -18 q -46 86 -46 11 q 76 311 -46 183 q 296 439 199 439 q 348 422 328 439 q 368 379 368 404 q 251 231 368 301 q 60 160 133 160 q 40 163 49 160 q 19 83 19 125 q 88 11 19 11 q 267 104 157 11 q 411 250 349 169 q 433 267 424 267 q 442 258 442 267 q 431 235 442 250 q 249 58 353 133 q 71 -18 144 -18 m 333 382 q 298 399 333 399 q 197 344 263 399 q 61 193 110 272 q 79 190 69 190 q 220 247 132 190 q 331 369 308 303 q 333 382 333 376 m 333 554 q 245 489 253 489 q 238 497 238 489 q 285 544 238 506 q 344 586 332 583 l 350 583 q 449 499 382 549 l 453 492 l 449 485 q 389 514 431 488 q 333 554 347 540 z "},"":{"ha":357,"x_min":-46,"x_max":488,"o":"m 71 -18 q 43 -14 56 -18 q -46 86 -46 11 q 76 311 -46 183 q 296 439 199 439 q 348 422 328 439 q 368 379 368 404 q 251 231 368 301 q 60 160 133 160 q 40 163 49 160 q 19 83 19 125 q 88 11 19 11 q 267 104 157 11 q 411 250 349 169 q 433 267 424 267 q 442 258 442 267 q 431 235 442 250 q 249 58 353 133 q 71 -18 144 -18 m 333 382 q 298 399 333 399 q 197 344 263 399 q 61 193 110 272 q 79 190 69 190 q 220 247 132 190 q 331 369 308 303 q 333 382 333 376 m 421 476 q 405 488 413 476 q 397 514 397 500 q 432 551 397 528 q 483 575 467 575 q 488 572 485 575 l 471 553 l 451 507 q 421 476 439 476 m 285 476 q 269 488 276 476 q 261 514 261 500 q 294 550 261 528 q 346 575 328 575 q 350 574 349 575 l 350 572 q 333 553 342 561 q 312 499 322 522 q 285 476 301 476 z "},"":{"ha":314,"x_min":-21,"x_max":360,"o":"m 61 -17 q -21 76 -21 -17 q 61 284 -21 151 q 193 418 143 417 q 224 407 207 418 q 242 385 242 396 q 225 363 235 375 q 204 338 215 351 q 174 298 193 324 q 136 249 154 272 q 32 64 32 114 q 69 14 32 14 q 208 88 119 14 q 336 206 296 161 q 354 219 346 219 q 360 211 360 219 q 233 76 360 169 q 61 -17 107 -17 m 149 575 q 138 599 138 586 q 148 613 138 613 q 216 569 158 613 q 284 515 274 525 q 294 500 294 506 q 287 494 294 494 q 220 529 279 494 q 149 575 161 564 z "},"":{"ha":314,"x_min":-21,"x_max":408,"o":"m 61 -17 q -21 76 -21 -17 q 61 284 -21 151 q 193 418 143 417 q 224 407 207 418 q 242 385 242 396 q 225 363 235 375 q 204 338 215 351 q 174 298 193 324 q 136 249 154 272 q 32 64 32 114 q 69 14 32 14 q 208 88 119 14 q 336 206 296 161 q 354 219 346 219 q 360 211 360 219 q 233 76 360 169 q 61 -17 107 -17 m 397 561 q 310 506 382 550 q 230 463 239 463 q 221 468 221 463 q 225 478 221 474 l 372 593 q 394 606 386 606 q 408 589 408 606 q 397 561 408 572 z "},"":{"ha":314,"x_min":-21,"x_max":363,"o":"m 61 -17 q -21 76 -21 -17 q 61 284 -21 151 q 193 418 143 417 q 224 407 207 418 q 242 385 242 396 q 225 363 235 375 q 204 338 215 351 q 174 298 193 324 q 136 249 154 272 q 32 64 32 114 q 69 14 32 14 q 208 88 119 14 q 336 206 296 161 q 354 219 346 219 q 360 211 360 219 q 233 76 360 169 q 61 -17 107 -17 m 244 547 q 156 481 164 481 q 149 489 149 481 q 196 536 149 497 q 256 578 243 575 l 260 576 q 358 490 286 547 l 363 483 l 360 478 q 303 503 343 478 q 244 547 264 528 z "},"":{"ha":314,"x_min":-21,"x_max":374,"o":"m 61 -17 q -21 76 -21 -17 q 61 284 -21 151 q 193 418 143 417 q 224 407 207 418 q 242 385 242 396 q 225 363 235 375 q 204 338 215 351 q 174 298 193 324 q 136 249 154 272 q 32 64 32 114 q 69 14 32 14 q 208 88 119 14 q 336 206 296 161 q 354 219 346 219 q 360 211 360 219 q 233 76 360 169 q 61 -17 107 -17 m 308 496 q 292 508 300 496 q 285 533 285 519 q 318 569 285 547 q 369 594 351 594 q 374 593 372 594 l 374 592 l 358 572 l 339 526 q 308 496 326 496 m 172 496 q 156 508 164 496 q 149 533 149 519 q 182 569 149 547 q 233 594 215 594 q 238 593 236 594 l 238 592 q 221 572 229 581 q 203 526 214 557 q 172 496 189 496 z "},"":{"ha":526,"x_min":13,"x_max":611,"o":"m 172 447 q 272 533 221 507 q 365 560 324 560 q 438 536 407 560 q 439 556 439 544 q 379 783 439 625 q 256 767 283 767 q 217 772 229 767 q 210 790 206 776 q 242 815 210 806 q 364 831 274 824 q 312 933 347 871 q 278 1007 276 994 q 292 1027 281 1019 q 310 1035 303 1035 q 325 1032 318 1035 q 435 838 368 1018 q 574 847 546 847 q 611 842 611 847 q 447 793 607 821 q 490 522 490 658 q 474 361 490 450 q 397 179 458 272 q 249 39 335 86 q 136 6 190 6 q 14 122 14 6 q 33 229 14 165 q 172 447 71 326 m 86 101 q 144 39 86 39 q 233 70 179 39 q 347 183 288 101 q 428 396 417 282 q 432 428 432 414 q 399 481 432 469 l 386 483 q 364 490 381 490 q 274 434 329 490 q 171 306 218 378 q 86 101 86 176 z "},"":{"ha":560,"x_min":-49,"x_max":601,"o":"m 493 332 q 347 82 347 160 q 367 38 347 38 q 465 92 399 38 q 579 206 531 147 q 596 217 590 217 q 601 209 601 217 q 569 158 601 201 q 472 56 536 114 q 369 -3 408 -3 q 286 92 286 -3 q 342 244 286 147 l 431 389 q 263 237 336 319 q 128 76 189 154 q 58 -1 68 -1 q 26 16 38 -1 q 14 47 14 33 q 99 253 14 88 q -14 136 83 229 q -40 119 -31 119 q -49 124 -49 119 q -15 165 -49 131 q 115 319 19 199 q 224 439 210 439 q 261 410 261 439 q 257 393 261 401 q 107 131 132 219 q 500 454 431 454 q 513 456 507 456 q 551 421 551 456 q 549 407 551 414 q 493 332 546 400 m 582 607 q 586 608 583 608 q 589 601 589 608 q 535 543 589 581 q 494 532 517 532 q 426 551 471 532 q 358 569 381 569 q 313 551 335 569 q 283 533 290 533 q 282 536 282 535 q 342 593 282 558 q 388 607 364 607 q 456 592 413 607 q 528 578 500 578 q 582 607 557 578 z "},"":{"ha":390,"x_min":-14,"x_max":471,"o":"m 363 294 q 269 132 363 246 q 82 -3 160 -3 l 60 -3 q 3 35 24 -3 q -14 93 -14 61 q 108 327 -14 176 q 304 478 229 478 q 375 403 375 478 q 368 353 375 383 q 394 349 369 349 q 471 375 419 349 q 361 307 469 351 q 363 294 363 301 m 272 367 q 138 256 225 367 q 51 92 51 144 q 85 39 51 39 q 236 147 144 39 q 328 303 328 256 q 272 367 306 315 m 392 545 q 392 543 392 545 q 385 540 392 540 q 319 575 378 540 q 246 621 260 610 q 235 645 235 632 q 245 658 235 658 q 317 610 256 658 q 385 556 379 563 q 392 545 392 550 z "},"":{"ha":390,"x_min":-14,"x_max":542,"o":"m 363 294 q 269 132 363 246 q 82 -3 160 -3 l 60 -3 q 3 35 24 -3 q -14 93 -14 61 q 108 327 -14 176 q 304 478 229 478 q 375 403 375 478 q 368 353 375 383 q 394 349 369 349 q 471 375 419 349 q 361 307 469 351 q 363 294 363 301 m 272 367 q 138 256 225 367 q 51 92 51 144 q 85 39 51 39 q 236 147 144 39 q 328 303 328 256 q 272 367 306 315 m 442 581 q 407 560 442 581 q 363 539 371 539 q 354 547 354 539 q 358 556 354 551 q 504 669 428 608 q 528 681 519 681 q 542 663 542 681 q 528 636 542 646 q 442 581 514 624 z "},"":{"ha":390,"x_min":-14,"x_max":478,"o":"m 363 294 q 269 132 363 246 q 82 -3 160 -3 l 60 -3 q 3 35 24 -3 q -14 93 -14 61 q 108 327 -14 176 q 304 478 229 478 q 375 403 375 478 q 368 353 375 383 q 394 349 369 349 q 471 375 419 349 q 361 307 469 351 q 363 294 363 301 m 272 367 q 138 256 225 367 q 51 92 51 144 q 85 39 51 39 q 236 147 144 39 q 328 303 328 256 q 272 367 306 315 m 358 593 q 271 526 279 526 q 263 535 263 526 q 310 582 263 543 q 369 624 357 621 l 375 622 q 474 536 406 588 l 478 529 l 474 524 q 417 550 458 524 q 358 593 375 576 z "},"":{"ha":390,"x_min":-14,"x_max":539,"o":"m 363 294 q 269 132 363 246 q 82 -3 160 -3 l 60 -3 q 3 35 24 -3 q -14 93 -14 61 q 108 327 -14 176 q 304 478 229 478 q 375 403 375 478 q 368 353 375 383 q 394 349 369 349 q 471 375 419 349 q 361 307 469 351 q 363 294 363 301 m 272 367 q 138 256 225 367 q 51 92 51 144 q 85 39 51 39 q 236 147 144 39 q 328 303 328 256 q 272 367 306 315 m 539 629 q 483 571 539 608 q 443 560 465 560 q 378 578 421 560 q 309 596 335 596 q 261 578 283 596 q 231 564 231 553 q 290 621 231 586 q 337 635 313 635 q 405 620 361 635 q 478 606 449 606 q 531 635 508 606 q 539 629 539 635 z "},"":{"ha":390,"x_min":-14,"x_max":519,"o":"m 363 294 q 269 132 363 246 q 82 -3 160 -3 l 60 -3 q 3 35 24 -3 q -14 93 -14 61 q 108 327 -14 176 q 304 478 229 478 q 375 403 375 478 q 368 353 375 383 q 394 349 369 349 q 471 375 419 349 q 361 307 469 351 q 363 294 363 301 m 272 367 q 138 256 225 367 q 51 92 51 144 q 85 39 51 39 q 236 147 144 39 q 328 303 328 256 q 272 367 306 315 m 454 549 q 438 560 446 549 q 429 581 429 572 q 464 623 429 600 q 508 646 499 646 q 518 644 517 646 l 518 646 q 519 643 519 644 q 503 624 511 632 l 483 579 q 454 549 471 549 m 317 549 q 301 560 308 549 q 293 581 293 572 q 328 623 293 600 q 372 646 363 646 q 382 644 381 646 l 382 643 l 367 624 l 347 579 q 317 549 335 549 z "},"":{"ha":564,"x_min":26,"x_max":551,"o":"m 292 361 l 436 360 q 550 364 515 360 q 551 358 551 361 q 542 347 551 354 q 451 322 518 333 q 328 302 383 311 q 241 293 274 293 q 149 297 208 293 q 26 326 26 306 q 38 350 26 340 q 60 360 50 360 l 81 360 l 115 361 l 226 361 q 292 361 261 361 m 250 235 q 290 221 271 235 q 308 190 308 207 q 291 159 308 172 q 253 146 274 146 q 215 160 232 146 q 197 194 197 174 q 250 235 197 235 m 314 513 q 353 499 335 513 q 372 467 372 485 q 355 437 372 450 q 317 424 338 424 q 278 438 296 424 q 261 472 261 451 q 314 513 261 513 z "},"":{"ha":390,"x_min":-56,"x_max":539,"o":"m 22 10 q -14 93 -14 46 q 108 327 -14 176 q 304 478 229 478 q 349 465 332 478 q 513 650 492 650 q 532 643 525 650 q 539 628 539 636 q 496 572 539 621 q 374 422 453 522 l 375 403 q 368 353 375 383 q 394 349 369 349 q 471 375 419 349 q 361 307 469 351 q 363 294 363 301 q 269 132 363 246 q 82 -3 160 -3 l 58 -3 q -28 -178 -28 -133 q -15 -204 -28 -197 q -17 -216 -11 -207 q -39 -225 -22 -225 q -56 -194 -56 -225 q 22 10 -56 -108 m 328 303 q 300 328 314 310 q 86 39 133 107 q 236 148 144 40 q 328 303 328 256 m 272 367 q 138 256 225 367 q 51 86 51 144 q 54 61 51 72 q 272 365 94 122 l 272 367 z "},"":{"ha":590,"x_min":-19,"x_max":653,"o":"m 389 -8 q 359 -10 382 -10 q 313 8 336 -10 q 290 55 290 26 q 301 118 290 83 q 315 171 311 153 l 193 49 q 65 -15 121 -15 q 3 56 8 -15 q 3 64 3 60 q 71 218 3 121 l 3 157 q -12 149 -6 149 q -19 156 -19 149 q -6 178 -19 164 l 178 393 q 252 435 215 435 q 289 410 289 435 q 281 392 289 400 q 141 221 225 340 q 57 44 57 101 q 74 19 57 19 q 168 72 100 19 l 243 135 q 385 304 265 151 q 526 439 493 439 q 576 400 576 439 q 518 319 576 386 q 397 163 439 224 q 356 65 356 103 q 376 28 356 28 q 399 33 386 28 q 628 225 499 78 q 644 235 636 235 q 653 228 653 235 q 513 76 653 200 q 389 -8 422 -1 m 447 528 q 451 518 451 524 q 445 513 451 513 q 380 549 439 513 q 308 594 321 585 q 296 617 296 603 q 307 632 296 632 q 447 528 324 632 z "},"":{"ha":590,"x_min":-19,"x_max":653,"o":"m 389 -8 q 359 -10 382 -10 q 313 8 336 -10 q 290 55 290 26 q 301 118 290 83 q 315 171 311 153 l 193 49 q 65 -15 121 -15 q 3 56 8 -15 q 3 64 3 60 q 71 218 3 121 l 3 157 q -12 149 -6 149 q -19 156 -19 149 q -6 178 -19 164 l 178 393 q 252 435 215 435 q 289 410 289 435 q 281 392 289 400 q 141 221 225 340 q 57 44 57 101 q 74 19 57 19 q 168 72 100 19 l 243 135 q 385 304 265 151 q 526 439 493 439 q 576 400 576 439 q 518 319 576 386 q 397 163 439 224 q 356 65 356 103 q 376 28 356 28 q 399 33 386 28 q 628 225 499 78 q 644 235 636 235 q 653 228 653 235 q 513 76 653 200 q 389 -8 422 -1 m 458 551 q 422 529 458 551 q 376 507 386 507 q 367 514 367 507 q 371 525 367 521 q 518 638 414 556 q 542 650 533 650 q 554 633 554 650 q 543 606 554 617 q 458 551 531 596 z "},"":{"ha":590,"x_min":-19,"x_max":653,"o":"m 389 -8 q 359 -10 382 -10 q 313 8 336 -10 q 290 55 290 26 q 301 118 290 83 q 315 171 311 153 l 193 49 q 65 -15 121 -15 q 3 56 8 -15 q 3 64 3 60 q 71 218 3 121 l 3 157 q -12 149 -6 149 q -19 156 -19 149 q -6 178 -19 164 l 178 393 q 252 435 215 435 q 289 410 289 435 q 281 392 289 400 q 141 221 225 340 q 57 44 57 101 q 74 19 57 19 q 168 72 100 19 l 243 135 q 385 304 265 151 q 526 439 493 439 q 576 400 576 439 q 518 319 576 386 q 397 163 439 224 q 356 65 356 103 q 376 28 356 28 q 399 33 386 28 q 628 225 499 78 q 644 235 636 235 q 653 228 653 235 q 513 76 653 200 q 389 -8 422 -1 m 351 528 q 346 536 346 528 q 393 583 346 544 q 453 625 440 622 l 458 624 q 557 539 490 588 l 561 531 l 557 525 q 502 549 542 525 q 442 594 463 574 q 351 528 361 528 z "},"":{"ha":590,"x_min":-19,"x_max":653,"o":"m 389 -8 q 359 -10 382 -10 q 313 8 336 -10 q 290 55 290 26 q 301 118 290 83 q 315 171 311 153 l 193 49 q 65 -15 121 -15 q 3 56 8 -15 q 3 64 3 60 q 71 218 3 121 l 3 157 q -12 149 -6 149 q -19 156 -19 149 q -6 178 -19 164 l 178 393 q 252 435 215 435 q 289 410 289 435 q 281 392 289 400 q 141 221 225 340 q 57 44 57 101 q 74 19 57 19 q 168 72 100 19 l 243 135 q 385 304 265 151 q 526 439 493 439 q 576 400 576 439 q 518 319 576 386 q 397 163 439 224 q 356 65 356 103 q 376 28 356 28 q 399 33 386 28 q 628 225 499 78 q 644 235 636 235 q 653 228 653 235 q 513 76 653 200 q 389 -8 422 -1 m 376 521 q 360 533 368 521 q 351 557 351 544 q 385 594 351 569 q 438 618 419 618 q 440 617 439 618 l 440 618 q 442 615 442 617 q 425 596 433 604 l 406 551 q 376 521 393 521 m 513 521 q 497 533 504 521 q 489 557 489 544 q 522 594 489 569 q 566 618 556 618 q 578 617 576 618 l 578 615 q 561 596 569 604 l 543 551 q 513 521 529 521 z "},"":{"ha":514,"x_min":-78,"x_max":569,"o":"m -78 -161 q 38 -244 -11 -244 q 208 -118 117 -244 q 339 117 275 -25 l 392 244 l 188 85 q 36 11 93 11 q -12 32 6 11 q -31 79 -31 53 q 72 276 -31 139 q 222 413 175 413 q 269 381 269 413 q 147 237 269 368 q 24 60 24 106 q 47 42 24 42 q 226 146 92 42 q 428 318 360 250 q 471 372 443 336 q 529 403 497 403 q 561 372 561 403 q 499 274 561 367 q 433 175 436 181 q 301 -68 390 92 q 32 -285 167 -285 q -46 -247 -12 -285 q -78 -161 -79 -208 m 474 510 q 438 488 474 510 q 392 465 401 465 q 382 472 382 465 q 388 483 382 479 l 533 596 q 558 608 547 608 q 569 592 569 608 q 558 564 569 575 q 474 510 546 554 z "},"":{"ha":376,"x_min":-110,"x_max":640,"o":"m 443 667 l 392 657 q 385 665 383 657 q 442 686 392 686 q 514 671 493 686 q 535 640 535 656 q 531 611 535 625 q 479 520 528 597 q 386 381 431 443 q 442 406 400 393 q 517 419 494 419 q 603 391 567 419 q 640 314 640 363 q 512 101 640 201 q 289 0 383 0 q 201 8 226 0 q 149 42 175 15 q -72 -339 -72 -282 q -54 -356 -72 -356 l -7 -340 q -6 -343 -3 -340 q -29 -362 -8 -353 q -68 -371 -50 -371 q -98 -350 -86 -371 q -110 -316 -110 -329 q -107 -294 -110 -303 q -15 -96 -83 -206 l 397 517 q 460 638 453 608 q 443 667 468 667 m 569 328 q 507 381 569 381 q 393 354 444 381 q 332 303 374 344 q 165 65 188 99 q 271 39 194 39 q 458 126 347 39 q 569 328 569 213 z "},"":{"ha":514,"x_min":-78,"x_max":567,"o":"m -78 -161 q 38 -244 -11 -244 q 208 -118 117 -244 q 339 117 275 -25 l 392 244 l 188 85 q 36 11 93 11 q -12 32 6 11 q -31 79 -31 53 q 72 276 -31 139 q 222 413 175 413 q 269 381 269 413 q 147 237 269 368 q 24 60 24 106 q 47 42 24 42 q 226 146 92 42 q 428 318 360 250 q 471 372 443 336 q 529 403 497 403 q 561 372 561 403 q 499 274 561 367 q 433 175 436 181 q 301 -68 390 92 q 32 -285 167 -285 q -46 -247 -12 -285 q -78 -161 -79 -208 m 318 476 q 299 491 308 476 q 289 522 289 506 q 329 567 289 538 q 393 596 371 596 q 397 594 394 596 q 378 569 396 594 l 356 514 q 318 476 339 476 m 565 594 q 546 569 564 594 l 524 514 q 486 476 507 476 q 467 491 476 476 q 457 522 457 506 q 497 567 457 538 q 561 596 539 596 l 565 594 m 399 593 q 397 594 399 594 l 399 594 l 399 593 m 567 594 l 567 593 l 565 594 l 567 594 z "},"":{"ha":522,"x_min":-78,"x_max":583,"o":"m 407 515 q 388 508 407 508 q 293 501 369 508 l 263 461 q 97 219 117 276 q 276 346 149 257 q 458 442 414 442 q 503 407 503 442 q 502 399 503 401 q 406 268 501 397 q 310 78 310 139 q 333 46 310 46 q 558 226 408 49 q 577 239 571 239 q 583 231 583 239 q 446 81 583 203 q 329 6 360 6 q 247 101 247 6 q 285 222 247 156 q 379 376 324 288 q 57 114 201 288 q -37 -7 -24 -7 q -78 17 -78 -7 q -61 61 -78 29 q 194 493 85 319 q 147 492 175 492 q 130 504 140 492 q 118 525 119 517 q 224 536 135 533 q 376 700 326 683 q 382 701 379 701 q 407 672 400 701 q 318 535 403 646 q 392 524 378 531 q 407 515 407 517 z "},"":{"ha":314,"x_min":-21,"x_max":360,"o":"m 61 -17 q -21 76 -21 -17 q 61 284 -21 151 q 193 418 143 417 q 224 407 207 418 q 242 385 242 396 q 225 363 235 375 q 204 338 215 351 q 174 298 193 324 q 136 249 154 272 q 32 64 32 114 q 69 14 32 14 q 208 88 119 14 q 336 206 296 161 q 354 219 346 219 q 360 211 360 219 q 233 76 360 169 q 61 -17 107 -17 z "},"":{"ha":1908,"x_min":28,"x_max":2238,"o":"m 992 550 l 982 588 q 993 599 982 599 q 1004 594 997 599 q 1036 532 1036 571 q 986 456 1036 493 q 860 419 936 419 q 813 424 836 419 q 579 99 717 247 q 246 -96 396 -96 q 29 160 29 -96 q 142 500 29 371 q 358 611 236 611 q 424 600 390 611 q 506 465 506 568 q 421 249 506 361 q 247 136 336 136 q 147 244 147 136 q 160 308 147 275 q 190 342 174 342 q 203 329 203 342 q 190 294 203 322 q 178 245 178 267 q 201 205 178 224 q 249 186 224 186 q 401 287 331 186 q 471 483 471 388 q 418 581 471 557 q 381 588 400 588 q 183 451 282 588 q 88 150 88 314 q 126 3 88 60 q 238 -56 167 -56 q 715 443 421 -56 q 563 624 563 489 q 744 910 563 803 q 968 976 860 976 q 1121 949 1053 976 q 1217 835 1217 911 q 1209 803 1217 818 q 1193 788 1201 788 q 1150 806 1175 806 q 826 454 1032 806 q 850 453 838 453 q 944 481 897 453 q 992 550 992 508 m 1001 938 q 966 938 1001 938 q 838 897 931 938 q 691 776 746 856 q 636 597 636 697 q 739 478 636 497 q 936 727 815 603 q 1138 851 1057 851 q 1174 842 1158 851 q 1119 910 1172 881 q 1001 938 1072 938 m 1638 663 q 1609 651 1638 651 q 1552 680 1581 651 q 1524 749 1524 708 q 1549 824 1524 790 q 1725 926 1601 896 q 1903 949 1814 949 l 1914 949 q 1982 944 1925 949 q 1997 978 1979 963 q 2036 994 2014 994 q 2076 935 2078 994 q 2235 854 2226 908 q 2236 833 2236 842 q 2219 806 2236 806 q 2210 839 2203 806 q 2072 911 2175 890 q 1811 422 2047 799 q 1446 8 1654 175 q 996 -181 1207 -181 q 804 -115 867 -181 q 742 30 742 -50 q 772 167 742 110 q 985 388 844 308 q 1175 447 1088 447 q 1323 401 1269 447 q 1376 286 1376 356 q 1321 150 1376 211 q 1265 111 1286 111 q 1260 116 1260 111 q 1264 129 1260 121 q 1314 266 1314 203 q 1278 369 1314 329 q 1169 413 1239 413 q 1017 357 1100 413 q 846 153 913 289 q 811 12 811 85 q 865 -106 811 -61 q 1011 -151 919 -151 q 1749 468 1364 -151 q 1985 921 1979 838 q 1897 925 1901 925 q 1730 889 1832 925 q 1597 800 1628 853 q 1585 754 1585 779 q 1611 699 1585 729 q 1638 663 1638 668 z "},"":{"ha":593,"x_min":-54,"x_max":656,"o":"m 571 378 q 461 181 571 369 q 296 -104 354 -24 q 58 -285 169 -285 q -19 -258 17 -285 q -54 -203 -54 -231 q -42 -176 -54 -176 q -13 -212 -40 -176 q 50 -247 14 -247 q 303 4 161 -247 q 422 258 390 161 q 233 75 340 167 q 61 -17 125 -17 q -21 76 -21 -17 q 61 284 -21 151 q 193 418 143 417 q 224 407 207 418 q 242 385 242 396 q 225 363 235 375 q 204 338 215 351 q 174 298 193 324 q 136 249 154 272 q 32 64 32 114 q 69 14 32 14 q 232 106 129 14 q 380 263 335 197 q 432 333 425 328 l 478 382 q 538 408 506 408 q 571 378 571 408 m 597 569 q 637 556 618 569 q 656 524 656 542 q 638 494 656 507 q 600 481 621 481 q 562 495 579 481 q 544 529 544 510 q 597 569 544 569 m 301 567 q 341 553 322 567 q 360 522 360 540 q 342 491 360 504 q 304 478 325 478 q 266 493 283 478 q 249 528 249 508 q 301 567 249 567 z "},"":{"ha":1300,"x_min":31,"x_max":2203,"o":"m 1156 968 q 1185 947 1185 968 q 951 463 1185 863 q 982 375 961 425 l 1396 690 q 1717 922 1633 871 q 2082 1033 1903 1033 q 2176 1017 2133 1033 q 2203 981 2203 1007 q 2189 954 2203 954 q 2172 965 2181 954 q 2119 976 2163 976 q 1976 954 2075 976 q 1624 799 1821 919 q 1293 564 1500 722 q 994 346 1086 406 q 1176 69 1065 197 q 1483 -129 1347 -129 q 1550 -78 1550 -129 q 1548 -58 1550 -68 q 1553 -35 1546 -49 q 1569 -21 1560 -21 q 1593 -64 1588 -21 q 1594 -78 1594 -71 q 1549 -151 1594 -122 q 1442 -179 1504 -179 q 1339 -160 1381 -179 q 1117 31 1229 -106 q 946 317 1006 167 q 819 268 869 272 q 590 33 726 147 q 431 -67 517 -29 q 265 -106 344 -106 q 92 -49 153 -106 q 31 122 31 7 q 53 228 31 179 q 267 444 124 385 q 424 479 346 479 q 529 428 503 479 q 539 390 539 410 q 533 364 539 369 q 518 374 528 358 q 447 442 485 435 q 411 444 422 444 q 208 354 303 444 q 86 99 86 236 q 256 -71 86 -51 q 267 -71 261 -71 q 424 -17 328 -71 q 756 289 579 72 q 724 375 724 318 q 766 483 724 432 q 882 533 808 533 q 921 529 903 533 q 1056 781 990 646 q 1121 938 1121 917 q 1113 940 1121 940 q 1016 897 1104 940 q 890 828 928 853 q 799 749 853 803 q 744 663 744 696 q 766 632 744 647 q 844 617 788 617 q 851 609 851 614 q 813 598 851 604 q 753 592 775 592 q 703 633 703 592 q 763 750 703 682 q 893 857 822 818 q 1156 968 1100 968 m 935 346 q 917 401 924 374 q 861 322 889 361 q 886 324 875 322 q 935 346 897 326 m 882 465 q 845 472 865 472 q 805 447 825 472 q 785 394 785 422 q 800 346 785 365 q 882 465 868 443 m 794 -197 q 750 -302 794 -256 q 690 -349 706 -349 q 674 -346 674 -349 q 703 -309 674 -343 q 733 -254 733 -275 q 715 -217 733 -233 q 696 -192 696 -200 q 736 -150 696 -150 q 776 -164 757 -150 q 794 -197 794 -178 z "},"":{"ha":547,"x_min":-39,"x_max":608,"o":"m 285 -17 q 99 157 175 -17 q 11 -7 79 128 q -39 46 -39 13 q 140 374 -39 106 q 386 689 319 642 q 408 693 392 693 q 451 671 451 693 q 355 546 451 660 q 247 408 258 432 q 449 474 374 474 q 522 439 492 474 q 551 379 551 410 q 551 371 551 375 q 440 240 540 292 q 290 197 360 197 q 193 215 221 197 q 180 211 185 217 q 178 197 175 206 q 307 25 217 25 q 428 78 354 25 q 583 226 503 131 q 601 236 593 236 q 608 228 608 236 q 599 207 608 221 q 457 63 524 115 q 285 -17 356 -17 m 485 408 q 472 431 485 419 q 446 442 460 442 q 266 379 371 442 q 138 238 161 317 q 204 233 150 238 q 368 285 267 233 q 485 408 485 343 m 176 -197 q 132 -302 176 -256 q 72 -349 88 -349 q 56 -346 56 -349 q 85 -309 56 -343 q 115 -254 115 -275 q 97 -217 115 -233 q 78 -192 78 -200 q 118 -150 78 -150 q 158 -164 139 -150 q 176 -197 176 -178 z "},"":{"ha":914,"x_min":4,"x_max":1193,"o":"m 311 265 l 344 267 l 411 267 q 469 349 425 288 q 356 497 356 400 q 421 628 356 578 q 498 654 457 654 q 560 611 539 654 q 560 601 564 603 q 556 600 557 599 q 496 628 528 628 q 493 628 494 628 q 423 585 453 628 q 393 506 393 542 q 393 497 393 501 q 493 374 393 425 q 547 452 510 397 q 604 538 583 507 q 1064 943 881 943 q 1193 822 1193 943 q 1086 564 1193 713 q 865 376 1003 447 q 610 306 726 306 q 538 315 567 306 l 500 267 l 501 267 q 580 265 542 265 q 642 268 618 265 q 568 239 649 253 l 464 222 l 350 81 q 526 -50 399 11 q 744 -111 653 -111 q 881 -86 836 -111 q 942 6 942 -54 q 939 35 942 21 q 948 49 936 49 q 969 28 960 49 q 978 -7 978 8 q 926 -99 978 -56 q 749 -151 861 -151 q 515 -99 636 -151 q 317 44 394 -46 q 106 -67 206 -67 q 53 -56 75 -67 q 4 50 4 -28 q 69 242 4 128 q 171 363 133 356 q 228 306 196 363 l 315 136 l 379 222 l 368 224 q 285 242 285 231 q 293 259 285 253 q 308 265 301 265 l 311 265 m 1069 919 q 897 803 1000 919 q 731 583 826 721 q 560 346 636 444 q 600 342 578 342 q 822 408 697 342 q 1019 576 947 475 q 1146 844 1146 753 q 1097 915 1146 900 q 1069 919 1085 919 m 281 90 q 211 208 247 136 q 163 293 175 279 q 147 307 151 307 q 142 307 143 307 q 88 218 117 303 q 58 52 58 133 q 108 -29 58 -29 q 195 8 144 -29 q 281 90 246 46 z "},"":{"ha":360,"x_min":-43,"x_max":424,"o":"m 156 289 q 256 286 206 286 q 329 289 306 286 q 253 258 339 274 l 124 239 q 54 71 54 131 q 100 28 54 28 q 218 76 146 28 q 358 208 290 125 q 385 231 375 231 q 394 222 394 231 q 338 150 394 214 q 106 -3 199 -3 q 28 19 60 -3 q -4 94 -4 40 q 43 242 -4 147 q -43 263 -43 247 q -35 279 -43 272 q -17 286 -26 286 q 19 288 -7 286 l 67 288 q 149 428 90 332 q 379 692 311 692 q 408 681 393 692 q 424 658 422 671 q 304 498 392 615 q 156 289 217 381 z "},"":{"ha":1839,"x_min":33,"x_max":1958,"o":"m 1579 565 q 1715 514 1715 565 q 1707 489 1715 503 q 1586 438 1674 438 q 1470 458 1529 438 q 1379 500 1411 478 q 1083 326 1200 447 q 1000 211 1051 267 q 972 106 972 156 q 1037 -21 972 28 q 1226 -69 1101 -69 q 1299 -65 1261 -69 q 1650 76 1519 -42 q 1760 281 1760 174 q 1678 365 1760 365 q 1451 260 1579 365 q 1397 193 1419 233 q 1375 114 1375 153 q 1414 65 1375 75 q 1428 51 1428 60 q 1400 40 1428 38 q 1333 128 1333 42 q 1421 289 1333 214 q 1674 392 1540 392 q 1800 329 1772 392 q 1811 271 1811 300 q 1668 28 1811 142 q 1235 -111 1497 -111 q 978 -51 1072 -111 q 883 107 883 10 q 338 -82 633 -82 q 279 -81 300 -82 q 101 -8 168 -75 q 33 167 33 60 q 90 400 33 274 q 372 711 163 560 q 872 883 614 883 q 1083 829 1011 883 q 1156 694 1156 775 q 1117 571 1156 644 q 1128 497 1128 533 q 1118 414 1128 460 q 1356 522 1218 478 q 1310 635 1310 575 q 1339 735 1310 694 q 1510 863 1396 813 q 1782 922 1646 922 q 1909 897 1861 922 q 1957 817 1957 871 q 1917 727 1957 764 q 1835 690 1878 690 q 1792 711 1792 690 q 1810 724 1792 724 l 1838 719 q 1888 749 1865 719 q 1911 811 1911 779 q 1857 881 1911 858 q 1792 894 1822 894 q 1749 893 1761 894 q 1515 810 1631 886 q 1382 613 1382 722 q 1410 538 1382 572 q 1579 565 1499 565 m 1099 613 q 1113 687 1113 646 q 1082 771 1113 728 q 871 854 1022 854 q 475 724 661 854 q 185 397 289 594 q 108 140 108 254 q 293 -53 108 -43 q 332 -54 313 -54 q 853 167 606 -54 q 1044 468 1031 325 q 794 279 972 389 l 783 276 q 782 278 782 276 q 819 315 782 283 l 897 379 q 1043 522 997 467 q 973 652 1033 600 q 835 728 913 704 q 715 740 796 738 q 633 746 633 743 q 636 751 633 749 q 759 772 700 772 q 894 754 818 772 q 1099 613 1040 719 m 1433 515 q 1570 468 1492 468 q 1649 511 1649 468 q 1579 531 1649 531 q 1433 515 1510 531 z "},"":{"ha":644,"x_min":-14,"x_max":729,"o":"m 358 -18 q 331 -14 343 -18 q 242 86 242 11 l 242 100 q 82 -3 151 -3 l 60 -3 q 3 35 24 -3 q -14 93 -14 61 q 108 327 -14 176 q 304 478 229 478 q 375 403 375 478 q 378 381 375 400 q 381 351 382 363 q 378 333 379 339 q 378 326 378 328 q 583 439 493 439 q 635 422 615 439 q 656 379 656 404 q 539 231 656 301 q 347 160 422 160 q 328 163 336 160 q 307 83 307 125 q 376 11 307 11 q 554 104 444 11 q 699 250 636 169 q 720 267 711 267 q 729 258 729 267 q 718 235 729 250 q 537 58 642 133 q 358 -18 432 -18 m 328 315 q 292 369 328 369 q 272 367 283 369 q 138 256 225 367 q 51 92 51 144 q 85 39 51 39 q 238 149 144 39 l 271 190 q 311 253 281 208 q 328 296 328 282 q 328 315 328 310 m 621 382 q 585 399 621 399 q 485 344 550 399 q 349 193 397 272 q 367 190 357 190 q 508 247 419 190 q 618 369 596 303 q 621 382 621 376 z "},"":{"ha":1044,"x_min":-58,"x_max":1267,"o":"m 794 375 q 665 386 725 375 q 747 110 685 325 q 808 -17 767 47 q 914 -99 865 -99 q 1011 19 972 -99 q 1026 47 1018 47 q 1037 31 1033 47 q 1040 10 1040 15 q 1001 -79 1040 -25 q 889 -156 950 -156 q 776 -94 828 -156 q 676 128 725 -33 q 626 335 626 290 q 628 346 626 342 q 389 54 461 125 q 60 -103 228 -103 q -58 -14 -58 -103 q -31 84 -58 31 q 38 178 -3 138 q 108 218 78 218 q 114 215 114 218 q 79 181 114 208 q 13 102 44 153 q -19 10 -19 51 q 79 -64 -19 -64 q 588 369 264 -64 q 618 403 606 393 l 596 411 q 567 404 578 404 q 538 428 538 404 q 581 469 538 460 q 590 471 586 471 q 649 446 615 471 q 774 585 771 582 q 910 689 875 689 q 946 658 946 689 q 940 632 946 644 q 925 619 933 619 q 917 628 917 617 q 925 644 917 633 q 913 664 926 664 q 697 428 868 664 q 767 425 739 425 q 1169 592 1089 425 q 1186 658 1186 628 q 1131 764 1186 719 q 842 836 1042 836 q 433 735 642 836 q 181 444 181 611 q 249 390 181 390 q 393 440 317 390 q 496 539 469 490 q 515 557 506 557 q 519 546 524 557 q 402 413 493 468 q 213 358 311 358 q 114 421 114 358 q 114 431 114 425 q 337 740 135 613 q 824 867 539 867 q 1200 775 1089 867 q 1267 644 1267 719 q 1251 575 1267 613 q 1075 424 1208 474 q 794 375 942 375 m 1032 963 q 996 940 1032 963 q 950 918 960 918 q 940 925 940 918 q 946 936 940 932 l 1092 1049 q 1117 1061 1106 1061 q 1128 1044 1128 1061 q 1117 1017 1128 1028 q 1032 963 1104 1007 z "},"":{"ha":547,"x_min":-7,"x_max":604,"o":"m 283 -7 q 179 108 179 -7 q 210 236 179 167 q 276 353 240 306 q 258 351 269 351 q 203 399 225 351 l 100 265 q 0 158 14 158 q -7 164 -7 158 q 17 204 -7 178 q 188 442 138 344 q 268 563 219 563 q 300 535 300 563 q 265 464 300 507 l 232 419 q 275 390 232 390 q 331 408 300 390 l 367 431 q 381 432 369 432 q 404 418 392 432 q 413 393 417 404 l 317 272 q 228 92 228 158 q 289 26 228 26 q 446 94 353 26 q 547 185 501 135 q 594 235 590 235 q 604 224 604 235 q 592 200 604 214 l 547 150 q 464 75 510 111 q 283 -7 354 -7 m 449 600 q 413 578 449 600 q 367 556 376 556 q 357 563 357 556 q 363 574 357 569 l 508 686 q 532 699 524 699 q 544 682 544 699 q 533 654 544 665 q 449 600 521 644 z "},"":{"ha":1044,"x_min":-58,"x_max":1267,"o":"m 794 375 q 665 386 725 375 q 747 110 685 325 q 808 -17 767 47 q 914 -99 865 -99 q 1011 19 972 -99 q 1026 47 1018 47 q 1037 31 1033 47 q 1040 10 1040 15 q 1001 -79 1040 -25 q 889 -156 950 -156 q 776 -94 828 -156 q 676 128 725 -33 q 626 335 626 290 q 628 346 626 342 q 389 54 461 125 q 60 -103 228 -103 q -58 -14 -58 -103 q -31 84 -58 31 q 38 178 -3 138 q 108 218 78 218 q 114 215 114 218 q 79 181 114 208 q 13 102 44 153 q -19 10 -19 51 q 79 -64 -19 -64 q 588 369 264 -64 q 618 403 606 393 l 596 411 q 567 404 578 404 q 538 428 538 404 q 581 469 538 460 q 590 471 586 471 q 649 446 615 471 q 774 585 771 582 q 910 689 875 689 q 946 658 946 689 q 940 632 946 644 q 925 619 933 619 q 917 628 917 617 q 925 644 917 633 q 913 664 926 664 q 697 428 868 664 q 767 425 739 425 q 1169 592 1089 425 q 1186 658 1186 628 q 1131 764 1186 719 q 842 836 1042 836 q 433 735 642 836 q 181 444 181 611 q 249 390 181 390 q 393 440 317 390 q 496 539 469 490 q 515 557 506 557 q 519 546 524 557 q 402 413 493 468 q 213 358 311 358 q 114 421 114 358 q 114 431 114 425 q 337 740 135 613 q 824 867 539 867 q 1200 775 1089 867 q 1267 644 1267 719 q 1251 575 1267 613 q 1075 424 1208 474 q 794 375 942 375 m 503 -197 q 458 -302 503 -256 q 398 -349 414 -349 q 382 -346 382 -349 q 412 -309 382 -343 q 442 -254 442 -275 q 423 -217 442 -233 q 404 -192 404 -200 q 444 -150 404 -150 q 484 -164 465 -150 q 503 -197 503 -178 z "},"":{"ha":547,"x_min":-37,"x_max":604,"o":"m 283 -7 q 179 108 179 -7 q 210 236 179 167 q 276 353 240 306 q 258 351 269 351 q 203 399 225 351 l 100 265 q 0 158 14 158 q -7 164 -7 158 q 17 204 -7 178 q 188 442 138 344 q 268 563 219 563 q 300 535 300 563 q 265 464 300 507 l 232 419 q 275 390 232 390 q 331 408 300 390 l 367 431 q 381 432 369 432 q 404 418 392 432 q 413 393 417 404 l 317 272 q 228 92 228 158 q 289 26 228 26 q 446 94 353 26 q 547 185 501 135 q 594 235 590 235 q 604 224 604 235 q 592 200 604 214 l 547 150 q 464 75 510 111 q 283 -7 354 -7 m 83 -197 q 39 -302 83 -256 q -22 -349 -6 -349 q -37 -346 -37 -349 q -8 -309 -37 -343 q 22 -254 22 -275 q 3 -217 22 -233 q -15 -192 -15 -200 q 25 -150 -15 -150 q 65 -164 46 -150 q 83 -197 83 -178 z "},"":{"ha":1039,"x_min":-24,"x_max":1267,"o":"m 1099 594 q 1010 574 1047 574 q 974 589 974 574 q 1015 600 974 599 q 1074 610 1056 601 q 1126 692 1126 638 q 1111 750 1126 719 q 896 829 1067 829 q 699 799 797 829 q 533 708 600 769 q 467 593 467 646 q 626 475 467 513 l 790 444 q 938 394 889 426 q 1001 283 1001 356 q 992 221 1001 254 q 763 -8 947 71 q 399 -76 608 -76 q 294 -71 339 -76 q 411 -114 339 -96 q 417 -119 417 -115 q 388 -132 417 -132 q 246 -64 331 -132 q 74 0 131 -46 q 7 86 38 29 q -24 189 -24 143 q -6 265 -24 235 q 100 339 36 339 q 157 257 149 339 q 183 76 176 99 q 254 -39 204 8 q 381 -51 313 -51 q 675 8 531 -51 q 883 178 819 68 q 910 254 910 221 q 794 356 910 319 l 550 411 q 430 471 475 429 q 385 567 385 513 q 489 733 385 650 q 683 833 568 797 q 908 868 797 868 q 1090 836 1018 868 q 1183 710 1183 793 q 1099 594 1183 628 m 204 -25 q 101 218 124 64 q 78 306 89 306 q 57 299 67 306 q 38 272 47 293 q 28 218 28 251 q 103 35 28 111 q 204 -25 140 -4 m 1210 1118 q 1230 1129 1210 1118 q 1258 1140 1250 1140 q 1267 1126 1267 1140 q 1183 1042 1267 1113 q 1079 969 1096 971 l 1071 974 q 897 1122 1022 1028 q 886 1139 886 1133 q 896 1146 886 1144 q 974 1113 925 1143 q 1040 1069 1024 1082 q 1069 1042 1056 1056 q 1086 1026 1082 1029 q 1210 1118 1169 1096 z "},"":{"ha":499,"x_min":-29,"x_max":664,"o":"m 256 21 q 156 -3 215 -3 q 66 36 97 -3 q 13 160 35 75 q -22 135 -12 135 q -29 144 -29 135 q -22 161 -29 154 q 133 325 24 218 l 308 489 q 397 560 383 560 q 442 526 442 560 q 428 494 442 510 q 409 469 415 478 q 396 451 403 460 q 345 274 371 408 q 306 86 319 139 q 543 236 421 88 q 564 250 557 250 q 571 241 571 250 q 558 217 571 232 q 408 85 478 122 q 300 50 367 64 l 256 21 m 68 175 q 99 98 68 128 q 169 68 131 68 q 229 83 208 68 q 284 211 257 99 q 317 410 311 324 l 322 457 q 159 310 246 400 q 69 190 72 219 q 68 175 68 182 m 607 783 q 627 794 607 783 q 656 806 647 806 q 664 792 664 806 q 581 707 664 778 q 476 635 493 636 l 468 639 q 294 788 419 693 q 283 804 283 799 q 293 811 283 810 q 372 778 322 808 q 437 734 421 747 q 466 708 453 721 q 483 692 479 694 q 607 783 567 761 z "},"":{"ha":1225,"x_min":19,"x_max":1319,"o":"m 467 -353 q 363 -315 414 -353 q 313 -232 313 -278 q 342 -203 313 -203 q 363 -206 349 -203 q 390 -285 379 -264 q 471 -322 414 -322 q 890 144 642 -322 l 1140 590 q 760 192 872 304 q 607 56 649 81 q 469 6 524 6 q 390 99 390 6 q 485 328 390 210 q 544 399 492 336 q 666 550 596 463 q 783 719 736 638 q 829 833 829 800 q 810 875 829 865 q 718 896 769 896 q 311 718 571 896 q 139 547 203 644 q 75 368 75 450 q 154 265 75 286 q 203 258 179 258 q 360 319 274 258 q 474 392 461 388 q 364 279 460 340 q 167 214 258 214 q 120 219 154 214 q 53 269 86 224 q 19 381 19 315 q 296 767 19 569 q 508 872 376 825 q 722 919 640 919 q 845 894 803 919 q 888 812 888 868 q 810 637 888 756 q 564 314 732 518 q 500 209 529 274 q 471 106 471 144 q 501 68 471 68 q 590 111 531 68 q 928 404 760 232 q 1176 693 1097 576 q 1297 775 1233 775 q 1319 761 1319 775 q 1317 750 1319 758 q 840 -61 1142 444 q 651 -280 751 -207 q 467 -353 550 -353 m 996 868 q 976 883 986 868 q 967 913 967 897 q 1007 958 967 929 q 1071 988 1049 988 q 1075 986 1072 988 q 1056 961 1074 986 l 1033 906 q 996 868 1017 868 m 1243 986 q 1224 961 1242 986 l 1201 906 q 1164 868 1185 868 q 1144 883 1154 868 q 1135 913 1135 897 q 1175 958 1135 929 q 1239 988 1217 988 l 1243 986 m 1076 985 q 1075 986 1076 986 l 1076 986 l 1076 985 m 1244 985 q 1243 986 1244 986 l 1244 986 l 1244 985 z "},"":{"ha":1026,"x_min":-114,"x_max":1307,"o":"m 1261 740 q 1113 763 1254 740 q 574 421 878 629 q 83 36 271 213 q 515 79 296 60 q 588 81 540 81 q 861 47 761 81 q 961 -42 961 14 q 921 -115 961 -75 q 849 -164 868 -164 q 842 -152 842 -164 q 858 -126 842 -140 q 874 -99 874 -111 q 744 -19 874 -56 q 492 19 610 19 q 217 -3 374 19 q -29 -26 61 -26 q -39 -26 -35 -26 q -67 -46 -61 -46 q -69 -41 -69 -46 q -61 -22 -69 -36 q -112 7 -112 -19 q -90 50 -112 28 q -51 72 -68 72 q -46 69 -49 72 q 14 50 -39 58 q 1021 776 365 417 l 979 785 q 725 807 881 807 q 454 765 569 807 q 379 735 429 760 q 299 639 299 694 q 302 619 299 631 q 301 600 306 607 q 283 592 296 592 q 258 611 269 592 q 246 653 246 631 q 253 699 246 675 q 424 829 279 788 q 670 850 497 850 q 1013 819 843 850 q 1082 807 1033 818 l 1158 849 q 1207 854 1169 854 q 1244 840 1244 854 q 1232 831 1244 835 q 1161 790 1226 826 q 1238 786 1224 786 q 1265 793 1253 786 q 1273 814 1276 800 q 1275 828 1269 828 q 1295 809 1283 828 q 1307 775 1307 790 q 1261 740 1307 740 m 1175 1118 q 1195 1129 1175 1118 q 1224 1140 1215 1140 q 1232 1126 1232 1140 q 1149 1042 1232 1113 q 1044 969 1061 971 l 1036 974 q 863 1122 988 1028 q 851 1139 851 1133 q 861 1146 851 1144 q 940 1113 890 1143 q 1005 1069 989 1082 q 1034 1042 1021 1056 q 1051 1026 1047 1029 q 1175 1118 1135 1096 z "},"":{"ha":536,"x_min":-18,"x_max":576,"o":"m 93 57 q 14 18 38 18 q -18 53 -18 18 q -10 83 -18 65 q 7 101 -1 101 q 13 81 19 101 q 25 60 8 60 q 65 76 42 60 l 13 117 q 10 126 10 119 q 24 147 10 133 q 45 160 38 160 q 113 113 53 160 q 365 368 285 307 q 203 401 256 401 q 174 399 188 401 q 144 383 160 397 q 128 350 128 368 q 143 320 128 332 q 158 301 158 308 q 148 294 158 294 q 114 322 138 294 q 92 379 92 350 q 163 443 92 428 q 239 450 200 450 q 431 400 278 450 q 472 411 450 411 q 531 376 531 411 q 513 351 531 363 q 469 339 494 339 q 424 349 444 339 q 140 90 292 267 l 190 51 q 329 13 250 13 q 446 38 408 13 q 483 101 483 63 q 476 135 483 119 q 489 151 469 151 q 503 135 496 151 q 510 97 510 119 q 457 6 510 42 q 321 -31 404 -31 q 169 4 229 -31 q 93 57 146 17 m 519 635 q 540 646 519 635 q 568 657 560 657 q 576 643 576 657 q 493 558 576 629 q 389 486 406 488 l 381 490 q 207 639 332 544 q 196 656 196 650 q 206 663 196 661 q 284 629 235 660 q 349 585 333 599 q 378 559 365 572 q 396 543 392 546 q 519 635 479 613 z "},"":{"ha":472,"x_min":-186,"x_max":478,"o":"m 332 76 q 204 -220 332 -37 q -39 -403 76 -403 q -186 -244 -186 -403 q -62 69 -186 -139 q 213 450 63 278 q 444 646 379 646 q 467 636 456 646 q 478 610 478 626 q 464 583 478 593 q 290 442 382 542 q 151 269 197 342 q 288 214 243 269 q 332 76 332 158 m 275 54 q 249 164 275 121 q 139 222 214 222 q -26 10 76 222 q -129 -272 -129 -203 q -42 -368 -129 -368 q 162 -206 49 -368 q 275 54 275 -44 z "},"":{"ha":514,"x_min":110,"x_max":454,"o":"m 142 507 q 111 517 111 499 q 125 533 111 521 q 263 625 231 597 q 313 660 304 660 q 394 593 333 660 q 427 556 400 588 q 454 512 454 525 q 443 499 454 499 q 383 543 432 499 q 304 606 335 588 q 258 576 296 600 q 186 531 219 553 q 142 507 153 508 z "},"":{"ha":514,"x_min":79,"x_max":460,"o":"m 403 635 q 423 646 403 635 q 451 657 443 657 q 460 643 460 657 q 376 558 460 629 q 272 486 289 488 l 264 490 q 90 639 215 544 q 79 656 79 650 q 89 663 79 661 q 167 629 118 660 q 233 585 217 599 q 262 559 249 572 q 279 543 275 546 q 403 635 363 613 z "},"":{"ha":256,"x_min":64,"x_max":322,"o":"m 171 508 q 69 581 92 508 q 64 606 64 593 q 71 618 64 618 q 90 597 78 618 q 186 539 121 539 q 303 628 251 539 q 318 640 308 640 q 322 635 322 640 l 319 626 q 171 508 264 508 z "},"":{"ha":240,"x_min":76,"x_max":188,"o":"m 182 793 q 186 792 185 793 q 167 767 185 792 l 143 711 q 106 674 128 674 q 86 688 96 674 q 76 719 76 703 q 118 764 76 735 q 182 793 160 793 m 188 790 q 186 792 188 792 q 188 790 186 790 z "},"":{"ha":318,"x_min":60,"x_max":244,"o":"m 185 804 q 227 783 210 804 q 244 722 244 761 q 205 642 244 682 q 117 601 165 601 q 60 654 60 601 q 75 719 60 686 q 114 760 90 753 q 185 804 138 804 m 132 628 q 188 660 164 628 q 211 736 211 693 q 181 779 211 779 q 140 761 164 779 l 156 753 q 133 716 154 749 q 111 656 111 683 q 132 628 111 628 z "},"":{"ha":325,"x_min":53,"x_max":279,"o":"m 279 -153 q 219 -190 279 -169 q 129 -211 158 -211 q 53 -153 53 -211 q 81 -53 53 -115 q 140 11 110 10 l 144 7 q 97 -115 97 -58 q 160 -172 97 -172 q 222 -156 183 -172 l 264 -140 q 279 -153 279 -140 z "},"":{"ha":378,"x_min":40,"x_max":349,"o":"m 349 676 q 293 618 349 656 q 252 607 275 607 q 184 626 229 607 q 116 644 139 644 q 71 626 93 644 q 42 608 49 608 q 40 611 40 610 q 100 668 40 633 q 147 682 122 682 q 215 667 171 682 q 287 653 258 653 q 340 682 315 653 q 349 676 349 682 z "},"":{"ha":614,"x_min":196,"x_max":425,"o":"m 233 786 q 243 799 236 799 q 259 782 250 799 q 266 755 268 765 q 240 700 264 744 q 209 656 215 656 q 199 661 203 656 q 196 669 196 667 q 233 786 196 671 m 392 786 q 401 799 394 799 q 417 784 408 799 q 425 759 425 769 q 399 702 425 749 q 367 656 374 656 q 354 674 354 656 l 392 786 z "},"":{"ha":469,"x_min":14,"x_max":461,"o":"m 269 17 l 250 14 q 214 63 214 14 q 283 333 214 175 l 189 353 q 168 253 183 306 q 56 -14 93 -14 q 47 -11 47 -14 q 133 243 114 129 l 153 353 l 150 353 q 22 297 78 353 l 17 297 q 14 303 14 297 q 28 325 21 319 q 172 397 104 397 q 265 381 190 397 q 368 364 339 364 q 458 408 397 364 q 461 403 461 408 q 410 351 461 375 q 325 328 360 328 l 281 214 q 246 78 246 124 q 269 33 246 33 q 283 35 274 35 q 292 29 292 35 q 272 15 281 15 l 269 17 z "},"":{"ha":564,"x_min":26,"x_max":551,"o":"m 292 361 l 436 360 q 550 364 515 360 q 551 358 551 361 q 542 347 551 354 q 451 322 518 333 q 328 302 383 311 q 241 293 274 293 q 149 297 208 293 q 26 326 26 306 q 38 350 26 340 q 60 360 50 360 l 81 360 l 115 361 l 226 361 q 292 361 261 361 z "},"":{"ha":840,"x_min":26,"x_max":844,"o":"m 397 361 l 657 358 q 844 364 785 358 q 647 319 854 342 q 401 296 565 313 q 197 286 367 286 q 26 307 26 286 q 40 341 26 322 q 61 360 53 360 q 89 360 75 360 l 146 361 l 310 361 q 397 361 361 361 z "},"":{"ha":175,"x_min":19,"x_max":140,"o":"m 19 471 q 65 577 19 531 q 125 624 110 624 q 140 620 140 624 q 110 583 140 617 q 81 528 81 550 q 99 491 81 507 q 118 467 118 475 q 76 425 118 425 q 38 439 57 425 q 19 471 19 453 z "},"":{"ha":193,"x_min":74,"x_max":196,"o":"m 196 560 q 151 453 196 500 q 85 407 106 407 q 74 411 74 407 q 88 428 79 418 q 106 447 97 438 q 135 501 135 479 q 116 539 135 522 q 97 564 97 556 q 138 606 97 606 q 177 592 158 606 q 196 560 196 579 z "},"":{"ha":119,"x_min":75,"x_max":121,"o":"m 121 99 q 110 17 121 86 q 94 -58 99 -51 q 86 -64 93 -64 q 82 -53 82 -64 q 75 99 82 36 q 112 103 104 103 q 121 101 119 103 l 121 99 z "},"":{"ha":286,"x_min":19,"x_max":282,"o":"m 160 471 q 205 577 160 531 q 266 624 250 624 q 282 620 282 624 q 251 583 282 617 q 221 528 221 550 q 240 491 221 507 q 258 467 258 475 q 218 425 258 425 q 178 438 197 425 q 160 471 160 451 m 19 471 q 65 577 19 531 q 125 624 110 624 q 140 620 140 624 q 110 583 140 617 q 81 528 81 550 q 99 491 81 507 q 118 467 118 475 q 76 425 118 425 q 38 439 57 425 q 19 471 19 453 z "},"":{"ha":286,"x_min":-7,"x_max":256,"o":"m 256 560 q 211 453 256 500 q 151 407 167 407 q 135 410 135 407 q 165 448 135 414 q 194 502 194 482 q 176 539 194 522 q 157 564 157 556 q 199 606 157 606 q 238 592 219 606 q 256 560 256 579 m 115 560 q 70 453 115 500 q 4 407 25 407 q -7 411 -7 407 q 8 428 -1 418 q 25 447 17 438 q 54 501 54 479 q 35 539 54 522 q 17 564 17 556 q 57 606 17 606 q 97 592 78 606 q 115 560 115 579 z "},"":{"ha":217,"x_min":75,"x_max":217,"o":"m 217 99 q 206 17 217 86 q 190 -58 194 -51 q 182 -64 189 -64 q 178 -53 178 -64 q 171 99 178 36 q 208 103 200 103 q 217 101 215 103 l 217 99 m 121 99 q 110 17 121 86 q 94 -58 99 -51 q 86 -64 93 -64 q 82 -53 82 -64 q 75 99 82 36 q 112 103 104 103 q 121 101 119 103 l 121 99 z "},"":{"ha":538,"x_min":39,"x_max":528,"o":"m 528 574 q 513 567 528 567 q 293 561 406 567 q 225 19 257 144 q 218 15 222 15 q 214 21 214 15 q 232 244 214 22 q 256 560 250 467 l 85 550 q 58 562 75 550 q 39 582 42 574 q 257 594 47 590 q 263 844 263 690 q 280 862 263 851 q 307 874 297 872 l 310 872 l 310 846 q 296 594 310 760 q 521 578 450 592 q 528 574 528 575 z "},"":{"ha":619,"x_min":3,"x_max":575,"o":"m 49 -371 q 44 -372 47 -372 q 3 -283 3 -372 q 190 281 3 -85 q 131 263 185 279 q 69 249 94 249 q 44 272 44 249 q 118 306 44 290 q 210 321 149 310 l 265 419 q 193 399 254 418 q 128 383 136 383 q 99 407 99 383 q 182 443 99 425 l 288 460 q 492 757 413 678 q 547 783 518 783 q 575 775 575 783 q 569 767 575 772 q 349 469 478 661 q 472 485 444 485 q 503 476 499 485 q 322 429 490 460 q 260 329 289 379 q 411 350 378 350 q 449 342 444 350 q 350 308 436 325 l 238 289 q 40 -285 40 -56 l 49 -371 z "},"":{"ha":746,"x_min":75,"x_max":676,"o":"m 163 115 q 75 329 75 206 q 163 541 75 453 q 376 629 251 629 q 588 541 500 629 q 676 328 676 453 q 588 116 676 204 q 376 28 500 28 q 163 115 253 28 z "},"":{"ha":772,"x_min":158,"x_max":722,"o":"m 664 88 q 703 74 685 88 q 722 42 722 60 q 704 12 722 25 q 665 -1 686 -1 q 628 13 644 -1 q 611 47 611 28 q 664 88 611 88 m 440 88 q 480 74 461 88 q 499 42 499 60 q 481 12 499 25 q 442 -1 463 -1 q 404 13 421 -1 q 388 47 388 28 q 440 88 388 88 m 211 88 q 251 74 232 88 q 269 42 269 60 q 251 12 269 25 q 213 -1 233 -1 q 175 13 192 -1 q 158 47 158 28 q 211 88 158 88 z "},"":{"ha":1201,"x_min":132,"x_max":1168,"o":"m 896 979 q 910 982 901 982 q 927 973 918 982 q 936 954 936 964 q 924 929 936 944 q 494 388 736 714 q 207 -54 251 63 q 199 -102 199 -79 q 209 -131 199 -125 q 214 -146 219 -136 q 185 -160 204 -160 q 161 -114 161 -160 q 194 22 161 -68 q 460 434 226 111 q 842 924 694 757 q 673 861 772 890 q 507 829 574 832 q 508 817 508 824 q 415 654 508 768 q 228 519 306 519 l 206 519 q 149 557 169 519 q 132 615 132 583 q 253 849 132 699 q 450 1000 375 1000 q 521 925 521 1000 q 514 875 521 906 q 528 872 515 872 q 571 876 540 872 q 896 979 711 893 m 817 226 q 785 196 817 208 q 786 183 786 190 q 693 21 786 135 q 506 -114 583 -114 l 483 -114 q 426 -76 447 -114 q 410 -18 410 -50 q 531 216 410 65 q 728 367 653 367 q 799 292 799 367 q 792 242 799 272 q 804 237 792 240 q 817 226 817 233 m 418 889 q 284 778 371 889 q 197 614 197 667 q 231 561 197 561 q 382 669 290 561 q 474 825 474 778 q 418 889 451 838 m 696 256 q 562 144 649 256 q 475 -19 475 33 q 508 -72 475 -72 q 660 36 568 -72 q 751 192 751 144 q 696 256 729 204 m 1168 226 q 1136 196 1168 208 q 1138 183 1138 190 q 1044 21 1138 135 q 857 -114 935 -114 l 835 -114 q 778 -76 799 -114 q 761 -18 761 -50 q 883 216 761 65 q 1079 367 1004 367 q 1150 292 1150 367 q 1143 242 1150 272 q 1156 237 1143 240 q 1168 226 1168 233 m 1047 256 q 913 144 1000 256 q 826 -19 826 33 q 860 -72 826 -72 q 1011 36 919 -72 q 1103 192 1103 144 q 1047 256 1081 204 z "},"":{"ha":472,"x_min":118,"x_max":318,"o":"m 181 385 q 317 196 317 211 q 304 181 317 181 q 290 186 301 181 q 122 339 251 240 q 118 351 118 342 q 188 460 118 361 q 276 583 257 560 q 307 606 296 606 q 318 597 318 606 q 181 385 318 576 z "},"":{"ha":417,"x_min":118,"x_max":318,"o":"m 256 400 q 119 589 119 574 q 132 604 119 604 q 146 599 135 604 q 314 446 185 544 q 318 434 318 444 q 249 324 318 424 q 160 202 179 225 q 129 179 140 179 q 118 188 118 179 q 256 400 118 208 z "},"":{"ha":279,"x_min":-8,"x_max":547,"o":"m 25 158 q 38 140 25 151 q 15 131 38 131 q -8 151 -8 131 q 121 326 -8 200 q 381 556 250 453 q 523 660 511 660 q 543 656 535 660 l 547 647 q 539 636 547 642 q 206 359 388 522 q 25 158 25 196 z "},"":{"ha":1008,"x_min":-93,"x_max":1107,"o":"m 233 363 l 429 360 q 581 364 535 360 q 582 360 582 363 q 472 325 582 339 q 289 301 363 311 q 183 292 215 292 q 122 293 150 292 q 115 221 115 261 q 201 26 115 94 q 415 -43 288 -43 q 701 28 561 -43 q 886 169 808 83 q 921 194 908 194 q 929 180 929 194 q 914 150 929 165 q 701 0 840 72 q 358 -90 531 -90 q 100 24 185 -90 q 43 201 43 99 q 53 294 43 246 l 29 297 q -93 326 -93 306 q -81 350 -93 340 q -60 360 -69 360 l -39 360 q -4 361 -39 360 l 69 361 q 115 465 89 414 q 15 493 15 474 q 27 517 15 508 q 49 526 39 526 l 69 526 l 154 529 q 529 838 304 742 q 825 903 683 903 q 956 885 900 903 q 1107 694 1107 838 q 1043 540 1107 619 q 990 503 1013 503 q 976 506 983 503 q 972 536 958 515 q 986 549 978 543 q 1049 706 1049 617 q 982 838 1049 794 q 832 876 926 876 q 558 808 696 876 q 233 529 376 721 l 533 528 q 724 531 650 528 q 693 508 731 519 q 581 488 656 497 l 376 463 q 310 460 364 460 q 189 461 256 460 q 142 361 157 406 q 233 363 192 363 z "},"":{"ha":911,"x_min":38,"x_max":881,"o":"m 881 829 q 874 788 881 819 q 863 731 867 756 q 843 496 858 631 q 794 472 828 472 q 779 485 779 472 q 825 725 779 506 q 613 538 679 538 q 489 725 542 538 q 449 600 474 692 q 408 482 425 508 q 372 456 392 456 q 353 463 353 456 q 406 603 353 469 q 468 763 460 736 q 476 833 469 786 q 508 879 482 879 q 526 849 518 879 q 553 686 536 794 q 626 567 581 567 q 764 717 668 567 q 864 867 861 867 q 881 829 881 867 m 172 840 l 72 833 q 38 851 43 833 q 208 881 47 869 q 419 893 369 893 q 468 882 468 893 q 369 854 468 864 q 260 825 269 844 q 205 681 235 778 q 165 551 175 585 q 128 460 154 518 q 97 447 119 447 q 74 465 74 447 q 122 599 74 482 q 194 769 171 717 q 211 828 211 817 q 172 840 211 840 z "},"":{"ha":942,"x_min":32,"x_max":885,"o":"m 300 -1 l 79 0 q 32 13 32 0 q 40 36 32 25 q 71 49 47 47 q 178 51 94 51 q 283 53 263 51 q 194 313 194 146 q 256 566 194 444 q 424 764 317 688 q 647 840 531 840 q 817 774 764 840 q 869 596 869 707 q 788 283 869 433 q 585 50 706 132 l 860 53 q 883 40 883 53 q 873 17 883 32 q 845 1 863 1 q 564 0 828 0 q 510 11 510 0 q 536 54 514 43 q 726 278 644 106 q 807 599 807 450 q 653 807 807 807 q 522 769 588 807 q 406 671 457 732 q 317 531 354 610 q 254 282 254 401 q 318 64 254 151 q 339 39 339 46 q 331 8 339 17 q 300 -1 322 -1 z "},"":{"ha":571,"x_min":13,"x_max":490,"o":"m 172 447 q 272 533 221 507 q 365 560 324 560 q 438 536 407 560 q 439 580 439 549 q 416 690 439 611 q 372 815 393 768 q 325 903 350 861 q 278 1005 276 990 q 292 1027 281 1019 q 311 1035 303 1035 q 404 914 360 1035 q 483 636 467 747 q 489 524 489 588 q 478 376 489 460 q 397 179 458 272 q 249 39 335 86 q 136 6 190 6 q 14 122 14 6 q 33 229 14 165 q 172 447 71 326 m 86 101 q 144 39 86 39 q 233 70 179 39 q 347 183 288 101 q 428 396 417 282 q 432 428 432 414 q 399 481 432 469 l 386 483 q 364 490 381 490 q 274 434 329 490 q 171 306 218 378 q 86 101 86 176 z "},"":{"ha":628,"x_min":35,"x_max":594,"o":"m 594 -3 q 294 0 464 0 q 35 -3 124 0 q 229 328 115 143 q 438 671 425 647 q 461 710 451 694 q 490 743 481 743 q 496 733 496 743 q 534 356 506 575 q 594 -3 563 136 m 319 42 l 533 46 q 494 398 525 136 q 458 660 463 660 q 450 653 453 660 q 97 51 121 122 q 319 42 97 42 z "},"":{"ha":650,"x_min":14,"x_max":629,"o":"m 381 267 q 333 87 333 146 q 367 28 333 28 q 384 29 371 29 q 397 23 397 29 q 388 13 397 17 q 365 5 378 8 q 347 0 351 1 q 292 68 292 0 q 294 103 292 78 q 383 425 326 304 q 256 453 367 431 q 185 192 235 328 q 86 -31 136 56 q 72 -36 76 -36 l 61 -33 q 151 188 128 104 q 206 453 175 271 l 200 453 q 78 414 139 453 q 18 378 22 378 q 14 386 14 378 q 36 414 18 406 q 242 511 138 511 q 358 490 267 511 q 478 468 450 468 q 625 528 538 468 q 629 524 629 528 q 628 519 629 521 q 561 452 628 482 q 442 422 494 422 l 381 267 z "},"":{"ha":550,"x_min":28,"x_max":514,"o":"m 514 0 l 28 0 l 322 297 l 72 600 l 514 600 l 489 569 l 181 569 l 389 314 l 108 42 l 478 42 l 514 0 z "},"":{"ha":564,"x_min":26,"x_max":551,"o":"m 292 361 l 436 360 q 550 364 515 360 q 551 358 551 361 q 542 347 551 354 q 451 322 518 333 q 328 302 383 311 q 241 293 274 293 q 149 297 208 293 q 26 326 26 306 q 38 350 26 340 q 60 360 50 360 l 81 360 l 115 361 l 226 361 q 292 361 261 361 z "},"":{"ha":640,"x_min":21,"x_max":646,"o":"m 646 921 l 644 915 q 482 632 556 788 q 311 1 339 333 q 298 -10 308 -10 q 270 5 288 -10 q 251 29 253 19 q 193 244 236 132 q 117 357 150 357 q 74 303 100 357 q 40 222 47 250 q 31 194 33 194 q 21 210 21 194 q 31 257 21 226 q 65 332 42 288 q 126 411 100 399 q 140 414 135 414 q 228 311 185 414 q 293 86 271 208 q 403 546 308 243 q 594 943 497 849 q 613 950 601 950 q 635 941 625 950 q 646 921 646 932 z "},"":{"ha":1011,"x_min":29,"x_max":978,"o":"m 978 540 q 861 339 978 439 q 640 239 744 239 q 518 376 518 239 q 424 309 488 351 q 336 256 360 267 q 182 214 258 214 q 29 334 29 214 q 156 556 29 454 q 399 653 274 653 q 508 624 461 653 q 572 476 571 583 q 872 669 765 669 q 949 628 919 669 q 978 540 978 588 m 939 518 q 838 626 939 626 q 697 544 792 626 l 572 424 q 681 283 575 283 q 815 331 740 283 q 919 433 889 379 q 939 518 939 465 m 521 468 q 471 589 521 556 q 366 614 429 614 q 226 565 303 614 q 103 442 149 515 q 58 317 58 369 q 150 238 58 238 q 343 294 242 238 q 519 424 444 350 q 521 468 521 442 z "},"":{"ha":383,"x_min":-696,"x_max":654,"o":"m 654 836 q 643 782 654 808 q 613 756 632 756 q 606 768 601 756 q 619 793 606 769 q 632 842 632 817 q 577 890 632 890 q 458 808 522 890 q 328 596 394 726 q 188 308 261 465 q 30 -8 114 150 q -142 -296 -54 -165 q -335 -508 -229 -426 q -547 -590 -442 -590 q -659 -560 -622 -590 q -696 -456 -696 -531 q -672 -380 -696 -412 q -631 -347 -647 -347 q -619 -353 -626 -347 q -621 -365 -611 -358 q -667 -438 -667 -386 q -632 -519 -667 -490 q -531 -547 -597 -547 q -410 -504 -464 -547 q -176 -241 -294 -417 q 23 103 -58 -65 q 204 477 104 272 q 371 786 304 682 q 568 922 458 922 q 654 836 654 922 z "},"":{"ha":556,"x_min":32,"x_max":531,"o":"m 39 215 q 150 278 79 278 q 296 261 213 278 q 416 242 399 242 q 456 263 433 242 q 481 283 479 283 q 483 278 483 283 q 481 268 483 274 q 371 199 449 199 q 238 215 331 199 q 122 232 146 232 q 78 219 97 232 q 47 192 58 206 q 38 178 35 178 q 32 192 32 178 q 39 215 32 206 m 86 354 q 197 417 126 417 q 343 400 260 417 q 463 381 446 381 q 503 401 481 381 q 528 422 526 422 q 531 417 531 422 q 528 407 531 413 q 418 338 496 338 q 285 354 378 338 q 169 371 193 371 q 125 358 144 371 q 94 331 106 344 q 85 317 82 317 q 79 331 79 317 q 86 354 79 344 z "},"":{"ha":483,"x_min":76,"x_max":419,"o":"m 265 133 q 419 110 419 133 q 411 106 419 106 q 175 94 293 106 l 136 42 q 91 6 104 6 q 78 13 78 6 q 135 90 81 18 q 107 89 117 89 q 87 102 97 89 q 76 122 76 115 q 167 131 81 126 l 256 243 q 190 238 246 243 q 104 232 133 232 q 87 244 97 232 q 76 265 76 257 q 165 276 88 276 q 279 274 243 276 q 319 328 292 292 q 368 364 349 364 q 375 358 375 364 q 313 271 375 353 q 419 253 419 264 q 411 247 419 247 q 293 246 324 247 l 204 133 l 231 133 q 265 133 249 133 z "},"":{"ha":442,"x_min":81,"x_max":369,"o":"m 318 606 q 181 393 318 585 q 315 210 315 224 q 311 192 315 197 q 290 194 307 186 q 211 276 258 238 l 122 347 q 118 356 118 350 q 189 472 118 372 q 277 592 260 571 q 306 614 294 614 q 318 606 318 614 m 81 118 q 217 129 103 129 q 365 113 332 129 q 369 108 369 111 q 361 101 369 101 q 235 93 318 101 q 110 85 151 85 q 92 97 103 85 q 81 118 82 110 z "},"":{"ha":442,"x_min":57,"x_max":346,"o":"m 256 400 q 119 589 119 574 q 132 604 119 604 q 146 599 135 604 q 314 446 185 544 q 318 434 318 444 q 249 324 318 424 q 160 202 179 225 q 129 179 140 179 q 118 188 118 179 q 256 400 118 208 m 57 118 q 194 129 79 129 q 342 113 308 129 q 346 108 346 111 q 338 101 346 101 q 211 93 294 101 q 86 85 128 85 q 69 97 79 85 q 57 118 58 110 z "},"":{"ha":553,"x_min":129,"x_max":478,"o":"m 225 25 q 213 74 225 32 q 196 133 200 115 l 129 392 q 251 607 131 421 q 269 635 256 613 q 297 677 283 657 q 325 719 310 697 q 369 769 360 769 q 415 640 379 769 q 478 397 451 510 l 478 381 q 306 92 471 346 q 240 8 256 8 q 225 25 225 8 m 431 358 q 358 703 417 408 q 249 527 297 603 q 181 417 201 451 q 250 72 229 189 q 336 207 274 106 q 431 358 399 308 z "},"":{"ha":585,"x_min":25,"x_max":561,"o":"m 500 164 q 413 100 446 100 q 357 115 381 100 q 301 129 333 129 q 247 115 269 129 q 191 100 225 100 q 103 164 157 100 q 25 392 25 258 q 53 511 25 460 q 185 599 100 599 q 274 572 197 599 q 300 569 286 569 q 347 579 314 569 q 393 594 381 589 q 425 600 406 600 q 544 532 503 600 q 478 453 496 511 q 471 399 471 428 q 483 339 471 371 q 561 271 507 285 q 500 164 544 219 m 301 614 q 332 693 301 650 q 376 735 349 719 q 413 750 404 750 q 425 749 422 750 q 429 729 429 742 q 396 636 429 683 q 308 589 363 589 q 306 589 307 589 q 301 614 301 601 z "},"":{"ha":650,"x_min":-337,"x_max":710,"o":"m 567 679 q 542 636 567 636 q 528 647 535 636 q 486 669 515 669 q 367 578 422 669 q 297 447 356 560 l 314 447 q 515 451 465 447 q 521 446 521 450 q 422 415 521 435 q 269 389 329 400 q 165 178 226 300 q 0 -112 40 -56 q -236 -285 -121 -285 q -306 -251 -276 -285 q -337 -175 -336 -217 q -325 -158 -333 -158 q -319 -168 -321 -158 q -292 -224 -311 -204 q -251 -243 -272 -243 q -36 -97 -133 -243 q 115 203 19 -14 l 190 383 q 51 417 51 385 q 65 440 51 431 q 88 450 78 450 l 218 447 q 468 750 354 750 q 556 708 511 750 q 567 679 567 697 m 638 567 q 677 553 658 567 q 696 522 696 540 q 678 491 696 504 q 640 478 661 478 q 602 493 619 478 q 585 528 585 508 q 638 567 585 567 m 386 -15 q 315 76 315 -15 q 397 284 315 151 q 529 418 479 417 q 560 407 543 418 q 578 385 578 396 q 561 363 571 375 q 540 338 551 351 q 510 298 529 324 q 472 249 490 272 q 368 63 368 114 q 403 13 368 13 q 482 44 432 13 q 667 203 599 117 q 701 235 692 235 q 710 224 710 235 q 678 179 710 213 q 627 126 646 146 q 601 101 608 107 q 576 77 594 94 q 547 53 557 60 q 519 32 538 46 q 488 12 501 18 q 456 -3 474 6 q 386 -15 426 -15 z "},"":{"ha":696,"x_min":-337,"x_max":760,"o":"m 390 69 q 390 49 390 69 q 436 28 390 28 q 554 76 482 28 q 694 208 626 125 q 721 231 711 231 q 731 222 731 231 q 674 150 731 214 q 442 -3 535 -3 q 364 19 396 -3 q 332 85 332 40 q 356 190 332 131 q 485 428 396 285 l 485 429 q 390 410 450 419 q 269 389 329 400 q 165 178 226 300 q 0 -112 40 -56 q -236 -285 -121 -285 q -306 -251 -276 -285 q -337 -175 -336 -217 q -325 -158 -333 -158 q -319 -168 -321 -158 q -292 -224 -311 -204 q -251 -243 -272 -243 q -36 -97 -133 -243 q 115 203 19 -14 l 190 383 q 51 417 51 385 q 65 440 51 431 q 88 450 78 450 l 218 447 q 468 750 354 750 q 556 708 511 750 q 567 679 567 697 q 542 636 567 636 q 528 647 535 636 q 486 669 515 669 q 367 578 422 669 q 297 447 356 560 l 314 447 q 499 450 461 447 q 715 692 649 692 q 744 681 729 692 q 760 658 758 671 q 637 493 728 615 q 511 317 546 371 q 459 238 476 264 q 433 197 442 211 q 414 158 425 182 q 390 69 390 111 z "}}}
